%TF.GenerationSoftware,KiCad,Pcbnew,9.0.6*%
%TF.CreationDate,2026-01-15T20:05:28-05:00*%
%TF.ProjectId,DebuggingBoard,44656275-6767-4696-9e67-426f6172642e,rev?*%
%TF.SameCoordinates,Original*%
%TF.FileFunction,Soldermask,Top*%
%TF.FilePolarity,Negative*%
%FSLAX46Y46*%
G04 Gerber Fmt 4.6, Leading zero omitted, Abs format (unit mm)*
G04 Created by KiCad (PCBNEW 9.0.6) date 2026-01-15 20:05:28*
%MOMM*%
%LPD*%
G01*
G04 APERTURE LIST*
G04 Aperture macros list*
%AMRoundRect*
0 Rectangle with rounded corners*
0 $1 Rounding radius*
0 $2 $3 $4 $5 $6 $7 $8 $9 X,Y pos of 4 corners*
0 Add a 4 corners polygon primitive as box body*
4,1,4,$2,$3,$4,$5,$6,$7,$8,$9,$2,$3,0*
0 Add four circle primitives for the rounded corners*
1,1,$1+$1,$2,$3*
1,1,$1+$1,$4,$5*
1,1,$1+$1,$6,$7*
1,1,$1+$1,$8,$9*
0 Add four rect primitives between the rounded corners*
20,1,$1+$1,$2,$3,$4,$5,0*
20,1,$1+$1,$4,$5,$6,$7,0*
20,1,$1+$1,$6,$7,$8,$9,0*
20,1,$1+$1,$8,$9,$2,$3,0*%
%AMFreePoly0*
4,1,45,-0.094645,1.735355,-0.080000,1.700000,-0.080000,1.250000,0.070000,1.250000,0.070000,1.700000,0.084645,1.735355,0.120000,1.750000,0.370000,1.750000,0.405355,1.735355,0.420000,1.700000,0.420000,1.250000,0.820000,1.250000,0.855355,1.235355,0.870000,1.200000,0.870000,-1.200000,0.855355,-1.235355,0.820000,-1.250000,0.420000,-1.250000,0.420000,-1.700000,0.405355,-1.735355,
0.370000,-1.750000,0.120000,-1.750000,0.084645,-1.735355,0.070000,-1.700000,0.070000,-1.250000,-0.080000,-1.250000,-0.080000,-1.700000,-0.094645,-1.735355,-0.130000,-1.750000,-0.380000,-1.750000,-0.415355,-1.735355,-0.430000,-1.700000,-0.430000,-1.250000,-0.830000,-1.250000,-0.865355,-1.235355,-0.880000,-1.200000,-0.880000,1.200000,-0.865355,1.235355,-0.830000,1.250000,-0.430000,1.250000,
-0.430000,1.700000,-0.415355,1.735355,-0.380000,1.750000,-0.130000,1.750000,-0.094645,1.735355,-0.094645,1.735355,$1*%
G04 Aperture macros list end*
%ADD10R,2.700000X1.000000*%
%ADD11R,3.800000X1.800000*%
%ADD12R,1.000000X2.700000*%
%ADD13R,1.800000X3.800000*%
%ADD14C,2.000000*%
%ADD15RoundRect,0.135000X0.185000X-0.135000X0.185000X0.135000X-0.185000X0.135000X-0.185000X-0.135000X0*%
%ADD16RoundRect,0.225000X-0.225000X-0.250000X0.225000X-0.250000X0.225000X0.250000X-0.225000X0.250000X0*%
%ADD17RoundRect,0.075000X-0.725000X-0.075000X0.725000X-0.075000X0.725000X0.075000X-0.725000X0.075000X0*%
%ADD18RoundRect,0.075000X-0.075000X-0.725000X0.075000X-0.725000X0.075000X0.725000X-0.075000X0.725000X0*%
%ADD19RoundRect,0.140000X0.140000X0.170000X-0.140000X0.170000X-0.140000X-0.170000X0.140000X-0.170000X0*%
%ADD20RoundRect,0.200000X0.275000X-0.200000X0.275000X0.200000X-0.275000X0.200000X-0.275000X-0.200000X0*%
%ADD21RoundRect,0.140000X-0.140000X-0.170000X0.140000X-0.170000X0.140000X0.170000X-0.140000X0.170000X0*%
%ADD22RoundRect,0.140000X-0.170000X0.140000X-0.170000X-0.140000X0.170000X-0.140000X0.170000X0.140000X0*%
%ADD23RoundRect,0.225000X0.250000X-0.225000X0.250000X0.225000X-0.250000X0.225000X-0.250000X-0.225000X0*%
%ADD24RoundRect,0.225000X-0.250000X0.225000X-0.250000X-0.225000X0.250000X-0.225000X0.250000X0.225000X0*%
%ADD25C,0.800000*%
%ADD26C,6.400000*%
%ADD27RoundRect,0.140000X0.170000X-0.140000X0.170000X0.140000X-0.170000X0.140000X-0.170000X-0.140000X0*%
%ADD28RoundRect,0.250000X-2.600000X0.600000X-2.600000X-0.600000X2.600000X-0.600000X2.600000X0.600000X0*%
%ADD29RoundRect,0.218750X-0.218750X-0.256250X0.218750X-0.256250X0.218750X0.256250X-0.218750X0.256250X0*%
%ADD30RoundRect,0.200000X-0.275000X0.200000X-0.275000X-0.200000X0.275000X-0.200000X0.275000X0.200000X0*%
%ADD31R,0.600000X0.250000*%
%ADD32C,0.450000*%
%ADD33FreePoly0,0.000000*%
%ADD34R,2.000000X4.500000*%
%ADD35O,2.000000X4.000000*%
%ADD36O,4.000000X2.000000*%
%ADD37R,3.800000X2.000000*%
%ADD38RoundRect,0.250000X-0.475000X0.250000X-0.475000X-0.250000X0.475000X-0.250000X0.475000X0.250000X0*%
%ADD39R,0.800000X1.000000*%
%ADD40RoundRect,0.135000X0.135000X0.185000X-0.135000X0.185000X-0.135000X-0.185000X0.135000X-0.185000X0*%
%ADD41RoundRect,0.200000X0.200000X0.275000X-0.200000X0.275000X-0.200000X-0.275000X0.200000X-0.275000X0*%
%ADD42RoundRect,0.218750X-0.218750X-0.381250X0.218750X-0.381250X0.218750X0.381250X-0.218750X0.381250X0*%
%ADD43RoundRect,0.135000X-0.135000X-0.185000X0.135000X-0.185000X0.135000X0.185000X-0.135000X0.185000X0*%
%ADD44RoundRect,0.250000X0.250000X0.475000X-0.250000X0.475000X-0.250000X-0.475000X0.250000X-0.475000X0*%
%ADD45RoundRect,0.250000X-0.350000X0.450000X-0.350000X-0.450000X0.350000X-0.450000X0.350000X0.450000X0*%
%ADD46R,0.300000X0.800000*%
%ADD47R,0.400000X0.800000*%
%ADD48RoundRect,0.250000X2.600000X-0.600000X2.600000X0.600000X-2.600000X0.600000X-2.600000X-0.600000X0*%
%ADD49C,0.700000*%
%ADD50R,1.100000X0.550000*%
%ADD51R,1.100000X0.300000*%
%ADD52O,2.000000X1.100000*%
%ADD53O,1.800000X1.200000*%
%ADD54RoundRect,0.218750X0.218750X0.256250X-0.218750X0.256250X-0.218750X-0.256250X0.218750X-0.256250X0*%
%ADD55RoundRect,0.250000X0.450000X0.350000X-0.450000X0.350000X-0.450000X-0.350000X0.450000X-0.350000X0*%
%ADD56RoundRect,0.225000X0.225000X0.250000X-0.225000X0.250000X-0.225000X-0.250000X0.225000X-0.250000X0*%
%ADD57RoundRect,0.218750X0.218750X0.381250X-0.218750X0.381250X-0.218750X-0.381250X0.218750X-0.381250X0*%
%ADD58RoundRect,0.150000X-0.687500X-0.150000X0.687500X-0.150000X0.687500X0.150000X-0.687500X0.150000X0*%
%ADD59R,2.100000X3.300000*%
%ADD60RoundRect,0.062500X0.062500X-0.325000X0.062500X0.325000X-0.062500X0.325000X-0.062500X-0.325000X0*%
%ADD61RoundRect,0.062500X0.325000X-0.062500X0.325000X0.062500X-0.325000X0.062500X-0.325000X-0.062500X0*%
%ADD62R,2.450000X2.450000*%
%ADD63R,2.000000X3.800000*%
%ADD64RoundRect,0.135000X-0.185000X0.135000X-0.185000X-0.135000X0.185000X-0.135000X0.185000X0.135000X0*%
%ADD65RoundRect,0.250000X-1.000000X-0.650000X1.000000X-0.650000X1.000000X0.650000X-1.000000X0.650000X0*%
%ADD66R,1.050000X0.400000*%
%ADD67O,1.050000X0.400000*%
%ADD68O,0.200000X0.600000*%
%ADD69RoundRect,0.250000X0.650000X-1.000000X0.650000X1.000000X-0.650000X1.000000X-0.650000X-1.000000X0*%
%ADD70RoundRect,0.062500X0.375000X0.062500X-0.375000X0.062500X-0.375000X-0.062500X0.375000X-0.062500X0*%
%ADD71RoundRect,0.062500X0.062500X0.375000X-0.062500X0.375000X-0.062500X-0.375000X0.062500X-0.375000X0*%
%ADD72R,3.450000X3.450000*%
%ADD73R,2.000000X4.000000*%
%ADD74C,0.900000*%
%ADD75RoundRect,0.250000X-0.375000X-1.000000X0.375000X-1.000000X0.375000X1.000000X-0.375000X1.000000X0*%
%ADD76R,0.600000X0.280000*%
%ADD77R,0.300000X1.700000*%
%ADD78R,2.600000X0.850013*%
%ADD79R,1.900000X1.300000*%
%ADD80R,1.000000X0.700000*%
%ADD81R,0.300000X0.700000*%
%ADD82R,0.700000X0.250000*%
%ADD83R,1.000000X0.400000*%
%ADD84R,1.000000X0.800000*%
%ADD85R,0.400000X2.400000*%
G04 APERTURE END LIST*
D10*
%TO.C,U26*%
X150650166Y-110349987D03*
X150650166Y-108349987D03*
X150650166Y-106349987D03*
X150650166Y-104349987D03*
X150650166Y-102349987D03*
X150650166Y-100349987D03*
D11*
X155100000Y-112700000D03*
X155100000Y-97999974D03*
%TD*%
D12*
%TO.C,U21*%
X85000000Y-125597816D03*
X87000000Y-125597816D03*
X89000000Y-125597816D03*
X91000000Y-125597816D03*
X93000000Y-125597816D03*
X95000000Y-125597816D03*
D13*
X82649987Y-130047650D03*
X97350013Y-130047650D03*
%TD*%
D12*
%TO.C,U22*%
X102200000Y-125584100D03*
X104200000Y-125584100D03*
X106200000Y-125584100D03*
X108200000Y-125584100D03*
X110200000Y-125584100D03*
X112200000Y-125584100D03*
X114200000Y-125584100D03*
X116200000Y-125584100D03*
X118200000Y-125584100D03*
D13*
X99849987Y-130033934D03*
X120550013Y-130033934D03*
%TD*%
D12*
%TO.C,U20*%
X125350000Y-125595466D03*
X127350000Y-125595466D03*
X129350000Y-125595466D03*
X131350000Y-125595466D03*
X133350000Y-125595466D03*
X135350000Y-125595466D03*
D13*
X122999987Y-130045300D03*
X137700013Y-130045300D03*
%TD*%
D14*
%TO.C,TP1*%
X108200000Y-99000000D03*
%TD*%
%TO.C,TP3*%
X88500000Y-61000000D03*
%TD*%
%TO.C,TP4*%
X110100000Y-61000000D03*
%TD*%
%TO.C,TP7*%
X97800000Y-91600000D03*
%TD*%
%TO.C,TP11*%
X108100000Y-91600000D03*
%TD*%
%TO.C,TP2*%
X97800000Y-99000000D03*
%TD*%
%TO.C,TP5*%
X97500000Y-115400000D03*
%TD*%
%TO.C,TP9*%
X148100000Y-121000000D03*
%TD*%
%TO.C,TP6*%
X139900000Y-110400000D03*
%TD*%
%TO.C,TP10*%
X137900000Y-103000000D03*
%TD*%
D15*
%TO.C,R31*%
X85400000Y-92810000D03*
X85400000Y-91790000D03*
%TD*%
D16*
%TO.C,C60*%
X87950000Y-115420000D03*
X89500000Y-115420000D03*
%TD*%
D17*
%TO.C,U2*%
X119825000Y-84000000D03*
X119825000Y-84500000D03*
X119825000Y-85000000D03*
X119825000Y-85500000D03*
X119825000Y-86000000D03*
X119825000Y-86500000D03*
X119825000Y-87000000D03*
X119825000Y-87500000D03*
X119825000Y-88000000D03*
X119825000Y-88500000D03*
X119825000Y-89000000D03*
X119825000Y-89500000D03*
X119825000Y-90000000D03*
X119825000Y-90500000D03*
X119825000Y-91000000D03*
X119825000Y-91500000D03*
X119825000Y-92000000D03*
X119825000Y-92500000D03*
X119825000Y-93000000D03*
X119825000Y-93500000D03*
X119825000Y-94000000D03*
X119825000Y-94500000D03*
X119825000Y-95000000D03*
X119825000Y-95500000D03*
X119825000Y-96000000D03*
D18*
X121500000Y-97675000D03*
X122000000Y-97675000D03*
X122500000Y-97675000D03*
X123000000Y-97675000D03*
X123500000Y-97675000D03*
X124000000Y-97675000D03*
X124500000Y-97675000D03*
X125000000Y-97675000D03*
X125500000Y-97675000D03*
X126000000Y-97675000D03*
X126500000Y-97675000D03*
X127000000Y-97675000D03*
X127500000Y-97675000D03*
X128000000Y-97675000D03*
X128500000Y-97675000D03*
X129000000Y-97675000D03*
X129500000Y-97675000D03*
X130000000Y-97675000D03*
X130500000Y-97675000D03*
X131000000Y-97675000D03*
X131500000Y-97675000D03*
X132000000Y-97675000D03*
X132500000Y-97675000D03*
X133000000Y-97675000D03*
X133500000Y-97675000D03*
D17*
X135175000Y-96000000D03*
X135175000Y-95500000D03*
X135175000Y-95000000D03*
X135175000Y-94500000D03*
X135175000Y-94000000D03*
X135175000Y-93500000D03*
X135175000Y-93000000D03*
X135175000Y-92500000D03*
X135175000Y-92000000D03*
X135175000Y-91500000D03*
X135175000Y-91000000D03*
X135175000Y-90500000D03*
X135175000Y-90000000D03*
X135175000Y-89500000D03*
X135175000Y-89000000D03*
X135175000Y-88500000D03*
X135175000Y-88000000D03*
X135175000Y-87500000D03*
X135175000Y-87000000D03*
X135175000Y-86500000D03*
X135175000Y-86000000D03*
X135175000Y-85500000D03*
X135175000Y-85000000D03*
X135175000Y-84500000D03*
X135175000Y-84000000D03*
D18*
X133500000Y-82325000D03*
X133000000Y-82325000D03*
X132500000Y-82325000D03*
X132000000Y-82325000D03*
X131500000Y-82325000D03*
X131000000Y-82325000D03*
X130500000Y-82325000D03*
X130000000Y-82325000D03*
X129500000Y-82325000D03*
X129000000Y-82325000D03*
X128500000Y-82325000D03*
X128000000Y-82325000D03*
X127500000Y-82325000D03*
X127000000Y-82325000D03*
X126500000Y-82325000D03*
X126000000Y-82325000D03*
X125500000Y-82325000D03*
X125000000Y-82325000D03*
X124500000Y-82325000D03*
X124000000Y-82325000D03*
X123500000Y-82325000D03*
X123000000Y-82325000D03*
X122500000Y-82325000D03*
X122000000Y-82325000D03*
X121500000Y-82325000D03*
%TD*%
D19*
%TO.C,C35*%
X141300000Y-86800000D03*
X140340000Y-86800000D03*
%TD*%
D16*
%TO.C,C9*%
X132150000Y-100600000D03*
X133700000Y-100600000D03*
%TD*%
D20*
%TO.C,R9*%
X100970000Y-111025000D03*
X100970000Y-109375000D03*
%TD*%
D21*
%TO.C,C5*%
X120940000Y-80700000D03*
X121900000Y-80700000D03*
%TD*%
D22*
%TO.C,C33*%
X147200000Y-90820000D03*
X147200000Y-91780000D03*
%TD*%
D16*
%TO.C,C40*%
X88225000Y-86650000D03*
X89775000Y-86650000D03*
%TD*%
D23*
%TO.C,C16*%
X137687500Y-117400000D03*
X137687500Y-115850000D03*
%TD*%
%TO.C,C1*%
X111250000Y-93370000D03*
X111250000Y-91820000D03*
%TD*%
D24*
%TO.C,C11*%
X151087500Y-114350000D03*
X151087500Y-115900000D03*
%TD*%
D25*
%TO.C,H4*%
X151600000Y-51000000D03*
X152302944Y-49302944D03*
X152302944Y-52697056D03*
X154000000Y-48600000D03*
D26*
X154000000Y-51000000D03*
D25*
X154000000Y-53400000D03*
X155697056Y-49302944D03*
X155697056Y-52697056D03*
X156400000Y-51000000D03*
%TD*%
D22*
%TO.C,C20*%
X116200000Y-94620000D03*
X116200000Y-95580000D03*
%TD*%
D27*
%TO.C,C62*%
X92400000Y-111420000D03*
X92400000Y-110460000D03*
%TD*%
D28*
%TO.C,L2*%
X103980000Y-63257500D03*
X103980000Y-67757500D03*
%TD*%
D19*
%TO.C,C26*%
X141300000Y-87800000D03*
X140340000Y-87800000D03*
%TD*%
D29*
%TO.C,FB4*%
X85112500Y-86650000D03*
X86687500Y-86650000D03*
%TD*%
D15*
%TO.C,R12*%
X88100000Y-92810000D03*
X88100000Y-91790000D03*
%TD*%
D20*
%TO.C,R17*%
X105570000Y-111025000D03*
X105570000Y-109375000D03*
%TD*%
D22*
%TO.C,C66*%
X86600000Y-112800000D03*
X86600000Y-113760000D03*
%TD*%
D10*
%TO.C,U11*%
X150934805Y-79694920D03*
X150934805Y-77694920D03*
X150934805Y-75694920D03*
X150934805Y-73694920D03*
X150934805Y-71694920D03*
X150934805Y-69694920D03*
X150934805Y-67694920D03*
X150934805Y-65694920D03*
D11*
X155379559Y-82050013D03*
X155379559Y-63349988D03*
%TD*%
D27*
%TO.C,C50*%
X89800000Y-70830000D03*
X89800000Y-69870000D03*
%TD*%
D30*
%TO.C,R8*%
X99370000Y-109375000D03*
X99370000Y-111025000D03*
%TD*%
D31*
%TO.C,U7*%
X89200000Y-89600000D03*
X89200000Y-90100000D03*
X89200000Y-90600000D03*
X89200000Y-91100000D03*
X89200000Y-91600000D03*
X92000000Y-91600000D03*
X92000000Y-91100000D03*
X92000000Y-90600000D03*
X92000000Y-90100000D03*
X92000000Y-89600000D03*
D32*
X90250000Y-90600000D03*
X90600000Y-89850000D03*
D33*
X90600000Y-90600000D03*
D32*
X90600000Y-91350000D03*
X90950000Y-90600000D03*
%TD*%
D34*
%TO.C,J1*%
X82000000Y-117600000D03*
D35*
X75800000Y-117600000D03*
D36*
X78800000Y-122300000D03*
%TD*%
D22*
%TO.C,C36*%
X140350000Y-95120000D03*
X140350000Y-96080000D03*
%TD*%
D20*
%TO.C,R18*%
X105570000Y-107925000D03*
X105570000Y-106275000D03*
%TD*%
D10*
%TO.C,U17*%
X80099950Y-73150013D03*
X80099950Y-75150013D03*
X80099950Y-77150013D03*
X80099950Y-79150013D03*
X80099950Y-81150013D03*
D37*
X74500000Y-70800000D03*
X74500000Y-83500026D03*
%TD*%
D19*
%TO.C,C42*%
X105100000Y-114200000D03*
X104140000Y-114200000D03*
%TD*%
D24*
%TO.C,C21*%
X111250000Y-94900000D03*
X111250000Y-96450000D03*
%TD*%
D27*
%TO.C,C6*%
X117250000Y-93700000D03*
X117250000Y-92740000D03*
%TD*%
D15*
%TO.C,R16*%
X90850000Y-70860000D03*
X90850000Y-69840000D03*
%TD*%
D38*
%TO.C,C71*%
X96005000Y-103450000D03*
X96005000Y-105350000D03*
%TD*%
D21*
%TO.C,C43*%
X89090000Y-88100000D03*
X90050000Y-88100000D03*
%TD*%
D19*
%TO.C,C10*%
X133960000Y-99300000D03*
X133000000Y-99300000D03*
%TD*%
D21*
%TO.C,C7*%
X136300000Y-83000000D03*
X137260000Y-83000000D03*
%TD*%
D39*
%TO.C,Q1*%
X100250000Y-74450000D03*
X98350000Y-74450000D03*
X99300000Y-76750000D03*
%TD*%
D16*
%TO.C,C23*%
X148475000Y-91100000D03*
X150025000Y-91100000D03*
%TD*%
D40*
%TO.C,R3*%
X149210000Y-92450000D03*
X148190000Y-92450000D03*
%TD*%
D41*
%TO.C,R26*%
X91325000Y-119615000D03*
X89675000Y-119615000D03*
%TD*%
D22*
%TO.C,C32*%
X147200000Y-95100000D03*
X147200000Y-96060000D03*
%TD*%
D15*
%TO.C,R15*%
X93000000Y-66510000D03*
X93000000Y-65490000D03*
%TD*%
D42*
%TO.C,FB2*%
X112787500Y-95050000D03*
X114912500Y-95050000D03*
%TD*%
D22*
%TO.C,C8*%
X116830000Y-90280000D03*
X116830000Y-91240000D03*
%TD*%
D27*
%TO.C,C46*%
X91900000Y-66480000D03*
X91900000Y-65520000D03*
%TD*%
D43*
%TO.C,R32*%
X116690000Y-83900000D03*
X117710000Y-83900000D03*
%TD*%
D44*
%TO.C,C52*%
X87800000Y-68800000D03*
X85900000Y-68800000D03*
%TD*%
D40*
%TO.C,R22*%
X145810000Y-112800000D03*
X144790000Y-112800000D03*
%TD*%
D45*
%TO.C,Y1*%
X113630000Y-88440000D03*
X113630000Y-90640000D03*
X115330000Y-90640000D03*
X115330000Y-88440000D03*
%TD*%
D46*
%TO.C,U10*%
X146150064Y-48750064D03*
X145649936Y-48750064D03*
X145150064Y-48750064D03*
X144649936Y-48750064D03*
X144150064Y-48750064D03*
X143649936Y-48750064D03*
X143150064Y-48750064D03*
X142649936Y-48750064D03*
X142150064Y-48750064D03*
X141649936Y-48750064D03*
X141150064Y-48750064D03*
X140649936Y-48750064D03*
X140150064Y-48750064D03*
X139649936Y-48750064D03*
X139150064Y-48750064D03*
X138649936Y-48750064D03*
X138150064Y-48750064D03*
X137649936Y-48750064D03*
X137150064Y-48750064D03*
X136649936Y-48750064D03*
X136150064Y-48750064D03*
X135649936Y-48750064D03*
X135150064Y-48750064D03*
X134649936Y-48750064D03*
D47*
X147150064Y-46249936D03*
X133649936Y-46249936D03*
%TD*%
D27*
%TO.C,C58*%
X115700000Y-83980000D03*
X115700000Y-83020000D03*
%TD*%
D38*
%TO.C,C67*%
X85105000Y-103450000D03*
X85105000Y-105350000D03*
%TD*%
D48*
%TO.C,L1*%
X89500000Y-80750000D03*
X89500000Y-76250000D03*
%TD*%
D49*
%TO.C,USB1*%
X153600000Y-92890000D03*
X153600000Y-87110000D03*
D50*
X152520000Y-93200000D03*
X152520000Y-92400000D03*
D51*
X152520000Y-91750000D03*
X152520000Y-91250000D03*
X152520000Y-90750000D03*
X152520000Y-90250000D03*
X152520000Y-89750000D03*
X152520000Y-89250000D03*
X152520000Y-88750000D03*
X152520000Y-88250000D03*
D50*
X152520000Y-87600000D03*
X152520000Y-86800000D03*
D52*
X153070000Y-94320000D03*
D53*
X157280000Y-94320000D03*
D52*
X153070000Y-85680000D03*
D53*
X157280000Y-85680000D03*
%TD*%
D22*
%TO.C,C19*%
X117250000Y-94620000D03*
X117250000Y-95580000D03*
%TD*%
D54*
%TO.C,D1*%
X158987500Y-58590000D03*
X157412500Y-58590000D03*
%TD*%
D22*
%TO.C,C39*%
X95100000Y-72970000D03*
X95100000Y-73930000D03*
%TD*%
D27*
%TO.C,C2*%
X116200000Y-93700000D03*
X116200000Y-92740000D03*
%TD*%
D54*
%TO.C,D5*%
X158987500Y-56400000D03*
X157412500Y-56400000D03*
%TD*%
D25*
%TO.C,H3*%
X151600000Y-129000000D03*
X152302944Y-127302944D03*
X152302944Y-130697056D03*
X154000000Y-126600000D03*
D26*
X154000000Y-129000000D03*
D25*
X154000000Y-131400000D03*
X155697056Y-127302944D03*
X155697056Y-130697056D03*
X156400000Y-129000000D03*
%TD*%
D55*
%TO.C,Y2*%
X143400000Y-97670000D03*
X141200000Y-97670000D03*
X141200000Y-99370000D03*
X143400000Y-99370000D03*
%TD*%
D15*
%TO.C,R35*%
X156000000Y-57110000D03*
X156000000Y-56090000D03*
%TD*%
%TO.C,R5*%
X142500000Y-87720000D03*
X142500000Y-86700000D03*
%TD*%
D56*
%TO.C,C54*%
X87875000Y-70600000D03*
X86325000Y-70600000D03*
%TD*%
D57*
%TO.C,FB1*%
X114912500Y-93270000D03*
X112787500Y-93270000D03*
%TD*%
D30*
%TO.C,R7*%
X99370000Y-106275000D03*
X99370000Y-107925000D03*
%TD*%
%TO.C,R13*%
X86750000Y-92025000D03*
X86750000Y-93675000D03*
%TD*%
D58*
%TO.C,U1*%
X140650000Y-114200000D03*
X140650000Y-115200000D03*
X140650000Y-116200000D03*
X140650000Y-117200000D03*
X140650000Y-118200000D03*
X145925000Y-118200000D03*
X145925000Y-117200000D03*
X145925000Y-116200000D03*
X145925000Y-115200000D03*
X145925000Y-114200000D03*
D59*
X143287500Y-116200000D03*
%TD*%
D19*
%TO.C,C49*%
X92060000Y-88100000D03*
X91100000Y-88100000D03*
%TD*%
D60*
%TO.C,U5*%
X92880000Y-71707500D03*
X93380000Y-71707500D03*
X93880000Y-71707500D03*
X94380000Y-71707500D03*
X94880000Y-71707500D03*
X95380000Y-71707500D03*
D61*
X96117500Y-70970000D03*
X96117500Y-70470000D03*
X96117500Y-69970000D03*
X96117500Y-69470000D03*
X96117500Y-68970000D03*
X96117500Y-68470000D03*
D60*
X95380000Y-67732500D03*
X94880000Y-67732500D03*
X94380000Y-67732500D03*
X93880000Y-67732500D03*
X93380000Y-67732500D03*
X92880000Y-67732500D03*
D61*
X92142500Y-68470000D03*
X92142500Y-68970000D03*
X92142500Y-69470000D03*
X92142500Y-69970000D03*
X92142500Y-70470000D03*
X92142500Y-70970000D03*
D62*
X94130000Y-69720000D03*
%TD*%
D22*
%TO.C,C28*%
X139250000Y-95120000D03*
X139250000Y-96080000D03*
%TD*%
D19*
%TO.C,C68*%
X91480000Y-118315000D03*
X90520000Y-118315000D03*
%TD*%
D12*
%TO.C,U23*%
X94400000Y-55238462D03*
X92400000Y-55238462D03*
X90400000Y-55238462D03*
X88400000Y-55238462D03*
X86400000Y-55238462D03*
D63*
X96750013Y-49638512D03*
X84049987Y-49638512D03*
%TD*%
D41*
%TO.C,R27*%
X90925000Y-117000000D03*
X89275000Y-117000000D03*
%TD*%
D44*
%TO.C,C53*%
X94950000Y-62300000D03*
X93050000Y-62300000D03*
%TD*%
D64*
%TO.C,R24*%
X93795000Y-112990000D03*
X93795000Y-114010000D03*
%TD*%
D30*
%TO.C,R1*%
X148187500Y-113250000D03*
X148187500Y-114900000D03*
%TD*%
D65*
%TO.C,D2*%
X86250000Y-73200000D03*
X90250000Y-73200000D03*
%TD*%
D12*
%TO.C,U14*%
X115494945Y-54065195D03*
X113494945Y-54065195D03*
X111494945Y-54065195D03*
X109494945Y-54065195D03*
X107494945Y-54065195D03*
X105494945Y-54065195D03*
X103494945Y-54065195D03*
X101494945Y-54065195D03*
D13*
X117850038Y-49620441D03*
X99150013Y-49620441D03*
%TD*%
D15*
%TO.C,R34*%
X156000000Y-61510000D03*
X156000000Y-60490000D03*
%TD*%
D29*
%TO.C,FB6*%
X94412500Y-86650000D03*
X95987500Y-86650000D03*
%TD*%
D22*
%TO.C,C69*%
X138987500Y-115550000D03*
X138987500Y-116510000D03*
%TD*%
D64*
%TO.C,R4*%
X148250000Y-95090000D03*
X148250000Y-96110000D03*
%TD*%
D24*
%TO.C,C70*%
X85200000Y-110165000D03*
X85200000Y-111715000D03*
%TD*%
D56*
%TO.C,C51*%
X92900000Y-86650000D03*
X91350000Y-86650000D03*
%TD*%
D27*
%TO.C,C44*%
X90850000Y-68830000D03*
X90850000Y-67870000D03*
%TD*%
D23*
%TO.C,C65*%
X93795000Y-111715000D03*
X93795000Y-110165000D03*
%TD*%
D40*
%TO.C,R19*%
X95010000Y-65500000D03*
X93990000Y-65500000D03*
%TD*%
D23*
%TO.C,C41*%
X93750000Y-76800000D03*
X93750000Y-75250000D03*
%TD*%
%TO.C,C13*%
X137100000Y-85850000D03*
X137100000Y-84300000D03*
%TD*%
D40*
%TO.C,R29*%
X148787500Y-116200000D03*
X147767500Y-116200000D03*
%TD*%
D27*
%TO.C,C59*%
X103650000Y-86300000D03*
X103650000Y-85340000D03*
%TD*%
D66*
%TO.C,U6*%
X103920000Y-112150000D03*
D67*
X103920000Y-111450000D03*
D68*
X104000000Y-110650000D03*
X103500000Y-110650000D03*
X103000000Y-110650000D03*
X102500000Y-110650000D03*
D67*
X102570000Y-111450000D03*
X102570000Y-112150000D03*
D68*
X102500000Y-112950000D03*
X103000000Y-112950000D03*
X103500000Y-112950000D03*
X104000000Y-112950000D03*
%TD*%
D48*
%TO.C,L3*%
X89500000Y-107650000D03*
X89500000Y-103150000D03*
%TD*%
D23*
%TO.C,C56*%
X97600000Y-86575000D03*
X97600000Y-85025000D03*
%TD*%
D69*
%TO.C,D3*%
X98680000Y-67657500D03*
X98680000Y-63657500D03*
%TD*%
D21*
%TO.C,C47*%
X94020000Y-66550000D03*
X94980000Y-66550000D03*
%TD*%
D22*
%TO.C,C18*%
X117900000Y-86000000D03*
X117900000Y-86960000D03*
%TD*%
D42*
%TO.C,FB8*%
X99200000Y-86700000D03*
X101325000Y-86700000D03*
%TD*%
D43*
%TO.C,R23*%
X92890000Y-115400000D03*
X93910000Y-115400000D03*
%TD*%
D70*
%TO.C,U4*%
X145700000Y-93250000D03*
X145700000Y-92750000D03*
X145700000Y-92250000D03*
X145700000Y-91750000D03*
X145700000Y-91250000D03*
X145700000Y-90750000D03*
X145700000Y-90250000D03*
X145700000Y-89750000D03*
D71*
X145012500Y-89062500D03*
X144512500Y-89062500D03*
X144012500Y-89062500D03*
X143512500Y-89062500D03*
X143012500Y-89062500D03*
X142512500Y-89062500D03*
X142012500Y-89062500D03*
X141512500Y-89062500D03*
D70*
X140825000Y-89750000D03*
X140825000Y-90250000D03*
X140825000Y-90750000D03*
X140825000Y-91250000D03*
X140825000Y-91750000D03*
X140825000Y-92250000D03*
X140825000Y-92750000D03*
X140825000Y-93250000D03*
D71*
X141512500Y-93937500D03*
X142012500Y-93937500D03*
X142512500Y-93937500D03*
X143012500Y-93937500D03*
X143512500Y-93937500D03*
X144012500Y-93937500D03*
X144512500Y-93937500D03*
X145012500Y-93937500D03*
D72*
X143262500Y-91500000D03*
%TD*%
D15*
%TO.C,R14*%
X101600000Y-115220000D03*
X101600000Y-114200000D03*
%TD*%
D56*
%TO.C,C22*%
X116250000Y-105600000D03*
X114700000Y-105600000D03*
%TD*%
D43*
%TO.C,R6*%
X96140000Y-73900000D03*
X97160000Y-73900000D03*
%TD*%
D19*
%TO.C,C14*%
X121860000Y-99400000D03*
X120900000Y-99400000D03*
%TD*%
D12*
%TO.C,U24*%
X123000000Y-54399950D03*
X125000000Y-54399950D03*
X127000000Y-54399950D03*
X129000000Y-54399950D03*
D73*
X120750064Y-49800000D03*
X131249936Y-49800000D03*
%TD*%
D25*
%TO.C,H1*%
X73600000Y-51000000D03*
X74302944Y-49302944D03*
X74302944Y-52697056D03*
X76000000Y-48600000D03*
D26*
X76000000Y-51000000D03*
D25*
X76000000Y-53400000D03*
X77697056Y-49302944D03*
X77697056Y-52697056D03*
X78400000Y-51000000D03*
%TD*%
D10*
%TO.C,U18*%
X78950088Y-65300000D03*
X78950088Y-63300000D03*
X78950088Y-61300000D03*
D11*
X74500000Y-67650013D03*
X74500000Y-58949987D03*
%TD*%
D16*
%TO.C,C27*%
X148475000Y-93800000D03*
X150025000Y-93800000D03*
%TD*%
D21*
%TO.C,C31*%
X143240000Y-96170000D03*
X144200000Y-96170000D03*
%TD*%
D15*
%TO.C,R28*%
X92575000Y-118910000D03*
X92575000Y-117890000D03*
%TD*%
D20*
%TO.C,R10*%
X100970000Y-107925000D03*
X100970000Y-106275000D03*
%TD*%
D22*
%TO.C,C12*%
X117900000Y-90590000D03*
X117900000Y-91550000D03*
%TD*%
D38*
%TO.C,C72*%
X83005000Y-103450000D03*
X83005000Y-105350000D03*
%TD*%
D19*
%TO.C,C45*%
X90880000Y-66800000D03*
X89920000Y-66800000D03*
%TD*%
D74*
%TO.C,SW1*%
X141200000Y-132700000D03*
X148000000Y-132700000D03*
D75*
X142100000Y-129950000D03*
X144600000Y-129950000D03*
X147100000Y-129950000D03*
%TD*%
D56*
%TO.C,C55*%
X94775000Y-64200000D03*
X93225000Y-64200000D03*
%TD*%
D38*
%TO.C,C64*%
X93905000Y-103450000D03*
X93905000Y-105350000D03*
%TD*%
D76*
%TO.C,U3*%
X119300000Y-103155000D03*
X119300000Y-102655000D03*
X119300000Y-102155000D03*
X119300000Y-101655000D03*
X116280000Y-101655000D03*
X116280000Y-102155000D03*
X116280000Y-102655000D03*
X116280000Y-103155000D03*
D77*
X117790000Y-102405000D03*
%TD*%
D19*
%TO.C,C24*%
X142300000Y-96170000D03*
X141340000Y-96170000D03*
%TD*%
D22*
%TO.C,C30*%
X147200000Y-93120000D03*
X147200000Y-94080000D03*
%TD*%
D10*
%TO.C,U13*%
X79524917Y-105750013D03*
X79524917Y-107750013D03*
D11*
X74500000Y-103400000D03*
X74500000Y-110100026D03*
%TD*%
D27*
%TO.C,C17*%
X117900000Y-88860000D03*
X117900000Y-87900000D03*
%TD*%
D22*
%TO.C,C63*%
X86595000Y-110460000D03*
X86595000Y-111420000D03*
%TD*%
D15*
%TO.C,R25*%
X156000000Y-59300000D03*
X156000000Y-58280000D03*
%TD*%
D78*
%TO.C,U9*%
X154349834Y-122700127D03*
X154350088Y-121200000D03*
X154350088Y-119700127D03*
X154350088Y-118200000D03*
X154350088Y-116700127D03*
D79*
X157900000Y-124650089D03*
X157900000Y-114749911D03*
%TD*%
D27*
%TO.C,C3*%
X116830000Y-89300000D03*
X116830000Y-88340000D03*
%TD*%
D80*
%TO.C,U8*%
X88050000Y-113800000D03*
D81*
X88980000Y-113800000D03*
X89500000Y-113800000D03*
X90030000Y-113800000D03*
D80*
X90950000Y-113800000D03*
D82*
X91100000Y-113070000D03*
X91100000Y-112570000D03*
D83*
X90950000Y-111500000D03*
D84*
X90950000Y-110100000D03*
D85*
X89500000Y-110900000D03*
D84*
X88050000Y-110100000D03*
D83*
X88050000Y-111500000D03*
D82*
X87900000Y-112570000D03*
X87900000Y-113070000D03*
%TD*%
D41*
%TO.C,R30*%
X138800000Y-114300000D03*
X137150000Y-114300000D03*
%TD*%
D64*
%TO.C,R21*%
X93150000Y-91290000D03*
X93150000Y-92310000D03*
%TD*%
D56*
%TO.C,C38*%
X96875000Y-75250000D03*
X95325000Y-75250000D03*
%TD*%
D25*
%TO.C,H2*%
X73600000Y-129000000D03*
X74302944Y-127302944D03*
X74302944Y-130697056D03*
X76000000Y-126600000D03*
D26*
X76000000Y-129000000D03*
D25*
X76000000Y-131400000D03*
X77697056Y-127302944D03*
X77697056Y-130697056D03*
X78400000Y-129000000D03*
%TD*%
D10*
%TO.C,U12*%
X80099950Y-88900000D03*
X80099950Y-90900000D03*
X80099950Y-92900000D03*
X80099950Y-94900000D03*
X80099950Y-96900000D03*
D37*
X74500000Y-86549987D03*
X74500000Y-99250013D03*
%TD*%
D27*
%TO.C,C61*%
X102600000Y-86300000D03*
X102600000Y-85340000D03*
%TD*%
D22*
%TO.C,C15*%
X149787500Y-115240000D03*
X149787500Y-116200000D03*
%TD*%
D43*
%TO.C,R33*%
X116690000Y-85000000D03*
X117710000Y-85000000D03*
%TD*%
D16*
%TO.C,C4*%
X120050000Y-79400000D03*
X121600000Y-79400000D03*
%TD*%
D22*
%TO.C,C57*%
X115700000Y-85000000D03*
X115700000Y-85960000D03*
%TD*%
D19*
%TO.C,C25*%
X116260000Y-104200000D03*
X115300000Y-104200000D03*
%TD*%
D16*
%TO.C,C37*%
X85125000Y-85000000D03*
X86675000Y-85000000D03*
%TD*%
D15*
%TO.C,R20*%
X89800000Y-68860000D03*
X89800000Y-67840000D03*
%TD*%
D21*
%TO.C,C34*%
X145845000Y-97300000D03*
X146805000Y-97300000D03*
%TD*%
D30*
%TO.C,R11*%
X102900000Y-114400000D03*
X102900000Y-116050000D03*
%TD*%
D54*
%TO.C,D4*%
X158987500Y-60900000D03*
X157412500Y-60900000D03*
%TD*%
D24*
%TO.C,C48*%
X94550000Y-91500000D03*
X94550000Y-93050000D03*
%TD*%
D22*
%TO.C,C29*%
X146150000Y-95100000D03*
X146150000Y-96060000D03*
%TD*%
D43*
%TO.C,R2*%
X143590000Y-127500000D03*
X144610000Y-127500000D03*
%TD*%
M02*
