%TF.GenerationSoftware,KiCad,Pcbnew,9.0.6*%
%TF.CreationDate,2026-01-15T20:05:28-05:00*%
%TF.ProjectId,DebuggingBoard,44656275-6767-4696-9e67-426f6172642e,rev?*%
%TF.SameCoordinates,Original*%
%TF.FileFunction,Soldermask,Bot*%
%TF.FilePolarity,Negative*%
%FSLAX46Y46*%
G04 Gerber Fmt 4.6, Leading zero omitted, Abs format (unit mm)*
G04 Created by KiCad (PCBNEW 9.0.6) date 2026-01-15 20:05:28*
%MOMM*%
%LPD*%
G01*
G04 APERTURE LIST*
%ADD10C,0.800000*%
%ADD11C,6.400000*%
%ADD12C,0.450000*%
%ADD13R,2.000000X4.500000*%
%ADD14O,2.000000X4.000000*%
%ADD15O,4.000000X2.000000*%
%ADD16C,0.700000*%
%ADD17O,2.000000X1.100000*%
%ADD18O,1.800000X1.200000*%
%ADD19C,0.900000*%
%ADD20R,2.700000X1.000000*%
%ADD21R,3.800000X1.800000*%
%ADD22R,3.800000X2.000000*%
G04 APERTURE END LIST*
D10*
%TO.C,H4*%
X151600000Y-51000000D03*
X152302944Y-49302944D03*
X152302944Y-52697056D03*
X154000000Y-48600000D03*
D11*
X154000000Y-51000000D03*
D10*
X154000000Y-53400000D03*
X155697056Y-49302944D03*
X155697056Y-52697056D03*
X156400000Y-51000000D03*
%TD*%
D12*
%TO.C,U7*%
X90250000Y-90600000D03*
X90600000Y-89850000D03*
X90600000Y-91350000D03*
X90950000Y-90600000D03*
%TD*%
D13*
%TO.C,J1*%
X82000000Y-117600000D03*
D14*
X75800000Y-117600000D03*
D15*
X78800000Y-122300000D03*
%TD*%
D16*
%TO.C,USB1*%
X153600000Y-92890000D03*
X153600000Y-87110000D03*
D17*
X153070000Y-94320000D03*
D18*
X157280000Y-94320000D03*
D17*
X153070000Y-85680000D03*
D18*
X157280000Y-85680000D03*
%TD*%
D10*
%TO.C,H3*%
X151600000Y-129000000D03*
X152302944Y-127302944D03*
X152302944Y-130697056D03*
X154000000Y-126600000D03*
D11*
X154000000Y-129000000D03*
D10*
X154000000Y-131400000D03*
X155697056Y-127302944D03*
X155697056Y-130697056D03*
X156400000Y-129000000D03*
%TD*%
%TO.C,H1*%
X73600000Y-51000000D03*
X74302944Y-49302944D03*
X74302944Y-52697056D03*
X76000000Y-48600000D03*
D11*
X76000000Y-51000000D03*
D10*
X76000000Y-53400000D03*
X77697056Y-49302944D03*
X77697056Y-52697056D03*
X78400000Y-51000000D03*
%TD*%
D19*
%TO.C,SW1*%
X141200000Y-132700000D03*
X148000000Y-132700000D03*
%TD*%
D10*
%TO.C,H2*%
X73600000Y-129000000D03*
X74302944Y-127302944D03*
X74302944Y-130697056D03*
X76000000Y-126600000D03*
D11*
X76000000Y-129000000D03*
D10*
X76000000Y-131400000D03*
X77697056Y-127302944D03*
X77697056Y-130697056D03*
X78400000Y-129000000D03*
%TD*%
D20*
%TO.C,U19*%
X78950088Y-61299974D03*
X78950088Y-63299974D03*
X78950088Y-65299974D03*
D21*
X74500000Y-58949961D03*
X74500000Y-67649987D03*
%TD*%
D20*
%TO.C,U16*%
X80099950Y-81150013D03*
X80099950Y-79150013D03*
X80099950Y-77150013D03*
X80099950Y-75150013D03*
X80099950Y-73150013D03*
D22*
X74500000Y-83500026D03*
X74500000Y-70800000D03*
%TD*%
D20*
%TO.C,U15*%
X80099950Y-96900000D03*
X80099950Y-94900000D03*
X80099950Y-92900000D03*
X80099950Y-90900000D03*
X80099950Y-88900000D03*
D22*
X74500000Y-99250013D03*
X74500000Y-86549987D03*
%TD*%
M02*
