M48
; DRILL file {KiCad 9.0.6} date 2026-01-15T20:05:34-0500
; FORMAT={-:-/ absolute / metric / decimal}
; #@! TF.CreationDate,2026-01-15T20:05:34-05:00
; #@! TF.GenerationSoftware,Kicad,Pcbnew,9.0.6
; #@! TF.FileFunction,Plated,1,6,PTH
FMAT,2
METRIC
; #@! TA.AperFunction,Plated,PTH,ViaDrill
T1C0.300
; #@! TA.AperFunction,Plated,PTH,ComponentDrill
T2C0.300
; #@! TA.AperFunction,Plated,PTH,ComponentDrill
T3C0.500
; #@! TA.AperFunction,Plated,PTH,ComponentDrill
T4C0.600
; #@! TA.AperFunction,Plated,PTH,ComponentDrill
T5C0.700
; #@! TA.AperFunction,Plated,PTH,ComponentDrill
T6C1.000
; #@! TA.AperFunction,Plated,PTH,ComponentDrill
T7C3.200
%
G90
G05
T1
X74.3Y-79.1
X74.4Y-90.8
X74.4Y-95.1
X74.5Y-75.2
X77.0Y-61.8
X77.1Y-64.8
X77.5Y-75.1
X77.5Y-79.0
X77.8Y-91.1
X77.8Y-95.0
X82.5Y-101.2
X82.5Y-102.1
X83.5Y-101.2
X83.5Y-102.1
X83.8Y-85.0
X83.8Y-85.8
X83.8Y-86.6
X83.8Y-87.4
X83.8Y-88.2
X83.9Y-65.2
X84.1Y-111.715
X84.1Y-112.9
X84.6Y-88.2
X84.6Y-101.2
X84.6Y-102.1
X85.0Y-123.4
X85.2Y-111.715
X85.4Y-88.2
X85.6Y-101.2
X85.6Y-102.1
X86.4Y-55.238
X86.595Y-111.42
X86.6Y-101.2
X86.6Y-113.76
X87.0Y-123.4
X87.5Y-101.2
X87.8Y-58.6
X87.8Y-68.8
X87.875Y-70.6
X87.9Y-93.7
X88.05Y-111.5
X88.4Y-55.238
X88.5Y-101.2
X88.8Y-58.6
X88.8Y-68.8
X88.8Y-70.6
X89.4Y-101.2
X90.4Y-101.2
X90.95Y-111.5
X91.0Y-123.4
X91.3Y-101.2
X92.3Y-101.2
X92.4Y-55.238
X92.4Y-111.42
X92.575Y-118.91
X92.7Y-112.3
X92.9Y-90.5
X93.0Y-123.4
X93.4Y-101.2
X93.4Y-102.1
X93.795Y-111.715
X93.795Y-112.99
X94.0Y-118.9
X94.4Y-55.238
X94.4Y-101.2
X94.4Y-102.1
X95.0Y-123.4
X95.5Y-101.2
X95.5Y-102.1
X95.9Y-65.4
X96.0Y-62.4
X96.0Y-88.0
X96.14Y-73.9
X96.3Y-110.65
X96.3Y-111.35
X96.5Y-101.2
X96.5Y-102.1
X96.9Y-70.2
X97.0Y-88.0
X97.0Y-110.65
X97.0Y-111.35
X97.2Y-72.1
X97.2Y-73.1
X97.3Y-62.4
X97.3Y-65.4
X97.6Y-85.025
X97.75Y-110.65
X97.75Y-111.35
X97.8Y-91.6
X97.8Y-99.0
X97.9Y-88.0
X98.4Y-72.1
X98.4Y-73.1
X98.4Y-74.45
X98.8Y-88.0
X99.2Y-118.9
X99.45Y-112.35
X99.45Y-113.15
X99.7Y-88.0
X100.25Y-112.35
X100.25Y-113.15
X101.05Y-112.35
X101.05Y-113.15
X101.1Y-88.0
X101.9Y-88.0
X101.9Y-116.2
X102.8Y-88.0
X103.7Y-88.0
X104.3Y-123.6
X104.6Y-110.025
X104.9Y-57.5
X105.725Y-115.225
X106.35Y-111.9
X106.4Y-110.8
X106.6Y-57.2
X107.0Y-113.9
X108.0Y-56.6
X108.1Y-91.6
X108.2Y-99.0
X108.8Y-119.2
X108.9Y-77.2
X109.4Y-56.0
X109.8Y-120.9
X110.3Y-111.9
X110.35Y-110.85
X111.25Y-93.37
X111.25Y-94.9
X111.3Y-110.85
X111.3Y-111.9
X111.3Y-112.9
X112.33Y-87.4
X112.33Y-88.1
X112.33Y-88.9
X112.33Y-89.6
X112.33Y-90.3
X112.33Y-91.0
X112.33Y-91.7
X112.575Y-109.625
X112.787Y-93.27
X112.787Y-95.05
X112.83Y-87.1
X112.93Y-92.0
X113.5Y-100.2
X113.53Y-87.1
X113.73Y-92.0
X114.2Y-85.0
X114.22Y-83.98
X114.23Y-87.1
X114.53Y-92.0
X114.9Y-100.9
X114.93Y-87.1
X115.33Y-92.0
X115.53Y-87.1
X115.7Y-83.02
X116.08Y-87.25
X116.13Y-92.0
X116.25Y-105.6
X116.48Y-87.65
X116.5Y-100.0
X116.7Y-83.107
X116.83Y-88.3
X116.83Y-91.24
X117.8Y-101.0
X117.8Y-103.8
X117.9Y-86.0
X117.9Y-88.86
X118.093Y-92.306
X118.2Y-99.7
X118.587Y-87.471
X118.6Y-91.899
X118.7Y-96.9
X118.728Y-81.921
X118.9Y-71.6
X119.0Y-119.1
X119.1Y-104.9
X119.2Y-101.0
X119.7Y-82.5
X120.05Y-79.4
X120.2Y-71.1
X120.4Y-83.3
X120.8Y-71.6
X120.8Y-82.15
X121.1Y-120.4
X121.3Y-93.8
X121.3Y-95.0
X121.45Y-71.6
X121.721Y-91.0
X121.8Y-92.4
X122.1Y-71.6
X122.4Y-101.75
X122.467Y-96.117
X122.55Y-100.15
X122.75Y-71.6
X123.025Y-99.15
X123.15Y-90.5
X123.157Y-89.764
X123.204Y-87.069
X123.275Y-100.8
X123.4Y-71.6
X123.5Y-95.951
X123.8Y-108.0
X124.05Y-71.6
X124.4Y-95.951
X124.5Y-86.5
X124.5Y-107.3
X124.501Y-99.75
X124.6Y-71.0
X124.9Y-68.3
X125.0Y-85.992
X125.0Y-99.0
X125.35Y-96.35
X125.4Y-67.1
X125.5Y-85.4
X125.5Y-112.4
X125.507Y-80.604
X125.9Y-67.7
X126.0Y-94.5
X126.008Y-98.894
X126.1Y-84.8
X126.4Y-66.7
X126.5Y-80.6
X126.5Y-84.2
X126.5Y-107.3
X126.8Y-115.2
X127.0Y-67.2
X127.0Y-80.14
X127.1Y-106.3
X127.503Y-80.552
X128.003Y-80.136
X128.4Y-76.1
X128.504Y-80.55
X129.004Y-80.1
X129.9Y-87.9
X130.003Y-80.804
X130.4Y-90.0
X130.503Y-80.3
X131.0Y-99.0
X131.004Y-80.804
X131.704Y-99.004
X131.8Y-79.6
X131.9Y-80.55
X132.1Y-92.604
X132.294Y-87.596
X132.6Y-89.0
X132.6Y-107.1
X132.8Y-88.004
X132.9Y-92.604
X133.025Y-84.775
X133.319Y-93.804
X133.6Y-96.0
X133.7Y-96.7
X133.75Y-90.85
X134.2Y-82.4
X136.269Y-82.396
X136.5Y-95.5
X136.55Y-96.35
X136.798Y-91.0
X136.9Y-107.0
X137.1Y-84.3
X137.105Y-91.805
X137.15Y-114.3
X137.25Y-105.45
X137.302Y-92.5
X137.6Y-107.6
X137.688Y-115.85
X138.7Y-69.0
X138.825Y-92.496
X138.987Y-115.55
X139.396Y-93.596
X139.4Y-88.8
X139.4Y-89.6
X139.4Y-90.4
X139.4Y-91.25
X139.4Y-92.0
X139.4Y-92.8
X139.4Y-94.3
X140.0Y-97.67
X140.0Y-98.37
X140.0Y-99.07
X140.0Y-99.77
X140.1Y-97.07
X140.3Y-100.27
X140.3Y-105.2
X140.34Y-86.8
X140.34Y-87.8
X140.35Y-95.12
X140.4Y-85.5
X140.6Y-74.7
X140.65Y-93.95
X140.74Y-96.77
X140.8Y-89.1
X140.9Y-100.47
X140.9Y-104.6
X141.3Y-86.8
X141.3Y-87.8
X141.34Y-96.17
X141.4Y-104.0
X141.5Y-100.47
X141.9Y-103.4
X142.1Y-100.47
X142.1Y-129.95
X142.3Y-102.8
X142.3Y-105.1
X142.5Y-104.0
X142.7Y-100.47
X143.106Y-87.212
X143.262Y-91.5
X143.3Y-100.47
X143.59Y-127.5
X143.623Y-86.811
X143.9Y-100.47
X144.124Y-87.3
X144.2Y-96.17
X144.4Y-102.2
X144.45Y-100.22
X144.6Y-96.77
X144.6Y-97.47
X144.6Y-98.17
X144.6Y-98.87
X144.6Y-99.57
X145.396Y-109.804
X145.496Y-94.525
X145.6Y-102.8
X146.15Y-95.1
X146.15Y-96.06
X146.4Y-110.9
X146.9Y-119.9
X147.2Y-91.78
X147.2Y-94.08
X147.2Y-95.1
X147.2Y-96.06
X147.7Y-99.7
X147.8Y-117.7
X148.25Y-95.09
X148.25Y-96.11
X148.475Y-91.1
X148.5Y-108.35
X149.3Y-117.7
X150.3Y-89.727
X150.935Y-65.695
X150.935Y-67.695
X150.935Y-69.695
X150.935Y-71.695
X150.935Y-73.695
X150.935Y-75.695
X150.935Y-79.695
X151.0Y-117.2
X151.0Y-118.2
X151.088Y-115.9
X151.3Y-90.75
X151.3Y-120.05
X151.4Y-92.4
X151.5Y-87.6
X151.5Y-109.4
X151.9Y-115.95
X152.52Y-87.6
X152.52Y-92.4
X153.3Y-61.5
X153.85Y-115.55
X154.454Y-118.304
X154.6Y-61.5
X154.6Y-91.8
X155.3Y-73.7
X155.5Y-89.3
X156.0Y-61.5
T2
X90.25Y-90.6
X90.6Y-89.85
X90.6Y-91.35
X90.95Y-90.6
X93.155Y-68.745
X93.155Y-69.72
X93.155Y-70.695
X94.13Y-68.745
X94.13Y-69.72
X94.13Y-70.695
X95.105Y-68.745
X95.105Y-69.72
X95.105Y-70.695
T3
X73.6Y-51.0
X73.6Y-129.0
X74.303Y-49.303
X74.303Y-52.697
X74.303Y-127.303
X74.303Y-130.697
X76.0Y-48.6
X76.0Y-53.4
X76.0Y-126.6
X76.0Y-131.4
X77.697Y-49.303
X77.697Y-52.697
X77.697Y-127.303
X77.697Y-130.697
X78.4Y-51.0
X78.4Y-129.0
X151.6Y-51.0
X151.6Y-129.0
X152.303Y-49.303
X152.303Y-52.697
X152.303Y-127.303
X152.303Y-130.697
X154.0Y-48.6
X154.0Y-53.4
X154.0Y-126.6
X154.0Y-131.4
X155.697Y-49.303
X155.697Y-52.697
X155.697Y-127.303
X155.697Y-130.697
X156.4Y-51.0
X156.4Y-129.0
T5
X153.6Y-87.11
X153.6Y-92.89
T7
X76.0Y-51.0
X76.0Y-129.0
X154.0Y-51.0
X154.0Y-129.0
T4
G00X152.62Y-85.68
M15
G01X153.52Y-85.68
M16
G05
G00X152.62Y-94.32
M15
G01X153.52Y-94.32
M16
G05
G00X156.98Y-85.68
M15
G01X157.58Y-85.68
M16
G05
G00X156.98Y-94.32
M15
G01X157.58Y-94.32
M16
G05
T6
G00X75.8Y-116.6
M15
G01X75.8Y-118.6
M16
G05
G00X77.8Y-122.3
M15
G01X79.8Y-122.3
M16
G05
G00X82.0Y-116.35
M15
G01X82.0Y-118.85
M16
G05
M30
