%TF.GenerationSoftware,KiCad,Pcbnew,9.0.6*%
%TF.CreationDate,2026-01-15T20:05:28-05:00*%
%TF.ProjectId,DebuggingBoard,44656275-6767-4696-9e67-426f6172642e,rev?*%
%TF.SameCoordinates,Original*%
%TF.FileFunction,Legend,Bot*%
%TF.FilePolarity,Positive*%
%FSLAX46Y46*%
G04 Gerber Fmt 4.6, Leading zero omitted, Abs format (unit mm)*
G04 Created by KiCad (PCBNEW 9.0.6) date 2026-01-15 20:05:28*
%MOMM*%
%LPD*%
G01*
G04 APERTURE LIST*
%ADD10C,0.250000*%
%ADD11C,0.254001*%
%ADD12C,0.400000*%
%ADD13C,0.120000*%
G04 APERTURE END LIST*
D10*
X82493190Y-87102568D02*
X82493190Y-87864473D01*
X82874142Y-87483520D02*
X82112238Y-87483520D01*
X83064619Y-87864473D02*
X83064619Y-87102568D01*
X83064619Y-88864472D02*
X83064619Y-88293044D01*
X83064619Y-88578758D02*
X82064619Y-88578758D01*
X82064619Y-88578758D02*
X82207476Y-88483520D01*
X82207476Y-88483520D02*
X82302714Y-88388282D01*
X82302714Y-88388282D02*
X82350333Y-88293044D01*
X82159857Y-89245425D02*
X82112238Y-89293044D01*
X82112238Y-89293044D02*
X82064619Y-89388282D01*
X82064619Y-89388282D02*
X82064619Y-89626377D01*
X82064619Y-89626377D02*
X82112238Y-89721615D01*
X82112238Y-89721615D02*
X82159857Y-89769234D01*
X82159857Y-89769234D02*
X82255095Y-89816853D01*
X82255095Y-89816853D02*
X82350333Y-89816853D01*
X82350333Y-89816853D02*
X82493190Y-89769234D01*
X82493190Y-89769234D02*
X83064619Y-89197806D01*
X83064619Y-89197806D02*
X83064619Y-89816853D01*
X82064619Y-90102568D02*
X83064619Y-90435901D01*
X83064619Y-90435901D02*
X82064619Y-90769234D01*
X82017000Y-91816853D02*
X83302714Y-90959711D01*
X82112238Y-92673996D02*
X82064619Y-92578758D01*
X82064619Y-92578758D02*
X82064619Y-92435901D01*
X82064619Y-92435901D02*
X82112238Y-92293044D01*
X82112238Y-92293044D02*
X82207476Y-92197806D01*
X82207476Y-92197806D02*
X82302714Y-92150187D01*
X82302714Y-92150187D02*
X82493190Y-92102568D01*
X82493190Y-92102568D02*
X82636047Y-92102568D01*
X82636047Y-92102568D02*
X82826523Y-92150187D01*
X82826523Y-92150187D02*
X82921761Y-92197806D01*
X82921761Y-92197806D02*
X83017000Y-92293044D01*
X83017000Y-92293044D02*
X83064619Y-92435901D01*
X83064619Y-92435901D02*
X83064619Y-92531139D01*
X83064619Y-92531139D02*
X83017000Y-92673996D01*
X83017000Y-92673996D02*
X82969380Y-92721615D01*
X82969380Y-92721615D02*
X82636047Y-92721615D01*
X82636047Y-92721615D02*
X82636047Y-92531139D01*
X83064619Y-93150187D02*
X82064619Y-93150187D01*
X82064619Y-93150187D02*
X83064619Y-93721615D01*
X83064619Y-93721615D02*
X82064619Y-93721615D01*
X83064619Y-94197806D02*
X82064619Y-94197806D01*
X82064619Y-94197806D02*
X82064619Y-94435901D01*
X82064619Y-94435901D02*
X82112238Y-94578758D01*
X82112238Y-94578758D02*
X82207476Y-94673996D01*
X82207476Y-94673996D02*
X82302714Y-94721615D01*
X82302714Y-94721615D02*
X82493190Y-94769234D01*
X82493190Y-94769234D02*
X82636047Y-94769234D01*
X82636047Y-94769234D02*
X82826523Y-94721615D01*
X82826523Y-94721615D02*
X82921761Y-94673996D01*
X82921761Y-94673996D02*
X83017000Y-94578758D01*
X83017000Y-94578758D02*
X83064619Y-94435901D01*
X83064619Y-94435901D02*
X83064619Y-94197806D01*
X82017000Y-95912091D02*
X83302714Y-95054949D01*
X82064619Y-96150187D02*
X82064619Y-96769234D01*
X82064619Y-96769234D02*
X82445571Y-96435901D01*
X82445571Y-96435901D02*
X82445571Y-96578758D01*
X82445571Y-96578758D02*
X82493190Y-96673996D01*
X82493190Y-96673996D02*
X82540809Y-96721615D01*
X82540809Y-96721615D02*
X82636047Y-96769234D01*
X82636047Y-96769234D02*
X82874142Y-96769234D01*
X82874142Y-96769234D02*
X82969380Y-96721615D01*
X82969380Y-96721615D02*
X83017000Y-96673996D01*
X83017000Y-96673996D02*
X83064619Y-96578758D01*
X83064619Y-96578758D02*
X83064619Y-96293044D01*
X83064619Y-96293044D02*
X83017000Y-96197806D01*
X83017000Y-96197806D02*
X82969380Y-96150187D01*
X82969380Y-97197806D02*
X83017000Y-97245425D01*
X83017000Y-97245425D02*
X83064619Y-97197806D01*
X83064619Y-97197806D02*
X83017000Y-97150187D01*
X83017000Y-97150187D02*
X82969380Y-97197806D01*
X82969380Y-97197806D02*
X83064619Y-97197806D01*
X82064619Y-97578758D02*
X82064619Y-98197805D01*
X82064619Y-98197805D02*
X82445571Y-97864472D01*
X82445571Y-97864472D02*
X82445571Y-98007329D01*
X82445571Y-98007329D02*
X82493190Y-98102567D01*
X82493190Y-98102567D02*
X82540809Y-98150186D01*
X82540809Y-98150186D02*
X82636047Y-98197805D01*
X82636047Y-98197805D02*
X82874142Y-98197805D01*
X82874142Y-98197805D02*
X82969380Y-98150186D01*
X82969380Y-98150186D02*
X83017000Y-98102567D01*
X83017000Y-98102567D02*
X83064619Y-98007329D01*
X83064619Y-98007329D02*
X83064619Y-97721615D01*
X83064619Y-97721615D02*
X83017000Y-97626377D01*
X83017000Y-97626377D02*
X82969380Y-97578758D01*
X82064619Y-98483520D02*
X83064619Y-98816853D01*
X83064619Y-98816853D02*
X82064619Y-99150186D01*
X82264619Y-58507330D02*
X82264619Y-59126377D01*
X82264619Y-59126377D02*
X82645571Y-58793044D01*
X82645571Y-58793044D02*
X82645571Y-58935901D01*
X82645571Y-58935901D02*
X82693190Y-59031139D01*
X82693190Y-59031139D02*
X82740809Y-59078758D01*
X82740809Y-59078758D02*
X82836047Y-59126377D01*
X82836047Y-59126377D02*
X83074142Y-59126377D01*
X83074142Y-59126377D02*
X83169380Y-59078758D01*
X83169380Y-59078758D02*
X83217000Y-59031139D01*
X83217000Y-59031139D02*
X83264619Y-58935901D01*
X83264619Y-58935901D02*
X83264619Y-58650187D01*
X83264619Y-58650187D02*
X83217000Y-58554949D01*
X83217000Y-58554949D02*
X83169380Y-58507330D01*
X83169380Y-59554949D02*
X83217000Y-59602568D01*
X83217000Y-59602568D02*
X83264619Y-59554949D01*
X83264619Y-59554949D02*
X83217000Y-59507330D01*
X83217000Y-59507330D02*
X83169380Y-59554949D01*
X83169380Y-59554949D02*
X83264619Y-59554949D01*
X82264619Y-59935901D02*
X82264619Y-60554948D01*
X82264619Y-60554948D02*
X82645571Y-60221615D01*
X82645571Y-60221615D02*
X82645571Y-60364472D01*
X82645571Y-60364472D02*
X82693190Y-60459710D01*
X82693190Y-60459710D02*
X82740809Y-60507329D01*
X82740809Y-60507329D02*
X82836047Y-60554948D01*
X82836047Y-60554948D02*
X83074142Y-60554948D01*
X83074142Y-60554948D02*
X83169380Y-60507329D01*
X83169380Y-60507329D02*
X83217000Y-60459710D01*
X83217000Y-60459710D02*
X83264619Y-60364472D01*
X83264619Y-60364472D02*
X83264619Y-60078758D01*
X83264619Y-60078758D02*
X83217000Y-59983520D01*
X83217000Y-59983520D02*
X83169380Y-59935901D01*
X82264619Y-60840663D02*
X83264619Y-61173996D01*
X83264619Y-61173996D02*
X82264619Y-61507329D01*
X82217000Y-62554948D02*
X83502714Y-61697806D01*
X82264619Y-63364472D02*
X82264619Y-62888282D01*
X82264619Y-62888282D02*
X82740809Y-62840663D01*
X82740809Y-62840663D02*
X82693190Y-62888282D01*
X82693190Y-62888282D02*
X82645571Y-62983520D01*
X82645571Y-62983520D02*
X82645571Y-63221615D01*
X82645571Y-63221615D02*
X82693190Y-63316853D01*
X82693190Y-63316853D02*
X82740809Y-63364472D01*
X82740809Y-63364472D02*
X82836047Y-63412091D01*
X82836047Y-63412091D02*
X83074142Y-63412091D01*
X83074142Y-63412091D02*
X83169380Y-63364472D01*
X83169380Y-63364472D02*
X83217000Y-63316853D01*
X83217000Y-63316853D02*
X83264619Y-63221615D01*
X83264619Y-63221615D02*
X83264619Y-62983520D01*
X83264619Y-62983520D02*
X83217000Y-62888282D01*
X83217000Y-62888282D02*
X83169380Y-62840663D01*
X82264619Y-63697806D02*
X83264619Y-64031139D01*
X83264619Y-64031139D02*
X82264619Y-64364472D01*
X82217000Y-65412091D02*
X83502714Y-64554949D01*
X82312238Y-66269234D02*
X82264619Y-66173996D01*
X82264619Y-66173996D02*
X82264619Y-66031139D01*
X82264619Y-66031139D02*
X82312238Y-65888282D01*
X82312238Y-65888282D02*
X82407476Y-65793044D01*
X82407476Y-65793044D02*
X82502714Y-65745425D01*
X82502714Y-65745425D02*
X82693190Y-65697806D01*
X82693190Y-65697806D02*
X82836047Y-65697806D01*
X82836047Y-65697806D02*
X83026523Y-65745425D01*
X83026523Y-65745425D02*
X83121761Y-65793044D01*
X83121761Y-65793044D02*
X83217000Y-65888282D01*
X83217000Y-65888282D02*
X83264619Y-66031139D01*
X83264619Y-66031139D02*
X83264619Y-66126377D01*
X83264619Y-66126377D02*
X83217000Y-66269234D01*
X83217000Y-66269234D02*
X83169380Y-66316853D01*
X83169380Y-66316853D02*
X82836047Y-66316853D01*
X82836047Y-66316853D02*
X82836047Y-66126377D01*
X83264619Y-66745425D02*
X82264619Y-66745425D01*
X82264619Y-66745425D02*
X83264619Y-67316853D01*
X83264619Y-67316853D02*
X82264619Y-67316853D01*
X83264619Y-67793044D02*
X82264619Y-67793044D01*
X82264619Y-67793044D02*
X82264619Y-68031139D01*
X82264619Y-68031139D02*
X82312238Y-68173996D01*
X82312238Y-68173996D02*
X82407476Y-68269234D01*
X82407476Y-68269234D02*
X82502714Y-68316853D01*
X82502714Y-68316853D02*
X82693190Y-68364472D01*
X82693190Y-68364472D02*
X82836047Y-68364472D01*
X82836047Y-68364472D02*
X83026523Y-68316853D01*
X83026523Y-68316853D02*
X83121761Y-68269234D01*
X83121761Y-68269234D02*
X83217000Y-68173996D01*
X83217000Y-68173996D02*
X83264619Y-68031139D01*
X83264619Y-68031139D02*
X83264619Y-67793044D01*
X82493190Y-71202568D02*
X82493190Y-71964473D01*
X82874142Y-71583520D02*
X82112238Y-71583520D01*
X83064619Y-71964473D02*
X83064619Y-71202568D01*
X83064619Y-72964472D02*
X83064619Y-72393044D01*
X83064619Y-72678758D02*
X82064619Y-72678758D01*
X82064619Y-72678758D02*
X82207476Y-72583520D01*
X82207476Y-72583520D02*
X82302714Y-72488282D01*
X82302714Y-72488282D02*
X82350333Y-72393044D01*
X82159857Y-73345425D02*
X82112238Y-73393044D01*
X82112238Y-73393044D02*
X82064619Y-73488282D01*
X82064619Y-73488282D02*
X82064619Y-73726377D01*
X82064619Y-73726377D02*
X82112238Y-73821615D01*
X82112238Y-73821615D02*
X82159857Y-73869234D01*
X82159857Y-73869234D02*
X82255095Y-73916853D01*
X82255095Y-73916853D02*
X82350333Y-73916853D01*
X82350333Y-73916853D02*
X82493190Y-73869234D01*
X82493190Y-73869234D02*
X83064619Y-73297806D01*
X83064619Y-73297806D02*
X83064619Y-73916853D01*
X82064619Y-74202568D02*
X83064619Y-74535901D01*
X83064619Y-74535901D02*
X82064619Y-74869234D01*
X82017000Y-75916853D02*
X83302714Y-75059711D01*
X82112238Y-76773996D02*
X82064619Y-76678758D01*
X82064619Y-76678758D02*
X82064619Y-76535901D01*
X82064619Y-76535901D02*
X82112238Y-76393044D01*
X82112238Y-76393044D02*
X82207476Y-76297806D01*
X82207476Y-76297806D02*
X82302714Y-76250187D01*
X82302714Y-76250187D02*
X82493190Y-76202568D01*
X82493190Y-76202568D02*
X82636047Y-76202568D01*
X82636047Y-76202568D02*
X82826523Y-76250187D01*
X82826523Y-76250187D02*
X82921761Y-76297806D01*
X82921761Y-76297806D02*
X83017000Y-76393044D01*
X83017000Y-76393044D02*
X83064619Y-76535901D01*
X83064619Y-76535901D02*
X83064619Y-76631139D01*
X83064619Y-76631139D02*
X83017000Y-76773996D01*
X83017000Y-76773996D02*
X82969380Y-76821615D01*
X82969380Y-76821615D02*
X82636047Y-76821615D01*
X82636047Y-76821615D02*
X82636047Y-76631139D01*
X83064619Y-77250187D02*
X82064619Y-77250187D01*
X82064619Y-77250187D02*
X83064619Y-77821615D01*
X83064619Y-77821615D02*
X82064619Y-77821615D01*
X83064619Y-78297806D02*
X82064619Y-78297806D01*
X82064619Y-78297806D02*
X82064619Y-78535901D01*
X82064619Y-78535901D02*
X82112238Y-78678758D01*
X82112238Y-78678758D02*
X82207476Y-78773996D01*
X82207476Y-78773996D02*
X82302714Y-78821615D01*
X82302714Y-78821615D02*
X82493190Y-78869234D01*
X82493190Y-78869234D02*
X82636047Y-78869234D01*
X82636047Y-78869234D02*
X82826523Y-78821615D01*
X82826523Y-78821615D02*
X82921761Y-78773996D01*
X82921761Y-78773996D02*
X83017000Y-78678758D01*
X83017000Y-78678758D02*
X83064619Y-78535901D01*
X83064619Y-78535901D02*
X83064619Y-78297806D01*
X82017000Y-80012091D02*
X83302714Y-79154949D01*
X82064619Y-80250187D02*
X82064619Y-80869234D01*
X82064619Y-80869234D02*
X82445571Y-80535901D01*
X82445571Y-80535901D02*
X82445571Y-80678758D01*
X82445571Y-80678758D02*
X82493190Y-80773996D01*
X82493190Y-80773996D02*
X82540809Y-80821615D01*
X82540809Y-80821615D02*
X82636047Y-80869234D01*
X82636047Y-80869234D02*
X82874142Y-80869234D01*
X82874142Y-80869234D02*
X82969380Y-80821615D01*
X82969380Y-80821615D02*
X83017000Y-80773996D01*
X83017000Y-80773996D02*
X83064619Y-80678758D01*
X83064619Y-80678758D02*
X83064619Y-80393044D01*
X83064619Y-80393044D02*
X83017000Y-80297806D01*
X83017000Y-80297806D02*
X82969380Y-80250187D01*
X82969380Y-81297806D02*
X83017000Y-81345425D01*
X83017000Y-81345425D02*
X83064619Y-81297806D01*
X83064619Y-81297806D02*
X83017000Y-81250187D01*
X83017000Y-81250187D02*
X82969380Y-81297806D01*
X82969380Y-81297806D02*
X83064619Y-81297806D01*
X82064619Y-81678758D02*
X82064619Y-82297805D01*
X82064619Y-82297805D02*
X82445571Y-81964472D01*
X82445571Y-81964472D02*
X82445571Y-82107329D01*
X82445571Y-82107329D02*
X82493190Y-82202567D01*
X82493190Y-82202567D02*
X82540809Y-82250186D01*
X82540809Y-82250186D02*
X82636047Y-82297805D01*
X82636047Y-82297805D02*
X82874142Y-82297805D01*
X82874142Y-82297805D02*
X82969380Y-82250186D01*
X82969380Y-82250186D02*
X83017000Y-82202567D01*
X83017000Y-82202567D02*
X83064619Y-82107329D01*
X83064619Y-82107329D02*
X83064619Y-81821615D01*
X83064619Y-81821615D02*
X83017000Y-81726377D01*
X83017000Y-81726377D02*
X82969380Y-81678758D01*
X82064619Y-82583520D02*
X83064619Y-82916853D01*
X83064619Y-82916853D02*
X82064619Y-83250186D01*
D11*
%TO.C,U19*%
X69740081Y-58219964D02*
X72368935Y-58219964D01*
X69740081Y-68379984D02*
X69740081Y-58219964D01*
X72368935Y-68379984D02*
X69740081Y-68379984D01*
X76631216Y-58219964D02*
X77415671Y-58219964D01*
X78084506Y-58219964D02*
X78757099Y-58219964D01*
X78249098Y-60251968D02*
X78249098Y-60568834D01*
X78249098Y-62031114D02*
X78249098Y-62568834D01*
X78249098Y-64031114D02*
X78249098Y-64568834D01*
X78249098Y-66031114D02*
X78249098Y-66347980D01*
X78249098Y-66347980D02*
X78757099Y-66347980D01*
X78757099Y-58219964D02*
X78757099Y-60251968D01*
X78757099Y-60251968D02*
X78249098Y-60251968D01*
X78757099Y-66347980D02*
X78757099Y-68379984D01*
X78757099Y-68379984D02*
X76631216Y-68379984D01*
%TO.C,U16*%
X70000026Y-70159995D02*
X72340031Y-70129998D01*
X70000026Y-81527966D02*
X71890018Y-81527966D01*
X70000026Y-84150038D02*
X70000026Y-70159995D01*
X71368911Y-84150038D02*
X70000026Y-84150038D01*
X71890018Y-72789993D02*
X70000026Y-72789993D01*
X71890018Y-81527966D02*
X71890018Y-72789993D01*
X72368911Y-84150038D02*
X71229236Y-84150038D01*
X79400051Y-69989993D02*
X76631166Y-69989993D01*
X79400051Y-72418873D02*
X79400051Y-69989993D01*
X79400051Y-73881179D02*
X79400051Y-74418898D01*
X79400051Y-73975007D02*
X79400051Y-73881153D01*
X79400051Y-75881128D02*
X79400051Y-76418898D01*
X79400051Y-77881128D02*
X79400051Y-78418898D01*
X79400051Y-79881128D02*
X79400051Y-80418847D01*
X79400051Y-81881153D02*
X79400051Y-84150038D01*
X79400051Y-84150038D02*
X76631192Y-84150038D01*
D12*
X80379858Y-82829972D02*
G75*
G02*
X79980062Y-82829972I-199898J0D01*
G01*
X79980062Y-82829972D02*
G75*
G02*
X80379858Y-82829972I199898J0D01*
G01*
D13*
X74480061Y-81499975D02*
X72480061Y-82099975D01*
X72480061Y-80799975D01*
X74480061Y-81499975D01*
G36*
X74480061Y-81499975D02*
G01*
X72480061Y-82099975D01*
X72480061Y-80799975D01*
X74480061Y-81499975D01*
G37*
D11*
%TO.C,U15*%
X70000026Y-85909982D02*
X72340031Y-85879985D01*
X70000026Y-97277953D02*
X71890018Y-97277953D01*
X70000026Y-99900025D02*
X70000026Y-85909982D01*
X71368911Y-99900025D02*
X70000026Y-99900025D01*
X71890018Y-88539980D02*
X70000026Y-88539980D01*
X71890018Y-97277953D02*
X71890018Y-88539980D01*
X72368911Y-99900025D02*
X71229236Y-99900025D01*
X79400051Y-85739980D02*
X76631166Y-85739980D01*
X79400051Y-88168860D02*
X79400051Y-85739980D01*
X79400051Y-89631166D02*
X79400051Y-90168885D01*
X79400051Y-89724994D02*
X79400051Y-89631140D01*
X79400051Y-91631115D02*
X79400051Y-92168885D01*
X79400051Y-93631115D02*
X79400051Y-94168885D01*
X79400051Y-95631115D02*
X79400051Y-96168834D01*
X79400051Y-97631140D02*
X79400051Y-99900025D01*
X79400051Y-99900025D02*
X76631192Y-99900025D01*
D12*
X80379858Y-98579959D02*
G75*
G02*
X79980062Y-98579959I-199898J0D01*
G01*
X79980062Y-98579959D02*
G75*
G02*
X80379858Y-98579959I199898J0D01*
G01*
D13*
X74480061Y-97249962D02*
X72480061Y-97849962D01*
X72480061Y-96549962D01*
X74480061Y-97249962D01*
G36*
X74480061Y-97249962D02*
G01*
X72480061Y-97849962D01*
X72480061Y-96549962D01*
X74480061Y-97249962D01*
G37*
%TD*%
M02*
