%TF.GenerationSoftware,KiCad,Pcbnew,9.0.6*%
%TF.CreationDate,2026-01-15T20:05:28-05:00*%
%TF.ProjectId,DebuggingBoard,44656275-6767-4696-9e67-426f6172642e,rev?*%
%TF.SameCoordinates,Original*%
%TF.FileFunction,Copper,L3,Inr*%
%TF.FilePolarity,Positive*%
%FSLAX46Y46*%
G04 Gerber Fmt 4.6, Leading zero omitted, Abs format (unit mm)*
G04 Created by KiCad (PCBNEW 9.0.6) date 2026-01-15 20:05:28*
%MOMM*%
%LPD*%
G01*
G04 APERTURE LIST*
%TA.AperFunction,ComponentPad*%
%ADD10C,0.800000*%
%TD*%
%TA.AperFunction,ComponentPad*%
%ADD11C,6.400000*%
%TD*%
%TA.AperFunction,ComponentPad*%
%ADD12C,0.450000*%
%TD*%
%TA.AperFunction,ComponentPad*%
%ADD13R,2.000000X4.500000*%
%TD*%
%TA.AperFunction,ComponentPad*%
%ADD14O,2.000000X4.000000*%
%TD*%
%TA.AperFunction,ComponentPad*%
%ADD15O,4.000000X2.000000*%
%TD*%
%TA.AperFunction,ComponentPad*%
%ADD16C,0.700000*%
%TD*%
%TA.AperFunction,ComponentPad*%
%ADD17O,2.000000X1.100000*%
%TD*%
%TA.AperFunction,ComponentPad*%
%ADD18O,1.800000X1.200000*%
%TD*%
%TA.AperFunction,HeatsinkPad*%
%ADD19C,0.500000*%
%TD*%
%TA.AperFunction,ViaPad*%
%ADD20C,0.450000*%
%TD*%
%TA.AperFunction,ViaPad*%
%ADD21C,0.600000*%
%TD*%
%TA.AperFunction,Conductor*%
%ADD22C,0.142494*%
%TD*%
%TA.AperFunction,Conductor*%
%ADD23C,0.152146*%
%TD*%
%TA.AperFunction,Conductor*%
%ADD24C,0.150000*%
%TD*%
G04 APERTURE END LIST*
D10*
%TO.N,GND*%
%TO.C,H4*%
X151600000Y-51000000D03*
X152302944Y-49302944D03*
X152302944Y-52697056D03*
X154000000Y-48600000D03*
D11*
X154000000Y-51000000D03*
D10*
X154000000Y-53400000D03*
X155697056Y-49302944D03*
X155697056Y-52697056D03*
X156400000Y-51000000D03*
%TD*%
D12*
%TO.N,GND*%
%TO.C,U7*%
X90250000Y-90600000D03*
X90600000Y-89850000D03*
X90600000Y-91350000D03*
X90950000Y-90600000D03*
%TD*%
D13*
%TO.N,+12V*%
%TO.C,J1*%
X82000000Y-117600000D03*
D14*
%TO.N,GND*%
X75800000Y-117600000D03*
D15*
X78800000Y-122300000D03*
%TD*%
D16*
%TO.N,*%
%TO.C,USB1*%
X153600000Y-92890000D03*
X153600000Y-87110000D03*
D17*
%TO.N,GND*%
X153070000Y-94320000D03*
D18*
X157280000Y-94320000D03*
D17*
X153070000Y-85680000D03*
D18*
X157280000Y-85680000D03*
%TD*%
D10*
%TO.N,GND*%
%TO.C,H3*%
X151600000Y-129000000D03*
X152302944Y-127302944D03*
X152302944Y-130697056D03*
X154000000Y-126600000D03*
D11*
X154000000Y-129000000D03*
D10*
X154000000Y-131400000D03*
X155697056Y-127302944D03*
X155697056Y-130697056D03*
X156400000Y-129000000D03*
%TD*%
D19*
%TO.N,GND*%
%TO.C,U5*%
X93155000Y-70695000D03*
X94130000Y-70695000D03*
X95105000Y-70695000D03*
X93155000Y-69720000D03*
X94130000Y-69720000D03*
X95105000Y-69720000D03*
X93155000Y-68745000D03*
X94130000Y-68745000D03*
X95105000Y-68745000D03*
%TD*%
D10*
%TO.N,GND*%
%TO.C,H1*%
X73600000Y-51000000D03*
X74302944Y-49302944D03*
X74302944Y-52697056D03*
X76000000Y-48600000D03*
D11*
X76000000Y-51000000D03*
D10*
X76000000Y-53400000D03*
X77697056Y-49302944D03*
X77697056Y-52697056D03*
X78400000Y-51000000D03*
%TD*%
%TO.N,GND*%
%TO.C,H2*%
X73600000Y-129000000D03*
X74302944Y-127302944D03*
X74302944Y-130697056D03*
X76000000Y-126600000D03*
D11*
X76000000Y-129000000D03*
D10*
X76000000Y-131400000D03*
X77697056Y-127302944D03*
X77697056Y-130697056D03*
X78400000Y-129000000D03*
%TD*%
D20*
%TO.N,GND*%
X108900000Y-77200000D03*
X97600000Y-85025000D03*
X115700000Y-83020000D03*
X108200000Y-99000000D03*
%TO.N,+5V*%
X97800000Y-99000000D03*
%TO.N,+3.3V*%
X97800000Y-91600000D03*
%TO.N,/BOOT0*%
X137250000Y-105450000D03*
D21*
%TO.N,/OP_AMP+*%
X83900000Y-65200000D03*
%TO.N,+3.3VA*%
X108100000Y-91600000D03*
D20*
%TO.N,GND*%
X112330000Y-89600000D03*
X140740000Y-96770000D03*
X116080000Y-87250000D03*
X116830000Y-91240000D03*
X122400000Y-101750000D03*
X149300000Y-117700000D03*
X125400000Y-67100000D03*
X111300000Y-112900000D03*
X124600000Y-71000000D03*
X112930000Y-92000000D03*
X125500000Y-112400000D03*
X140300000Y-100270000D03*
X112330000Y-88900000D03*
X128400000Y-76100000D03*
X94000000Y-118900000D03*
X137100000Y-84300000D03*
X143300000Y-100470000D03*
X145600000Y-102800000D03*
X131800000Y-79600000D03*
X112830000Y-87100000D03*
X104900000Y-57500000D03*
X147200000Y-94080000D03*
X146400000Y-110900000D03*
X155300000Y-73700000D03*
X114230000Y-87100000D03*
X123275000Y-100800000D03*
X108000000Y-56600000D03*
X148250000Y-96110000D03*
X147200000Y-96060000D03*
X123025000Y-99150000D03*
X112330000Y-88100000D03*
X104600000Y-110025000D03*
X106600000Y-57200000D03*
X141500000Y-100470000D03*
X119200000Y-101000000D03*
X144200000Y-96170000D03*
X116500000Y-100000000D03*
X99200000Y-118900000D03*
X116830000Y-88300000D03*
X115330000Y-92000000D03*
X142500000Y-104000000D03*
X144600000Y-98870000D03*
X140000000Y-98370000D03*
X117800000Y-101000000D03*
X136900000Y-107000000D03*
X126800000Y-115200000D03*
X138700000Y-69000000D03*
X119100000Y-104900000D03*
X114930000Y-87100000D03*
X119700000Y-82500000D03*
X144600000Y-98170000D03*
X115530000Y-87100000D03*
X118200000Y-99700000D03*
X112330000Y-91700000D03*
X151500000Y-109400000D03*
X113530000Y-87100000D03*
X127100000Y-106300000D03*
X119000000Y-119100000D03*
X123157168Y-89764275D03*
X140340000Y-86800000D03*
X112330000Y-91000000D03*
X121100000Y-120400000D03*
X140900000Y-100470000D03*
X142300000Y-105100000D03*
X144600000Y-96770000D03*
X143900000Y-100470000D03*
X108800000Y-119200000D03*
X147800000Y-117700000D03*
X141340000Y-96170000D03*
X107000000Y-113900000D03*
X112330000Y-87400000D03*
X140800000Y-89100000D03*
X116480000Y-87650000D03*
X113500000Y-100200000D03*
X109400000Y-56000000D03*
X147200000Y-91780000D03*
X114900000Y-100900000D03*
X114530000Y-92000000D03*
X143262500Y-91500000D03*
X120200000Y-71100000D03*
X109800000Y-120900000D03*
X144600000Y-97470000D03*
X142100000Y-100470000D03*
X117800000Y-103800000D03*
X144400000Y-102200000D03*
X140340000Y-87800000D03*
X112330000Y-90300000D03*
X116130000Y-92000000D03*
X140100000Y-97070000D03*
X140000000Y-99770000D03*
X147700000Y-99700000D03*
X146150000Y-96060000D03*
X144450000Y-100220000D03*
X142700000Y-100470000D03*
X140000000Y-99070000D03*
X140000000Y-97670000D03*
X144600000Y-99570000D03*
X126000000Y-94500000D03*
X116700000Y-83107106D03*
X132600000Y-107100000D03*
X104300000Y-123600000D03*
X113730000Y-92000000D03*
X101900000Y-116200000D03*
X126400000Y-66700000D03*
%TO.N,+3.3VA*%
X112787500Y-93270000D03*
X103700000Y-88000000D03*
X101900000Y-88000000D03*
X111250000Y-94900000D03*
X111250000Y-93370000D03*
X102800000Y-88000000D03*
X101100000Y-88000000D03*
X112787500Y-95050000D03*
%TO.N,+3.3V*%
X148475000Y-91100000D03*
X87800000Y-58600000D03*
X96000000Y-88000000D03*
X133700000Y-96700000D03*
X98800000Y-88000000D03*
X150934805Y-65694920D03*
X146150000Y-95100000D03*
X150934805Y-79694920D03*
X141300000Y-87800000D03*
X147200000Y-95100000D03*
X88800000Y-58600000D03*
X99700000Y-88000000D03*
X97000000Y-88000000D03*
X136269100Y-82396247D03*
X97900000Y-88000000D03*
X145396446Y-109803554D03*
X142100000Y-129950000D03*
X148500000Y-108350000D03*
X117900000Y-88860000D03*
X116250000Y-105600000D03*
X112575000Y-109625000D03*
X120050000Y-79400000D03*
X117900000Y-86000000D03*
X154453598Y-118303510D03*
X122550000Y-100150000D03*
X140650000Y-93950000D03*
%TO.N,VBUS*%
X110300000Y-111900000D03*
X138987500Y-115550000D03*
X152520000Y-87600000D03*
X110350000Y-110850000D03*
X152520000Y-92400000D03*
X137687500Y-115850000D03*
X137150000Y-114300000D03*
X106350000Y-111900000D03*
X151900000Y-115950000D03*
X151500000Y-87600000D03*
X111300000Y-111900000D03*
X106400000Y-110800000D03*
X151400000Y-92400000D03*
X151087500Y-115900000D03*
X111300000Y-110850000D03*
%TO.N,/nRST*%
X146900000Y-119900000D03*
X123150000Y-90500000D03*
%TO.N,+5V*%
X85600000Y-101200000D03*
X77100000Y-64800000D03*
X83800000Y-87400000D03*
X93400000Y-101200000D03*
X94400000Y-102100000D03*
X91300000Y-101200000D03*
X88500000Y-101200000D03*
X87500000Y-101200000D03*
X83800000Y-88200000D03*
X89400000Y-101200000D03*
X97200000Y-73100000D03*
X83500000Y-102100000D03*
X98400000Y-74450000D03*
X84600000Y-101200000D03*
X95500000Y-102100000D03*
X77000000Y-61800000D03*
X96500000Y-102100000D03*
X97200000Y-72100000D03*
X94400000Y-101200000D03*
X83500000Y-101200000D03*
X85400000Y-88200000D03*
X98400000Y-72100000D03*
X85600000Y-102100000D03*
X86600000Y-113760000D03*
X137600000Y-107600000D03*
X96500000Y-101200000D03*
X98400000Y-73100000D03*
X92575000Y-118910000D03*
X92300000Y-101200000D03*
X82500000Y-101200000D03*
X83800000Y-85800000D03*
X86600000Y-101200000D03*
X123800000Y-108000000D03*
X90400000Y-101200000D03*
X84600000Y-88200000D03*
X93400000Y-102100000D03*
X83800000Y-85000000D03*
X83800000Y-86600000D03*
X95500000Y-101200000D03*
X84600000Y-102100000D03*
X82500000Y-102100000D03*
%TO.N,Net-(C35-Pad1)*%
X140350000Y-95120000D03*
X141300000Y-86800000D03*
%TO.N,Net-(U5-ENN)*%
X96140000Y-73900000D03*
X96900000Y-70200000D03*
%TO.N,Net-(U7-SNS)*%
X87900000Y-93700000D03*
X92900000Y-90500000D03*
%TO.N,/DISP_CS*%
X150934805Y-71694920D03*
X129003813Y-80100000D03*
%TO.N,/OP_AMP+*%
X88800000Y-70600000D03*
X87875000Y-70600000D03*
X77800000Y-91100000D03*
X77500000Y-75100000D03*
X88800000Y-68800000D03*
X77500000Y-79000000D03*
X77800000Y-95000000D03*
X87800000Y-68800000D03*
%TO.N,/OP_AMP-*%
X74300000Y-79100000D03*
X97300000Y-62400000D03*
X97300000Y-65400000D03*
X74500000Y-75200000D03*
X74400000Y-90800000D03*
X96000000Y-62400000D03*
X95900000Y-65400000D03*
X74400000Y-95100000D03*
%TO.N,/V_SELECT*%
X86595000Y-111420000D03*
X84100000Y-112900000D03*
X99450000Y-113150000D03*
X90950000Y-111500000D03*
X99450000Y-112350000D03*
X92700000Y-112300000D03*
X93795000Y-111715000D03*
X84100000Y-111715000D03*
X92400000Y-111420000D03*
X85200000Y-111715000D03*
X101050000Y-112350000D03*
X88050000Y-111500000D03*
X100250000Y-113150000D03*
X101050000Y-113150000D03*
X93795000Y-112990000D03*
X100250000Y-112350000D03*
%TO.N,+12V*%
X97000000Y-110650000D03*
X96300000Y-111350000D03*
X96300000Y-110650000D03*
X97000000Y-111350000D03*
X97750000Y-111350000D03*
X97750000Y-110650000D03*
%TO.N,/SWCLK*%
X129900000Y-87900000D03*
X153850000Y-115550000D03*
%TO.N,/SWDIO*%
X151300000Y-120050038D03*
X130400000Y-90000000D03*
%TO.N,/DISP_MOSI*%
X150934805Y-75694920D03*
X131900000Y-80550000D03*
%TO.N,/DISP_RST*%
X150934805Y-67694920D03*
X128002813Y-80135876D03*
%TO.N,/DISP_DC*%
X150934805Y-69694920D03*
X128503813Y-80550000D03*
%TO.N,/DISP_SCK*%
X150934805Y-73694920D03*
X140600000Y-74700000D03*
%TO.N,/BOOT0*%
X143590000Y-127500000D03*
X124500000Y-86500000D03*
%TO.N,Net-(U4-RBIAS)*%
X145496138Y-94525000D03*
X148250000Y-95090000D03*
%TO.N,/ULPI_CK*%
X140400000Y-85500000D03*
X123500000Y-95951073D03*
%TO.N,/CC2*%
X155500000Y-89300000D03*
X151000000Y-118200000D03*
%TO.N,/CC1*%
X154600000Y-91800000D03*
X151000000Y-117200000D03*
%TO.N,/V_NEG_DAC*%
X114200000Y-85000000D03*
X87000000Y-123400000D03*
%TO.N,/ULPI_D4*%
X131704313Y-99004313D03*
X139400000Y-91250000D03*
%TO.N,/ULPI_D0*%
X118700000Y-96900000D03*
X139400000Y-94300000D03*
%TO.N,/PSSI_PDCK*%
X124400000Y-95951073D03*
X133025000Y-84775000D03*
%TO.N,/ULPI_DIR*%
X143623074Y-86810614D03*
X118600000Y-91898927D03*
%TO.N,/ULPI_D5*%
X136500000Y-95500000D03*
X139400000Y-90400000D03*
%TO.N,/ULPI_D2*%
X139400000Y-92800000D03*
X126007991Y-98894477D03*
%TO.N,/ULPI_STP*%
X121720882Y-91000000D03*
X143105902Y-87212122D03*
%TO.N,/ULPI_D7*%
X126500000Y-84200000D03*
X139400000Y-88800000D03*
%TO.N,/ULPI_D1*%
X139395687Y-93595687D03*
X125000000Y-99000000D03*
%TO.N,/PSSI_DE*%
X134200000Y-82400000D03*
X122466819Y-96116822D03*
%TO.N,/ULPI_NXT*%
X118093361Y-92306138D03*
X144124147Y-87300000D03*
%TO.N,/V_POS_DAC*%
X114220000Y-83980000D03*
X85000000Y-123400000D03*
%TO.N,/ULPI_D3*%
X139400000Y-92000000D03*
X131000000Y-99000000D03*
%TO.N,/ULPI_D6*%
X133600000Y-96000000D03*
X139400000Y-89600000D03*
%TO.N,/D-*%
X150300000Y-89727400D03*
X151300000Y-90749612D03*
%TO.N,/FGEN_SGAIN*%
X122100006Y-71600000D03*
X125507455Y-80604223D03*
%TO.N,/FGEN_SOFF*%
X121450003Y-71600000D03*
X120800000Y-82150000D03*
%TO.N,/FGEN_SAMP*%
X126500000Y-80600000D03*
X122750009Y-71600000D03*
%TO.N,/FGEN_SCLK*%
X123400012Y-71600000D03*
X127000000Y-80140379D03*
%TO.N,/FGEN_MOSI*%
X124050015Y-71600000D03*
X127502813Y-80552304D03*
%TO.N,/ADC2_INP8*%
X125350000Y-96350000D03*
X126500000Y-107300000D03*
%TO.N,/ADC1_INP4*%
X124501073Y-99750000D03*
X124500000Y-107300000D03*
%TO.N,/SPI2_CK*%
X136550000Y-96350000D03*
X133750000Y-90850000D03*
%TO.N,/V_NEG_I*%
X95000000Y-123400000D03*
X121800000Y-92400000D03*
%TO.N,/V_POS_I*%
X121300000Y-95000000D03*
X93000000Y-123400000D03*
%TO.N,/VPSU_CONN_IND*%
X91000000Y-123400000D03*
X121300000Y-93800000D03*
%TO.N,/FGEN_CONN_IND*%
X120400000Y-83300000D03*
X120800000Y-71600000D03*
%TO.N,/CAN_RX*%
X125900000Y-67700000D03*
X130503232Y-80300000D03*
X132800000Y-88003753D03*
%TO.N,/CAN_TX*%
X131003861Y-80803753D03*
X132293603Y-87596247D03*
X127000000Y-67200000D03*
%TO.N,/CAN_CONN_IND*%
X124900000Y-68300000D03*
X130003232Y-80803753D03*
%TO.N,/USB_PD_PG*%
X133319176Y-93803754D03*
X140300000Y-105200000D03*
%TO.N,/UART4_RX*%
X125500000Y-85400000D03*
X92400000Y-55238462D03*
%TO.N,/UART4_TX*%
X94400000Y-55238462D03*
X126100000Y-84800000D03*
%TO.N,/COMP_CONN_IND*%
X125000000Y-85992077D03*
X88400000Y-55238462D03*
%TO.N,/COMP_RST*%
X118587218Y-87470865D03*
X86400000Y-55238462D03*
%TO.N,/ENC_BUTTON*%
X142300000Y-102800000D03*
X138825339Y-92496247D03*
%TO.N,/ENC_A*%
X141400000Y-104000000D03*
X137104961Y-91805360D03*
%TO.N,/ENC_B*%
X136798200Y-91000000D03*
X141900000Y-103400000D03*
%TO.N,/BUTTON*%
X137301800Y-92500000D03*
X140900000Y-104600000D03*
%TO.N,/DBUG_LED*%
X154600000Y-61500000D03*
X132100000Y-92603753D03*
%TO.N,/POWER_IND*%
X105725000Y-115225000D03*
X123203753Y-87069015D03*
%TO.N,/LED2*%
X153300000Y-61500000D03*
X132600000Y-89000000D03*
%TO.N,/LED3*%
X132900000Y-92603753D03*
X156000000Y-61500000D03*
%TO.N,/GPIO*%
X118900000Y-71600000D03*
X118728054Y-81920946D03*
%TD*%
D22*
%TO.N,/ULPI_CK*%
X123700000Y-92300000D02*
X123700000Y-85950000D01*
X123700000Y-93919988D02*
X123400000Y-93919988D01*
X126052073Y-83597927D02*
X135097927Y-83597927D01*
X124070156Y-93919988D02*
X123700000Y-93919988D01*
X123700000Y-95751073D02*
X123700000Y-95419988D01*
X123700000Y-93019988D02*
X123700000Y-92300000D01*
X138989487Y-86169164D02*
X138989487Y-85500000D01*
X123700000Y-85950000D02*
X126052073Y-83597927D01*
X137789487Y-85200000D02*
X137789487Y-84830836D01*
X138989487Y-85200000D02*
X138989487Y-84830836D01*
X138389487Y-85500000D02*
X138389487Y-86169164D01*
X123700000Y-94519988D02*
X124070156Y-94519988D01*
X138389487Y-84830836D02*
X138389487Y-85200000D01*
X139589487Y-84830836D02*
X139589487Y-85200000D01*
X123500000Y-95951073D02*
X123700000Y-95751073D01*
X138989487Y-85500000D02*
X138989487Y-85200000D01*
X135097927Y-83597927D02*
X137000000Y-85500000D01*
X123329844Y-94519988D02*
X123400000Y-94519988D01*
X123400000Y-95119988D02*
X123329844Y-95119988D01*
X139889487Y-85500000D02*
X140400000Y-85500000D01*
X138389487Y-85200000D02*
X138389487Y-85500000D01*
X137000000Y-85500000D02*
X137489487Y-85500000D01*
X123400000Y-94519988D02*
X123700000Y-94519988D01*
X123329824Y-93319988D02*
X123400000Y-93319988D01*
X123400000Y-93919988D02*
X123329824Y-93919988D01*
X139589487Y-85200000D02*
G75*
G03*
X139889487Y-85500013I300013J0D01*
G01*
X123029844Y-94819988D02*
G75*
G02*
X123329844Y-94520044I299956J-12D01*
G01*
X123400000Y-93319988D02*
G75*
G03*
X123699988Y-93019988I0J299988D01*
G01*
X123329844Y-95119988D02*
G75*
G02*
X123029812Y-94819988I-44J299988D01*
G01*
X139289487Y-84530836D02*
G75*
G02*
X139589464Y-84830836I13J-299964D01*
G01*
X137789487Y-84830836D02*
G75*
G02*
X138089487Y-84530787I300013J36D01*
G01*
X123029824Y-93619988D02*
G75*
G02*
X123329824Y-93320024I299976J-12D01*
G01*
X123700000Y-95419988D02*
G75*
G03*
X123400000Y-95120000I-300000J-12D01*
G01*
X138089487Y-84530836D02*
G75*
G02*
X138389464Y-84830836I13J-299964D01*
G01*
X124370156Y-94219988D02*
G75*
G03*
X124070156Y-93920044I-299956J-12D01*
G01*
X137489487Y-85500000D02*
G75*
G03*
X137789500Y-85200000I13J300000D01*
G01*
X138389487Y-86169164D02*
G75*
G03*
X138689487Y-86469213I300013J-36D01*
G01*
X124070156Y-94519988D02*
G75*
G03*
X124370188Y-94219988I44J299988D01*
G01*
X123329824Y-93919988D02*
G75*
G02*
X123029812Y-93619988I-24J299988D01*
G01*
X138689487Y-86469164D02*
G75*
G03*
X138989464Y-86169164I13J299964D01*
G01*
X138989487Y-84830836D02*
G75*
G02*
X139289487Y-84530787I300013J36D01*
G01*
%TO.N,/ULPI_D4*%
X138950000Y-91250000D02*
X139400000Y-91250000D01*
X133481710Y-92678505D02*
X133481710Y-92800000D01*
X137100000Y-97500000D02*
X137100000Y-94300000D01*
X134800000Y-87100000D02*
X138950000Y-91250000D01*
X131700000Y-99008626D02*
X131700000Y-99650000D01*
X137100000Y-94300000D02*
X135900000Y-93100000D01*
X132250000Y-100200000D02*
X134400000Y-100200000D01*
X128400000Y-91900000D02*
X128400000Y-88400000D01*
X131704313Y-99004313D02*
X131700000Y-99008626D01*
X131700000Y-99650000D02*
X132250000Y-100200000D01*
X134400000Y-100200000D02*
X137100000Y-97500000D01*
X128400000Y-88400000D02*
X129700000Y-87100000D01*
X129700000Y-87100000D02*
X134800000Y-87100000D01*
X135900000Y-93100000D02*
X134381710Y-93100000D01*
X134081710Y-92800000D02*
X134081710Y-92678505D01*
X133181710Y-93100000D02*
X130981710Y-93100000D01*
X130981710Y-93100000D02*
X129600000Y-93100000D01*
X129600000Y-93100000D02*
X128400000Y-91900000D01*
X134081710Y-92678505D02*
G75*
G03*
X133781710Y-92378490I-300010J5D01*
G01*
X134381710Y-93100000D02*
G75*
G02*
X134081700Y-92800000I-10J300000D01*
G01*
X133781710Y-92378505D02*
G75*
G03*
X133481705Y-92678505I-10J-299995D01*
G01*
X133481710Y-92800000D02*
G75*
G02*
X133181710Y-93100010I-300010J0D01*
G01*
%TO.N,/ULPI_D0*%
X139400000Y-100100000D02*
X139400000Y-94300000D01*
X123261764Y-105139528D02*
X123261764Y-105400000D01*
X125143457Y-105700000D02*
X133800000Y-105700000D01*
X118700000Y-96900000D02*
X118700000Y-102900000D01*
X118700000Y-102900000D02*
X121500000Y-105700000D01*
X133800000Y-105700000D02*
X139400000Y-100100000D01*
X122661764Y-105400000D02*
X122661764Y-105139528D01*
X121500000Y-105700000D02*
X122361764Y-105700000D01*
X123561764Y-105700000D02*
X125143457Y-105700000D01*
X123261764Y-105400000D02*
G75*
G03*
X123561764Y-105700036I300036J0D01*
G01*
X122361764Y-105700000D02*
G75*
G03*
X122661800Y-105400000I36J300000D01*
G01*
X122961764Y-104839528D02*
G75*
G02*
X123261772Y-105139528I36J-299972D01*
G01*
X122661764Y-105139528D02*
G75*
G02*
X122961764Y-104839464I300036J28D01*
G01*
%TO.N,/PSSI_PDCK*%
X133025000Y-84775000D02*
X127025000Y-84775000D01*
X124400000Y-87400000D02*
X124400000Y-92700000D01*
X125000000Y-93300000D02*
X125000000Y-95351073D01*
X125000000Y-95351073D02*
X124400000Y-95951073D01*
X127025000Y-84775000D02*
X124400000Y-87400000D01*
X124400000Y-92700000D02*
X125000000Y-93300000D01*
%TO.N,/ULPI_DIR*%
X143623074Y-86723074D02*
X143623074Y-86810614D01*
X118907131Y-87900000D02*
X119000000Y-87900000D01*
X119300000Y-88500000D02*
X119000000Y-88500000D01*
X118600000Y-90700000D02*
X119000000Y-90700000D01*
X119300000Y-87200000D02*
X119351643Y-87148357D01*
X119351643Y-87148357D02*
X124600000Y-81900000D01*
X119000000Y-89700000D02*
X118907131Y-89700000D01*
X118200000Y-91498927D02*
X118200000Y-91100000D01*
X118600000Y-91898927D02*
X118200000Y-91498927D01*
X124600000Y-81900000D02*
X138800000Y-81900000D01*
X138800000Y-81900000D02*
X143623074Y-86723074D01*
X118907131Y-89100000D02*
X119000000Y-89100000D01*
X119000000Y-90700000D02*
X119300000Y-90400000D01*
X119000000Y-88500000D02*
X118907131Y-88500000D01*
X119300000Y-90400000D02*
X119300000Y-90000000D01*
X119692869Y-88500000D02*
X119300000Y-88500000D01*
X118200000Y-91100000D02*
X118600000Y-90700000D01*
X119300000Y-87600000D02*
X119300000Y-87200000D01*
X119000000Y-89100000D02*
X119300000Y-89100000D01*
X119300000Y-89100000D02*
X119692869Y-89100000D01*
X118907131Y-89700000D02*
G75*
G02*
X118607100Y-89400000I-31J300000D01*
G01*
X119992869Y-88800000D02*
G75*
G03*
X119692869Y-88500031I-299969J0D01*
G01*
X118607131Y-89400000D02*
G75*
G02*
X118907131Y-89100031I299969J0D01*
G01*
X118607131Y-88200000D02*
G75*
G02*
X118907131Y-87900031I299969J0D01*
G01*
X119692869Y-89100000D02*
G75*
G03*
X119992900Y-88800000I31J300000D01*
G01*
X118907131Y-88500000D02*
G75*
G02*
X118607100Y-88200000I-31J300000D01*
G01*
X119000000Y-87900000D02*
G75*
G03*
X119300000Y-87600000I0J300000D01*
G01*
X119300000Y-90000000D02*
G75*
G03*
X119000000Y-89700000I-300000J0D01*
G01*
%TO.N,/ULPI_D5*%
X126600000Y-90365466D02*
X127190545Y-90365466D01*
X126009449Y-89165466D02*
X126300000Y-89165466D01*
X126600000Y-88100000D02*
X128600000Y-86100000D01*
X126900000Y-90965466D02*
X126600000Y-90965466D01*
X126600000Y-92300000D02*
X126600000Y-91865466D01*
X126600000Y-90965466D02*
X126009461Y-90965466D01*
X126600000Y-88865466D02*
X126600000Y-88495644D01*
X127190539Y-90965466D02*
X126900000Y-90965466D01*
X135100000Y-86100000D02*
X139400000Y-90400000D01*
X126900000Y-91565466D02*
X127190539Y-91565466D01*
X126600000Y-89765466D02*
X126300000Y-89765466D01*
X135900000Y-94300000D02*
X128600000Y-94300000D01*
X128600000Y-86100000D02*
X135100000Y-86100000D01*
X127190545Y-89765466D02*
X126600000Y-89765466D01*
X126009461Y-90365466D02*
X126600000Y-90365466D01*
X136500000Y-95500000D02*
X136500000Y-94900000D01*
X128600000Y-94300000D02*
X126600000Y-92300000D01*
X136500000Y-94900000D02*
X135900000Y-94300000D01*
X126600000Y-88495644D02*
X126600000Y-88100000D01*
X126300000Y-89765466D02*
X126009449Y-89765466D01*
X125709461Y-90665466D02*
G75*
G02*
X126009461Y-90365461I300039J-34D01*
G01*
X127490539Y-91265466D02*
G75*
G03*
X127190539Y-90965461I-300039J-34D01*
G01*
X126300000Y-89165466D02*
G75*
G03*
X126599966Y-88865466I0J299966D01*
G01*
X127490545Y-90065466D02*
G75*
G03*
X127190545Y-89765455I-300045J-34D01*
G01*
X127190539Y-91565466D02*
G75*
G03*
X127490466Y-91265466I-39J299966D01*
G01*
X125709449Y-89465466D02*
G75*
G02*
X126009449Y-89165549I299951J-34D01*
G01*
X126009449Y-89765466D02*
G75*
G02*
X125709434Y-89465466I-49J299966D01*
G01*
X127190545Y-90365466D02*
G75*
G03*
X127490466Y-90065466I-45J299966D01*
G01*
X126009461Y-90965466D02*
G75*
G02*
X125709534Y-90665466I39J299966D01*
G01*
X126600000Y-91865466D02*
G75*
G02*
X126900000Y-91565500I300000J-34D01*
G01*
%TO.N,/ULPI_D2*%
X132750904Y-102400000D02*
X132750904Y-102903055D01*
X127950904Y-102400000D02*
X127950904Y-102903052D01*
X130950904Y-102903051D02*
X130950904Y-102400000D01*
X138200000Y-94000000D02*
X139400000Y-92800000D01*
X134700000Y-102400000D02*
X134800000Y-102400000D01*
X134800000Y-102400000D02*
X138200000Y-99000000D01*
X127350904Y-102100000D02*
X127350904Y-101896945D01*
X132750904Y-101896950D02*
X132750904Y-102400000D01*
X128550904Y-102400000D02*
X128550904Y-101896948D01*
X132150904Y-102400000D02*
X132150904Y-101896950D01*
X131550904Y-101896950D02*
X131550904Y-102400000D01*
X126700000Y-102400000D02*
X127050904Y-102400000D01*
X129150904Y-101896948D02*
X129150904Y-102400000D01*
X132150904Y-102903052D02*
X132150904Y-102400000D01*
X133950904Y-101896950D02*
X133950904Y-102100000D01*
X130950904Y-102400000D02*
X130950904Y-101896950D01*
X138200000Y-99000000D02*
X138200000Y-94000000D01*
X126007991Y-98894477D02*
X126007991Y-101707991D01*
X126007991Y-101707991D02*
X126700000Y-102400000D01*
X129750904Y-102903051D02*
X129750904Y-102400000D01*
X133350904Y-102100000D02*
X133350904Y-101896950D01*
X127950904Y-102100000D02*
X127950904Y-102400000D01*
X130350904Y-101896950D02*
X130350904Y-102400000D01*
X129150904Y-102400000D02*
X129150904Y-102903051D01*
X130350904Y-102400000D02*
X130350904Y-102903051D01*
X128550904Y-102903052D02*
X128550904Y-102400000D01*
X129750904Y-102400000D02*
X129750904Y-101896950D01*
X133350904Y-102400000D02*
X133350904Y-102100000D01*
X131550904Y-102400000D02*
X131550904Y-102903052D01*
X133350904Y-102903055D02*
X133350904Y-102400000D01*
X127950904Y-101896945D02*
X127950904Y-102100000D01*
X134250904Y-102400000D02*
X134700000Y-102400000D01*
X127050904Y-102400000D02*
G75*
G03*
X127350900Y-102100000I-4J300000D01*
G01*
X127950904Y-102903052D02*
G75*
G03*
X128250904Y-103203096I299996J-48D01*
G01*
X133950904Y-102100000D02*
G75*
G03*
X134250904Y-102399996I299996J0D01*
G01*
X131550904Y-102903052D02*
G75*
G03*
X131850904Y-103203096I299996J-48D01*
G01*
X127650904Y-101596945D02*
G75*
G02*
X127950855Y-101896945I-4J-299955D01*
G01*
X131250904Y-101596950D02*
G75*
G02*
X131550950Y-101896950I-4J-300050D01*
G01*
X132750904Y-102903055D02*
G75*
G03*
X133050904Y-103203096I299996J-45D01*
G01*
X129150904Y-102903051D02*
G75*
G03*
X129450904Y-103203096I299996J-49D01*
G01*
X127350904Y-101896945D02*
G75*
G02*
X127650904Y-101596904I299996J45D01*
G01*
X128550904Y-101896948D02*
G75*
G02*
X128850904Y-101596904I299996J48D01*
G01*
X128250904Y-103203052D02*
G75*
G03*
X128550852Y-102903052I-4J299952D01*
G01*
X130950904Y-101896950D02*
G75*
G02*
X131250904Y-101597004I299996J-50D01*
G01*
X130350904Y-102903051D02*
G75*
G03*
X130650904Y-103203096I299996J-49D01*
G01*
X130050904Y-101596950D02*
G75*
G02*
X130350950Y-101896950I-4J-300050D01*
G01*
X130650904Y-103203051D02*
G75*
G03*
X130950851Y-102903051I-4J299951D01*
G01*
X129450904Y-103203051D02*
G75*
G03*
X129750851Y-102903051I-4J299951D01*
G01*
X133350904Y-101896950D02*
G75*
G02*
X133650904Y-101597004I299996J-50D01*
G01*
X129750904Y-101896950D02*
G75*
G02*
X130050904Y-101597004I299996J-50D01*
G01*
X133050904Y-103203055D02*
G75*
G03*
X133350855Y-102903055I-4J299955D01*
G01*
X132450904Y-101596950D02*
G75*
G02*
X132750950Y-101896950I-4J-300050D01*
G01*
X133650904Y-101596950D02*
G75*
G02*
X133950950Y-101896950I-4J-300050D01*
G01*
X132150904Y-101896950D02*
G75*
G02*
X132450904Y-101597004I299996J-50D01*
G01*
X128850904Y-101596948D02*
G75*
G02*
X129150852Y-101896948I-4J-299952D01*
G01*
X131850904Y-103203052D02*
G75*
G03*
X132150852Y-102903052I-4J299952D01*
G01*
%TO.N,/ULPI_STP*%
X139093780Y-83200000D02*
X139175598Y-83281818D01*
X138034022Y-82706560D02*
X138150582Y-82706560D01*
X121900000Y-91000000D02*
X122400000Y-90500000D01*
X139175598Y-83281818D02*
X143105902Y-87212122D01*
X122400000Y-86200000D02*
X122413746Y-86186254D01*
X122090000Y-89944192D02*
X121987089Y-89944192D01*
X138644022Y-83200000D02*
X138707302Y-83200000D01*
X137431310Y-83708016D02*
X137533294Y-83708016D01*
X122400000Y-87464192D02*
X122090000Y-87464192D01*
X138707302Y-83200000D02*
X139093780Y-83200000D01*
X137177302Y-83200000D02*
X137177302Y-83454008D01*
X121987089Y-88084192D02*
X122400000Y-88084192D01*
X122400000Y-89324192D02*
X122812911Y-89324192D01*
X122400000Y-88704192D02*
X121987089Y-88704192D01*
X137177302Y-82953273D02*
X137177302Y-83200000D01*
X122812911Y-87464192D02*
X122400000Y-87464192D01*
X122400000Y-86534192D02*
X122400000Y-86200000D01*
X136760756Y-82706546D02*
X136930575Y-82706546D01*
X136000000Y-83200000D02*
X136267302Y-83200000D01*
X122400000Y-90500000D02*
X122400000Y-90254192D01*
X135700000Y-82900000D02*
X136000000Y-83200000D01*
X125700000Y-82900000D02*
X135700000Y-82900000D01*
X122400000Y-88084192D02*
X122812911Y-88084192D01*
X122090000Y-89324192D02*
X122400000Y-89324192D01*
X122413746Y-86186254D02*
X125700000Y-82900000D01*
X121720882Y-91000000D02*
X121900000Y-91000000D01*
X122090000Y-87464192D02*
X121987089Y-87464192D01*
X122812911Y-88704192D02*
X122400000Y-88704192D01*
X121987089Y-89324192D02*
X122090000Y-89324192D01*
X137787302Y-83454008D02*
X137787302Y-83200000D01*
X137787302Y-83200000D02*
X137787302Y-82953280D01*
X121987089Y-86844192D02*
X122090000Y-86844192D01*
X138397302Y-82953280D02*
G75*
G03*
X138644022Y-83199998I246698J-20D01*
G01*
X121677089Y-89634192D02*
G75*
G02*
X121987089Y-89324189I310011J-8D01*
G01*
X123122911Y-87774192D02*
G75*
G03*
X122812911Y-87464189I-310011J-8D01*
G01*
X121987089Y-87464192D02*
G75*
G02*
X121677108Y-87154192I11J309992D01*
G01*
X138150582Y-82706560D02*
G75*
G02*
X138397340Y-82953280I18J-246740D01*
G01*
X136514029Y-82953273D02*
G75*
G02*
X136760756Y-82706529I246771J-27D01*
G01*
X122400000Y-90254192D02*
G75*
G03*
X122090000Y-89944200I-310000J-8D01*
G01*
X136930575Y-82706546D02*
G75*
G02*
X137177354Y-82953273I25J-246754D01*
G01*
X121987089Y-88704192D02*
G75*
G02*
X121677108Y-88394192I11J309992D01*
G01*
X121677089Y-88394192D02*
G75*
G02*
X121987089Y-88084189I310011J-8D01*
G01*
X137177302Y-83454008D02*
G75*
G03*
X137431310Y-83707998I253998J8D01*
G01*
X123122911Y-89014192D02*
G75*
G03*
X122812911Y-88704189I-310011J-8D01*
G01*
X122812911Y-89324192D02*
G75*
G03*
X123122892Y-89014192I-11J309992D01*
G01*
X122090000Y-86844192D02*
G75*
G03*
X122399992Y-86534192I0J309992D01*
G01*
X121987089Y-89944192D02*
G75*
G02*
X121677108Y-89634192I11J309992D01*
G01*
X136267302Y-83200000D02*
G75*
G03*
X136514000Y-82953273I-2J246700D01*
G01*
X122812911Y-88084192D02*
G75*
G03*
X123122892Y-87774192I-11J309992D01*
G01*
X137533294Y-83708016D02*
G75*
G03*
X137787316Y-83454008I6J254016D01*
G01*
X121677089Y-87154192D02*
G75*
G02*
X121987089Y-86844189I310011J-8D01*
G01*
X137787302Y-82953280D02*
G75*
G02*
X138034022Y-82706602I246698J-20D01*
G01*
%TO.N,/ULPI_D7*%
X134800000Y-84200000D02*
X139400000Y-88800000D01*
X126500000Y-84200000D02*
X134800000Y-84200000D01*
%TO.N,/ULPI_D1*%
X127200000Y-104720818D02*
X127200000Y-104700000D01*
X130800000Y-104400000D02*
X130800000Y-104079182D01*
X131400000Y-104400000D02*
X131400000Y-104720818D01*
X127200000Y-104700000D02*
X127200000Y-104400000D01*
X133200000Y-104720832D02*
X133200000Y-104700000D01*
X130200000Y-104400000D02*
X130200000Y-104720818D01*
X130200000Y-104079182D02*
X130200000Y-104400000D01*
X128400000Y-104720818D02*
X128400000Y-104400000D01*
X132600000Y-104079182D02*
X132600000Y-104400000D01*
X132600000Y-104400000D02*
X132600000Y-104700000D01*
X134150000Y-104400000D02*
X138800000Y-99750000D01*
X127800000Y-104079182D02*
X127800000Y-104400000D01*
X133980675Y-104400000D02*
X134150000Y-104400000D01*
X129600000Y-104400000D02*
X129600000Y-104079182D01*
X138800000Y-94191374D02*
X139395687Y-93595687D01*
X127200000Y-104400000D02*
X127200000Y-104079182D01*
X138800000Y-99750000D02*
X138800000Y-94191374D01*
X130800000Y-104720818D02*
X130800000Y-104400000D01*
X132000000Y-104400000D02*
X132000000Y-104079182D01*
X126600000Y-104700000D02*
X126600000Y-104720818D01*
X125000000Y-103500000D02*
X125900000Y-104400000D01*
X129000000Y-104400000D02*
X129000000Y-104720818D01*
X129000000Y-104079182D02*
X129000000Y-104400000D01*
X132000000Y-104720818D02*
X132000000Y-104400000D01*
X125900000Y-104400000D02*
X126300000Y-104400000D01*
X127800000Y-104400000D02*
X127800000Y-104720818D01*
X131400000Y-104079182D02*
X131400000Y-104400000D01*
X128400000Y-104400000D02*
X128400000Y-104079182D01*
X133500000Y-104400000D02*
X133980675Y-104400000D01*
X129600000Y-104720818D02*
X129600000Y-104400000D01*
X132600000Y-104700000D02*
X132600000Y-104720832D01*
X125000000Y-99000000D02*
X125000000Y-103500000D01*
X126300000Y-104400000D02*
G75*
G02*
X126600000Y-104700000I0J-300000D01*
G01*
X127800000Y-104720818D02*
G75*
G03*
X128100000Y-105020800I300000J18D01*
G01*
X131100000Y-103779182D02*
G75*
G02*
X131400018Y-104079182I0J-300018D01*
G01*
X129300000Y-105020818D02*
G75*
G03*
X129600018Y-104720818I0J300018D01*
G01*
X129000000Y-104720818D02*
G75*
G03*
X129300000Y-105020800I300000J18D01*
G01*
X126900000Y-105020818D02*
G75*
G03*
X127200018Y-104720818I0J300018D01*
G01*
X127500000Y-103779182D02*
G75*
G02*
X127800018Y-104079182I0J-300018D01*
G01*
X132300000Y-103779182D02*
G75*
G02*
X132600018Y-104079182I0J-300018D01*
G01*
X131400000Y-104720818D02*
G75*
G03*
X131700000Y-105020800I300000J18D01*
G01*
X129900000Y-103779182D02*
G75*
G02*
X130200018Y-104079182I0J-300018D01*
G01*
X131700000Y-105020818D02*
G75*
G03*
X132000018Y-104720818I0J300018D01*
G01*
X128400000Y-104079182D02*
G75*
G02*
X128700000Y-103779200I300000J-18D01*
G01*
X129600000Y-104079182D02*
G75*
G02*
X129900000Y-103779200I300000J-18D01*
G01*
X130200000Y-104720818D02*
G75*
G03*
X130500000Y-105020800I300000J18D01*
G01*
X132000000Y-104079182D02*
G75*
G02*
X132300000Y-103779200I300000J-18D01*
G01*
X127200000Y-104079182D02*
G75*
G02*
X127500000Y-103779200I300000J-18D01*
G01*
X128100000Y-105020818D02*
G75*
G03*
X128400018Y-104720818I0J300018D01*
G01*
X130800000Y-104079182D02*
G75*
G02*
X131100000Y-103779200I300000J-18D01*
G01*
X132600000Y-104720832D02*
G75*
G03*
X132900000Y-105020800I300000J32D01*
G01*
X126600000Y-104720818D02*
G75*
G03*
X126900000Y-105020800I300000J18D01*
G01*
X132900000Y-105020832D02*
G75*
G03*
X133200032Y-104720832I0J300032D01*
G01*
X128700000Y-103779182D02*
G75*
G02*
X129000018Y-104079182I0J-300018D01*
G01*
X130500000Y-105020818D02*
G75*
G03*
X130800018Y-104720818I0J300018D01*
G01*
X133200000Y-104700000D02*
G75*
G02*
X133500000Y-104400000I300000J0D01*
G01*
D23*
%TO.N,/PSSI_DE*%
X122000000Y-93750000D02*
X122000000Y-95650003D01*
X120800000Y-86700000D02*
X120800000Y-92550000D01*
X120800000Y-92550000D02*
X122000000Y-93750000D01*
X125100000Y-82400000D02*
X120800000Y-86700000D01*
X134200000Y-82400000D02*
X125100000Y-82400000D01*
X122000000Y-95650003D02*
X122466819Y-96116822D01*
D22*
%TO.N,/ULPI_NXT*%
X124050000Y-81300000D02*
X139200000Y-81300000D01*
X118093361Y-92301535D02*
X117400000Y-91608174D01*
X144124147Y-86224147D02*
X144124147Y-87300000D01*
X118093361Y-92306138D02*
X118093361Y-92301535D01*
X139200000Y-81300000D02*
X144124147Y-86224147D01*
X117400000Y-87950000D02*
X124050000Y-81300000D01*
X117400000Y-91608174D02*
X117400000Y-87950000D01*
%TO.N,/ULPI_D3*%
X139400000Y-92000000D02*
X138500000Y-92000000D01*
X130500000Y-91600000D02*
X130815692Y-91600000D01*
X129600000Y-89300000D02*
X129600000Y-90700000D01*
X133015691Y-91600000D02*
X135700000Y-91600000D01*
X137700000Y-98300000D02*
X135100000Y-100900000D01*
X135000000Y-88500000D02*
X130400000Y-88500000D01*
X131115692Y-91300000D02*
X131115692Y-90901747D01*
X138500000Y-92000000D02*
X135000000Y-88500000D01*
X131715692Y-90901747D02*
X131715692Y-91300000D01*
X135100000Y-100900000D02*
X131600000Y-100900000D01*
X137700000Y-93600000D02*
X137700000Y-98300000D01*
X131600000Y-100900000D02*
X131000000Y-100300000D01*
X132015692Y-91600000D02*
X133015691Y-91600000D01*
X131000000Y-100300000D02*
X131000000Y-99000000D01*
X135700000Y-91600000D02*
X137700000Y-93600000D01*
X130400000Y-88500000D02*
X129600000Y-89300000D01*
X129600000Y-90700000D02*
X130500000Y-91600000D01*
X130815692Y-91600000D02*
G75*
G03*
X131115700Y-91300000I8J300000D01*
G01*
X131115692Y-90901747D02*
G75*
G02*
X131415692Y-90601692I300008J47D01*
G01*
X131715692Y-91300000D02*
G75*
G03*
X132015692Y-91600008I300008J0D01*
G01*
X131415692Y-90601747D02*
G75*
G02*
X131715653Y-90901747I8J-299953D01*
G01*
%TO.N,/ULPI_D6*%
X130959802Y-96611851D02*
X130959802Y-96000000D01*
X129100000Y-96000000D02*
X128700000Y-96000000D01*
X132159802Y-96611851D02*
X132159802Y-96300000D01*
X132159802Y-96000000D02*
X132159802Y-95388149D01*
X132759802Y-96300000D02*
X132759802Y-96611851D01*
X125100000Y-88100000D02*
X127700000Y-85500000D01*
X130059802Y-96000000D02*
X129100000Y-96000000D01*
X127700000Y-85500000D02*
X135300000Y-85500000D01*
X130359802Y-95388155D02*
X130359802Y-95700000D01*
X131559802Y-95388149D02*
X131559802Y-96000000D01*
X130959802Y-95700000D02*
X130959802Y-95388155D01*
X132159802Y-96300000D02*
X132159802Y-96000000D01*
X135300000Y-85500000D02*
X139400000Y-89600000D01*
X133600000Y-96000000D02*
X133059802Y-96000000D01*
X131559802Y-96000000D02*
X131559802Y-96611851D01*
X128700000Y-96000000D02*
X125100000Y-92400000D01*
X125100000Y-92400000D02*
X125100000Y-88100000D01*
X130959802Y-96000000D02*
X130959802Y-95700000D01*
X130659802Y-95088155D02*
G75*
G03*
X130359755Y-95388155I-2J-300045D01*
G01*
X131259802Y-96911851D02*
G75*
G02*
X130959849Y-96611851I-2J299951D01*
G01*
X133059802Y-96000000D02*
G75*
G03*
X132759800Y-96300000I-2J-300000D01*
G01*
X131859802Y-95088149D02*
G75*
G03*
X131559849Y-95388149I-2J-299951D01*
G01*
X130959802Y-95388155D02*
G75*
G03*
X130659802Y-95088198I-300002J-45D01*
G01*
X132159802Y-95388149D02*
G75*
G03*
X131859802Y-95088098I-300002J49D01*
G01*
X131559802Y-96611851D02*
G75*
G02*
X131259802Y-96911902I-300002J-49D01*
G01*
X130359802Y-95700000D02*
G75*
G02*
X130059802Y-96000002I-300002J0D01*
G01*
X132459802Y-96911851D02*
G75*
G02*
X132159849Y-96611851I-2J299951D01*
G01*
X132759802Y-96611851D02*
G75*
G02*
X132459802Y-96911902I-300002J-49D01*
G01*
D24*
%TO.N,/CAN_RX*%
X125900000Y-67700000D02*
X126000000Y-67700000D01*
X130503232Y-72203232D02*
X130503232Y-80300000D01*
X126000000Y-67700000D02*
X130503232Y-72203232D01*
%TO.N,/CAN_TX*%
X131003861Y-80803753D02*
X131003861Y-71203861D01*
X131003861Y-71203861D02*
X127000000Y-67200000D01*
%TO.N,/CAN_CONN_IND*%
X130003232Y-73403232D02*
X130003232Y-80803753D01*
X124900000Y-68300000D02*
X130003232Y-73403232D01*
%TD*%
M02*
