%TF.GenerationSoftware,KiCad,Pcbnew,9.0.6*%
%TF.CreationDate,2026-01-15T20:05:28-05:00*%
%TF.ProjectId,DebuggingBoard,44656275-6767-4696-9e67-426f6172642e,rev?*%
%TF.SameCoordinates,Original*%
%TF.FileFunction,Legend,Top*%
%TF.FilePolarity,Positive*%
%FSLAX46Y46*%
G04 Gerber Fmt 4.6, Leading zero omitted, Abs format (unit mm)*
G04 Created by KiCad (PCBNEW 9.0.6) date 2026-01-15 20:05:28*
%MOMM*%
%LPD*%
G01*
G04 APERTURE LIST*
%ADD10C,0.250000*%
%ADD11C,0.625000*%
%ADD12C,0.500000*%
%ADD13C,0.150000*%
%ADD14C,0.254001*%
%ADD15C,0.120000*%
%ADD16C,0.000000*%
%ADD17C,0.400000*%
%ADD18C,0.200000*%
G04 APERTURE END LIST*
D10*
X83164619Y-113940288D02*
X84164619Y-113606955D01*
X84164619Y-113606955D02*
X83164619Y-113273622D01*
X84164619Y-112940288D02*
X83164619Y-112940288D01*
X83164619Y-112940288D02*
X83164619Y-112559336D01*
X83164619Y-112559336D02*
X83212238Y-112464098D01*
X83212238Y-112464098D02*
X83259857Y-112416479D01*
X83259857Y-112416479D02*
X83355095Y-112368860D01*
X83355095Y-112368860D02*
X83497952Y-112368860D01*
X83497952Y-112368860D02*
X83593190Y-112416479D01*
X83593190Y-112416479D02*
X83640809Y-112464098D01*
X83640809Y-112464098D02*
X83688428Y-112559336D01*
X83688428Y-112559336D02*
X83688428Y-112940288D01*
X84117000Y-111987907D02*
X84164619Y-111845050D01*
X84164619Y-111845050D02*
X84164619Y-111606955D01*
X84164619Y-111606955D02*
X84117000Y-111511717D01*
X84117000Y-111511717D02*
X84069380Y-111464098D01*
X84069380Y-111464098D02*
X83974142Y-111416479D01*
X83974142Y-111416479D02*
X83878904Y-111416479D01*
X83878904Y-111416479D02*
X83783666Y-111464098D01*
X83783666Y-111464098D02*
X83736047Y-111511717D01*
X83736047Y-111511717D02*
X83688428Y-111606955D01*
X83688428Y-111606955D02*
X83640809Y-111797431D01*
X83640809Y-111797431D02*
X83593190Y-111892669D01*
X83593190Y-111892669D02*
X83545571Y-111940288D01*
X83545571Y-111940288D02*
X83450333Y-111987907D01*
X83450333Y-111987907D02*
X83355095Y-111987907D01*
X83355095Y-111987907D02*
X83259857Y-111940288D01*
X83259857Y-111940288D02*
X83212238Y-111892669D01*
X83212238Y-111892669D02*
X83164619Y-111797431D01*
X83164619Y-111797431D02*
X83164619Y-111559336D01*
X83164619Y-111559336D02*
X83212238Y-111416479D01*
X83164619Y-110987907D02*
X83974142Y-110987907D01*
X83974142Y-110987907D02*
X84069380Y-110940288D01*
X84069380Y-110940288D02*
X84117000Y-110892669D01*
X84117000Y-110892669D02*
X84164619Y-110797431D01*
X84164619Y-110797431D02*
X84164619Y-110606955D01*
X84164619Y-110606955D02*
X84117000Y-110511717D01*
X84117000Y-110511717D02*
X84069380Y-110464098D01*
X84069380Y-110464098D02*
X83974142Y-110416479D01*
X83974142Y-110416479D02*
X83164619Y-110416479D01*
X84164619Y-109178383D02*
X83164619Y-109178383D01*
X83164619Y-109178383D02*
X83164619Y-108797431D01*
X83164619Y-108797431D02*
X83212238Y-108702193D01*
X83212238Y-108702193D02*
X83259857Y-108654574D01*
X83259857Y-108654574D02*
X83355095Y-108606955D01*
X83355095Y-108606955D02*
X83497952Y-108606955D01*
X83497952Y-108606955D02*
X83593190Y-108654574D01*
X83593190Y-108654574D02*
X83640809Y-108702193D01*
X83640809Y-108702193D02*
X83688428Y-108797431D01*
X83688428Y-108797431D02*
X83688428Y-109178383D01*
X83164619Y-108273621D02*
X84164619Y-108035526D01*
X84164619Y-108035526D02*
X83450333Y-107845050D01*
X83450333Y-107845050D02*
X84164619Y-107654574D01*
X84164619Y-107654574D02*
X83164619Y-107416479D01*
X84164619Y-106464098D02*
X83688428Y-106797431D01*
X84164619Y-107035526D02*
X83164619Y-107035526D01*
X83164619Y-107035526D02*
X83164619Y-106654574D01*
X83164619Y-106654574D02*
X83212238Y-106559336D01*
X83212238Y-106559336D02*
X83259857Y-106511717D01*
X83259857Y-106511717D02*
X83355095Y-106464098D01*
X83355095Y-106464098D02*
X83497952Y-106464098D01*
X83497952Y-106464098D02*
X83593190Y-106511717D01*
X83593190Y-106511717D02*
X83640809Y-106559336D01*
X83640809Y-106559336D02*
X83688428Y-106654574D01*
X83688428Y-106654574D02*
X83688428Y-107035526D01*
D11*
X126287374Y-68500050D02*
X126644517Y-68619097D01*
X126644517Y-68619097D02*
X127239755Y-68619097D01*
X127239755Y-68619097D02*
X127477850Y-68500050D01*
X127477850Y-68500050D02*
X127596898Y-68381002D01*
X127596898Y-68381002D02*
X127715945Y-68142907D01*
X127715945Y-68142907D02*
X127715945Y-67904811D01*
X127715945Y-67904811D02*
X127596898Y-67666716D01*
X127596898Y-67666716D02*
X127477850Y-67547669D01*
X127477850Y-67547669D02*
X127239755Y-67428621D01*
X127239755Y-67428621D02*
X126763564Y-67309573D01*
X126763564Y-67309573D02*
X126525469Y-67190526D01*
X126525469Y-67190526D02*
X126406422Y-67071478D01*
X126406422Y-67071478D02*
X126287374Y-66833383D01*
X126287374Y-66833383D02*
X126287374Y-66595288D01*
X126287374Y-66595288D02*
X126406422Y-66357192D01*
X126406422Y-66357192D02*
X126525469Y-66238145D01*
X126525469Y-66238145D02*
X126763564Y-66119097D01*
X126763564Y-66119097D02*
X127358803Y-66119097D01*
X127358803Y-66119097D02*
X127715945Y-66238145D01*
X128787374Y-68619097D02*
X128787374Y-66119097D01*
X128787374Y-67309573D02*
X130215945Y-67309573D01*
X130215945Y-68619097D02*
X130215945Y-66119097D01*
X131287374Y-67904811D02*
X132477850Y-67904811D01*
X131049279Y-68619097D02*
X131882612Y-66119097D01*
X131882612Y-66119097D02*
X132715945Y-68619097D01*
X134977850Y-68619097D02*
X134144517Y-67428621D01*
X133549279Y-68619097D02*
X133549279Y-66119097D01*
X133549279Y-66119097D02*
X134501660Y-66119097D01*
X134501660Y-66119097D02*
X134739755Y-66238145D01*
X134739755Y-66238145D02*
X134858802Y-66357192D01*
X134858802Y-66357192D02*
X134977850Y-66595288D01*
X134977850Y-66595288D02*
X134977850Y-66952430D01*
X134977850Y-66952430D02*
X134858802Y-67190526D01*
X134858802Y-67190526D02*
X134739755Y-67309573D01*
X134739755Y-67309573D02*
X134501660Y-67428621D01*
X134501660Y-67428621D02*
X133549279Y-67428621D01*
X136049279Y-68619097D02*
X136049279Y-66119097D01*
X137477850Y-68619097D02*
X136406421Y-67190526D01*
X137477850Y-66119097D02*
X136049279Y-67547669D01*
X139382612Y-67309573D02*
X139739755Y-67428621D01*
X139739755Y-67428621D02*
X139858802Y-67547669D01*
X139858802Y-67547669D02*
X139977850Y-67785764D01*
X139977850Y-67785764D02*
X139977850Y-68142907D01*
X139977850Y-68142907D02*
X139858802Y-68381002D01*
X139858802Y-68381002D02*
X139739755Y-68500050D01*
X139739755Y-68500050D02*
X139501660Y-68619097D01*
X139501660Y-68619097D02*
X138549279Y-68619097D01*
X138549279Y-68619097D02*
X138549279Y-66119097D01*
X138549279Y-66119097D02*
X139382612Y-66119097D01*
X139382612Y-66119097D02*
X139620707Y-66238145D01*
X139620707Y-66238145D02*
X139739755Y-66357192D01*
X139739755Y-66357192D02*
X139858802Y-66595288D01*
X139858802Y-66595288D02*
X139858802Y-66833383D01*
X139858802Y-66833383D02*
X139739755Y-67071478D01*
X139739755Y-67071478D02*
X139620707Y-67190526D01*
X139620707Y-67190526D02*
X139382612Y-67309573D01*
X139382612Y-67309573D02*
X138549279Y-67309573D01*
X141525469Y-67428621D02*
X141525469Y-68619097D01*
X140692136Y-66119097D02*
X141525469Y-67428621D01*
X141525469Y-67428621D02*
X142358802Y-66119097D01*
X142834993Y-66119097D02*
X144263564Y-66119097D01*
X143549278Y-68619097D02*
X143549278Y-66119097D01*
X145096898Y-67309573D02*
X145930231Y-67309573D01*
X146287374Y-68619097D02*
X145096898Y-68619097D01*
X145096898Y-68619097D02*
X145096898Y-66119097D01*
X145096898Y-66119097D02*
X146287374Y-66119097D01*
X126406422Y-72643957D02*
X126406422Y-70143957D01*
X126406422Y-70143957D02*
X127001660Y-70143957D01*
X127001660Y-70143957D02*
X127358803Y-70263005D01*
X127358803Y-70263005D02*
X127596898Y-70501100D01*
X127596898Y-70501100D02*
X127715945Y-70739195D01*
X127715945Y-70739195D02*
X127834993Y-71215386D01*
X127834993Y-71215386D02*
X127834993Y-71572529D01*
X127834993Y-71572529D02*
X127715945Y-72048719D01*
X127715945Y-72048719D02*
X127596898Y-72286814D01*
X127596898Y-72286814D02*
X127358803Y-72524910D01*
X127358803Y-72524910D02*
X127001660Y-72643957D01*
X127001660Y-72643957D02*
X126406422Y-72643957D01*
X128906422Y-71334433D02*
X129739755Y-71334433D01*
X130096898Y-72643957D02*
X128906422Y-72643957D01*
X128906422Y-72643957D02*
X128906422Y-70143957D01*
X128906422Y-70143957D02*
X130096898Y-70143957D01*
X132001660Y-71334433D02*
X132358803Y-71453481D01*
X132358803Y-71453481D02*
X132477850Y-71572529D01*
X132477850Y-71572529D02*
X132596898Y-71810624D01*
X132596898Y-71810624D02*
X132596898Y-72167767D01*
X132596898Y-72167767D02*
X132477850Y-72405862D01*
X132477850Y-72405862D02*
X132358803Y-72524910D01*
X132358803Y-72524910D02*
X132120708Y-72643957D01*
X132120708Y-72643957D02*
X131168327Y-72643957D01*
X131168327Y-72643957D02*
X131168327Y-70143957D01*
X131168327Y-70143957D02*
X132001660Y-70143957D01*
X132001660Y-70143957D02*
X132239755Y-70263005D01*
X132239755Y-70263005D02*
X132358803Y-70382052D01*
X132358803Y-70382052D02*
X132477850Y-70620148D01*
X132477850Y-70620148D02*
X132477850Y-70858243D01*
X132477850Y-70858243D02*
X132358803Y-71096338D01*
X132358803Y-71096338D02*
X132239755Y-71215386D01*
X132239755Y-71215386D02*
X132001660Y-71334433D01*
X132001660Y-71334433D02*
X131168327Y-71334433D01*
X133668327Y-70143957D02*
X133668327Y-72167767D01*
X133668327Y-72167767D02*
X133787374Y-72405862D01*
X133787374Y-72405862D02*
X133906422Y-72524910D01*
X133906422Y-72524910D02*
X134144517Y-72643957D01*
X134144517Y-72643957D02*
X134620708Y-72643957D01*
X134620708Y-72643957D02*
X134858803Y-72524910D01*
X134858803Y-72524910D02*
X134977850Y-72405862D01*
X134977850Y-72405862D02*
X135096898Y-72167767D01*
X135096898Y-72167767D02*
X135096898Y-70143957D01*
X137596898Y-70263005D02*
X137358803Y-70143957D01*
X137358803Y-70143957D02*
X137001660Y-70143957D01*
X137001660Y-70143957D02*
X136644517Y-70263005D01*
X136644517Y-70263005D02*
X136406422Y-70501100D01*
X136406422Y-70501100D02*
X136287375Y-70739195D01*
X136287375Y-70739195D02*
X136168327Y-71215386D01*
X136168327Y-71215386D02*
X136168327Y-71572529D01*
X136168327Y-71572529D02*
X136287375Y-72048719D01*
X136287375Y-72048719D02*
X136406422Y-72286814D01*
X136406422Y-72286814D02*
X136644517Y-72524910D01*
X136644517Y-72524910D02*
X137001660Y-72643957D01*
X137001660Y-72643957D02*
X137239756Y-72643957D01*
X137239756Y-72643957D02*
X137596898Y-72524910D01*
X137596898Y-72524910D02*
X137715946Y-72405862D01*
X137715946Y-72405862D02*
X137715946Y-71572529D01*
X137715946Y-71572529D02*
X137239756Y-71572529D01*
X140096898Y-70263005D02*
X139858803Y-70143957D01*
X139858803Y-70143957D02*
X139501660Y-70143957D01*
X139501660Y-70143957D02*
X139144517Y-70263005D01*
X139144517Y-70263005D02*
X138906422Y-70501100D01*
X138906422Y-70501100D02*
X138787375Y-70739195D01*
X138787375Y-70739195D02*
X138668327Y-71215386D01*
X138668327Y-71215386D02*
X138668327Y-71572529D01*
X138668327Y-71572529D02*
X138787375Y-72048719D01*
X138787375Y-72048719D02*
X138906422Y-72286814D01*
X138906422Y-72286814D02*
X139144517Y-72524910D01*
X139144517Y-72524910D02*
X139501660Y-72643957D01*
X139501660Y-72643957D02*
X139739756Y-72643957D01*
X139739756Y-72643957D02*
X140096898Y-72524910D01*
X140096898Y-72524910D02*
X140215946Y-72405862D01*
X140215946Y-72405862D02*
X140215946Y-71572529D01*
X140215946Y-71572529D02*
X139739756Y-71572529D01*
X141287375Y-71334433D02*
X142120708Y-71334433D01*
X142477851Y-72643957D02*
X141287375Y-72643957D01*
X141287375Y-72643957D02*
X141287375Y-70143957D01*
X141287375Y-70143957D02*
X142477851Y-70143957D01*
X144977851Y-72643957D02*
X144144518Y-71453481D01*
X143549280Y-72643957D02*
X143549280Y-70143957D01*
X143549280Y-70143957D02*
X144501661Y-70143957D01*
X144501661Y-70143957D02*
X144739756Y-70263005D01*
X144739756Y-70263005D02*
X144858803Y-70382052D01*
X144858803Y-70382052D02*
X144977851Y-70620148D01*
X144977851Y-70620148D02*
X144977851Y-70977290D01*
X144977851Y-70977290D02*
X144858803Y-71215386D01*
X144858803Y-71215386D02*
X144739756Y-71334433D01*
X144739756Y-71334433D02*
X144501661Y-71453481D01*
X144501661Y-71453481D02*
X143549280Y-71453481D01*
D12*
G36*
X135793901Y-75477775D02*
G01*
X135818721Y-75502595D01*
X135869423Y-75603998D01*
X135869423Y-75771677D01*
X135818720Y-75873082D01*
X135780856Y-75910947D01*
X135679454Y-75961648D01*
X135226566Y-75961648D01*
X135226566Y-75414029D01*
X135602663Y-75414029D01*
X135793901Y-75477775D01*
G37*
G36*
X135685618Y-74512349D02*
G01*
X135723483Y-74550214D01*
X135774185Y-74651617D01*
X135774185Y-74724058D01*
X135723483Y-74825461D01*
X135685616Y-74863328D01*
X135584216Y-74914029D01*
X135226566Y-74914029D01*
X135226566Y-74461648D01*
X135584216Y-74461648D01*
X135685618Y-74512349D01*
G37*
G36*
X137780856Y-74512349D02*
G01*
X137893681Y-74625174D01*
X137964661Y-74909092D01*
X137964661Y-75514203D01*
X137893681Y-75798122D01*
X137780857Y-75910946D01*
X137679454Y-75961648D01*
X137416536Y-75961648D01*
X137315132Y-75910946D01*
X137202307Y-75798121D01*
X137131328Y-75514203D01*
X137131328Y-74909092D01*
X137202307Y-74625174D01*
X137315132Y-74512349D01*
X137416536Y-74461648D01*
X137679454Y-74461648D01*
X137780856Y-74512349D01*
G37*
G36*
X143412949Y-74525394D02*
G01*
X143533007Y-74645452D01*
X143597828Y-74775095D01*
X143678947Y-75099568D01*
X143678947Y-75323727D01*
X143597828Y-75648199D01*
X143533006Y-75777844D01*
X143412950Y-75897901D01*
X143221710Y-75961648D01*
X143036090Y-75961648D01*
X143036090Y-74461648D01*
X143221710Y-74461648D01*
X143412949Y-74525394D01*
G37*
G36*
X141590380Y-74512349D02*
G01*
X141628245Y-74550214D01*
X141678947Y-74651617D01*
X141678947Y-74819296D01*
X141628244Y-74920701D01*
X141590380Y-74958566D01*
X141488978Y-75009267D01*
X141036090Y-75009267D01*
X141036090Y-74461648D01*
X141488978Y-74461648D01*
X141590380Y-74512349D01*
G37*
G36*
X129201137Y-75390219D02*
G01*
X128942470Y-75390219D01*
X129071803Y-75002218D01*
X129201137Y-75390219D01*
G37*
G36*
X139582090Y-75390219D02*
G01*
X139323423Y-75390219D01*
X139452756Y-75002218D01*
X139582090Y-75390219D01*
G37*
G36*
X144428947Y-76711648D02*
G01*
X125905137Y-76711648D01*
X125905137Y-74211648D01*
X126155137Y-74211648D01*
X126155137Y-76211648D01*
X126159941Y-76260421D01*
X126197270Y-76350541D01*
X126266244Y-76419515D01*
X126356364Y-76456844D01*
X126453910Y-76456844D01*
X126544030Y-76419515D01*
X126613004Y-76350541D01*
X126650333Y-76260421D01*
X126655137Y-76211648D01*
X126655137Y-75338538D01*
X126845258Y-75745941D01*
X126855839Y-75763802D01*
X126858038Y-75769849D01*
X126861955Y-75774126D01*
X126870237Y-75788106D01*
X126898259Y-75813768D01*
X126923917Y-75841786D01*
X126933980Y-75846482D01*
X126942174Y-75853986D01*
X126977891Y-75866973D01*
X127012312Y-75883037D01*
X127023405Y-75883524D01*
X127033846Y-75887321D01*
X127071811Y-75885652D01*
X127109763Y-75887320D01*
X127120199Y-75883524D01*
X127131297Y-75883037D01*
X127165727Y-75866969D01*
X127201434Y-75853985D01*
X127209625Y-75846483D01*
X127219691Y-75841786D01*
X127245353Y-75813763D01*
X127273371Y-75788106D01*
X127281650Y-75774130D01*
X127285571Y-75769849D01*
X127287771Y-75763796D01*
X127298350Y-75745940D01*
X127488470Y-75338540D01*
X127488470Y-76211648D01*
X127493274Y-76260421D01*
X127530603Y-76350541D01*
X127599577Y-76419515D01*
X127689697Y-76456844D01*
X127787243Y-76456844D01*
X127877363Y-76419515D01*
X127946337Y-76350541D01*
X127983666Y-76260421D01*
X127988470Y-76211648D01*
X127988470Y-76180380D01*
X128157100Y-76180380D01*
X128164015Y-76277680D01*
X128207638Y-76364926D01*
X128281329Y-76428838D01*
X128373869Y-76459685D01*
X128471169Y-76452770D01*
X128558415Y-76409147D01*
X128622327Y-76335456D01*
X128642308Y-76290705D01*
X128775803Y-75890219D01*
X129367804Y-75890219D01*
X129501299Y-76290705D01*
X129521280Y-76335456D01*
X129585192Y-76409147D01*
X129672438Y-76452770D01*
X129769738Y-76459685D01*
X129862278Y-76428838D01*
X129935969Y-76364926D01*
X129979592Y-76277680D01*
X129986507Y-76180380D01*
X129975641Y-76132591D01*
X129335326Y-74211648D01*
X130155137Y-74211648D01*
X130155137Y-76211648D01*
X130159941Y-76260421D01*
X130197270Y-76350541D01*
X130266244Y-76419515D01*
X130356364Y-76456844D01*
X130453910Y-76456844D01*
X130544030Y-76419515D01*
X130613004Y-76350541D01*
X130650333Y-76260421D01*
X130655137Y-76211648D01*
X130655137Y-74211648D01*
X131107518Y-74211648D01*
X131107518Y-76211648D01*
X131112322Y-76260421D01*
X131149651Y-76350541D01*
X131218625Y-76419515D01*
X131308745Y-76456844D01*
X131406291Y-76456844D01*
X131496411Y-76419515D01*
X131565385Y-76350541D01*
X131602714Y-76260421D01*
X131607518Y-76211648D01*
X131607518Y-75153039D01*
X132283314Y-76335683D01*
X132290611Y-76345963D01*
X132292508Y-76350541D01*
X132297173Y-76355206D01*
X132311683Y-76375646D01*
X132337971Y-76396004D01*
X132361482Y-76419515D01*
X132376205Y-76425613D01*
X132388806Y-76435372D01*
X132420885Y-76444120D01*
X132451602Y-76456844D01*
X132467538Y-76456844D01*
X132482913Y-76461037D01*
X132515897Y-76456844D01*
X132549148Y-76456844D01*
X132563870Y-76450745D01*
X132579679Y-76448736D01*
X132608545Y-76432240D01*
X132639268Y-76419515D01*
X132650538Y-76408244D01*
X132664373Y-76400339D01*
X132684729Y-76374053D01*
X132708242Y-76350541D01*
X132714340Y-76335817D01*
X132724099Y-76323217D01*
X132732847Y-76291137D01*
X132745571Y-76260421D01*
X132748028Y-76235475D01*
X132749764Y-76229110D01*
X132749139Y-76224194D01*
X132750375Y-76211648D01*
X132750375Y-74211648D01*
X134726566Y-74211648D01*
X134726566Y-76211648D01*
X134731370Y-76260421D01*
X134768699Y-76350541D01*
X134837673Y-76419515D01*
X134927793Y-76456844D01*
X134976566Y-76461648D01*
X135738471Y-76461648D01*
X135787244Y-76456844D01*
X135795542Y-76453406D01*
X135804502Y-76452770D01*
X135850274Y-76435255D01*
X136040751Y-76340017D01*
X136061742Y-76326802D01*
X136067840Y-76324277D01*
X136074707Y-76318640D01*
X136082226Y-76313908D01*
X136086550Y-76308922D01*
X136105725Y-76293186D01*
X136200963Y-76197946D01*
X136216696Y-76178774D01*
X136221683Y-76174450D01*
X136226414Y-76166933D01*
X136232054Y-76160062D01*
X136234581Y-76153959D01*
X136247792Y-76132974D01*
X136343030Y-75942498D01*
X136360545Y-75896726D01*
X136361181Y-75887766D01*
X136364619Y-75879468D01*
X136369423Y-75830695D01*
X136369423Y-75544981D01*
X136364619Y-75496208D01*
X136361181Y-75487909D01*
X136360545Y-75478950D01*
X136343030Y-75433178D01*
X136247792Y-75242702D01*
X136234579Y-75221713D01*
X136232053Y-75215613D01*
X136226414Y-75208742D01*
X136221683Y-75201226D01*
X136216697Y-75196902D01*
X136200962Y-75177728D01*
X136136302Y-75113068D01*
X136136815Y-75112444D01*
X136139341Y-75106343D01*
X136152554Y-75085355D01*
X136247792Y-74894879D01*
X136254131Y-74878314D01*
X136631328Y-74878314D01*
X136631328Y-75544981D01*
X136632166Y-75553489D01*
X136631624Y-75557133D01*
X136634323Y-75575388D01*
X136636132Y-75593754D01*
X136637541Y-75597156D01*
X136638792Y-75605615D01*
X136734030Y-75986567D01*
X136750520Y-76032718D01*
X136761585Y-76047652D01*
X136768698Y-76064824D01*
X136799789Y-76102709D01*
X136990265Y-76293186D01*
X137009437Y-76308920D01*
X137013763Y-76313908D01*
X137021281Y-76318640D01*
X137028149Y-76324277D01*
X137034248Y-76326803D01*
X137055239Y-76340017D01*
X137245715Y-76435255D01*
X137291487Y-76452770D01*
X137300446Y-76453406D01*
X137308745Y-76456844D01*
X137357518Y-76461648D01*
X137738471Y-76461648D01*
X137787244Y-76456844D01*
X137795542Y-76453406D01*
X137804502Y-76452770D01*
X137850274Y-76435255D01*
X138040751Y-76340017D01*
X138061742Y-76326802D01*
X138067840Y-76324277D01*
X138074707Y-76318641D01*
X138082226Y-76313908D01*
X138086551Y-76308920D01*
X138105724Y-76293186D01*
X138218530Y-76180380D01*
X138538053Y-76180380D01*
X138544968Y-76277680D01*
X138588591Y-76364926D01*
X138662282Y-76428838D01*
X138754822Y-76459685D01*
X138852122Y-76452770D01*
X138939368Y-76409147D01*
X139003280Y-76335456D01*
X139023261Y-76290705D01*
X139156756Y-75890219D01*
X139748757Y-75890219D01*
X139882252Y-76290705D01*
X139902233Y-76335456D01*
X139966145Y-76409147D01*
X140053391Y-76452770D01*
X140150691Y-76459685D01*
X140243231Y-76428838D01*
X140316922Y-76364926D01*
X140360545Y-76277680D01*
X140367460Y-76180380D01*
X140356594Y-76132591D01*
X139716279Y-74211648D01*
X140536090Y-74211648D01*
X140536090Y-76211648D01*
X140540894Y-76260421D01*
X140578223Y-76350541D01*
X140647197Y-76419515D01*
X140737317Y-76456844D01*
X140834863Y-76456844D01*
X140924983Y-76419515D01*
X140993957Y-76350541D01*
X141031286Y-76260421D01*
X141036090Y-76211648D01*
X141036090Y-75509267D01*
X141132116Y-75509267D01*
X141724139Y-76355013D01*
X141756044Y-76392215D01*
X141838305Y-76444637D01*
X141934365Y-76461589D01*
X142029601Y-76440490D01*
X142109514Y-76384551D01*
X142161936Y-76302289D01*
X142178888Y-76206229D01*
X142157789Y-76110993D01*
X142133755Y-76068282D01*
X141707332Y-75459106D01*
X141850275Y-75387636D01*
X141871266Y-75374421D01*
X141877364Y-75371896D01*
X141884231Y-75366259D01*
X141891750Y-75361527D01*
X141896074Y-75356541D01*
X141915249Y-75340805D01*
X142010487Y-75245565D01*
X142026220Y-75226393D01*
X142031207Y-75222069D01*
X142035938Y-75214552D01*
X142041578Y-75207681D01*
X142044105Y-75201578D01*
X142057316Y-75180593D01*
X142152554Y-74990117D01*
X142170069Y-74944345D01*
X142170705Y-74935385D01*
X142174143Y-74927087D01*
X142178947Y-74878314D01*
X142178947Y-74592600D01*
X142174143Y-74543827D01*
X142170705Y-74535528D01*
X142170069Y-74526569D01*
X142152554Y-74480797D01*
X142057316Y-74290321D01*
X142044103Y-74269332D01*
X142041577Y-74263232D01*
X142035938Y-74256361D01*
X142031207Y-74248845D01*
X142026221Y-74244521D01*
X142010486Y-74225347D01*
X141996787Y-74211648D01*
X142536090Y-74211648D01*
X142536090Y-76211648D01*
X142540894Y-76260421D01*
X142578223Y-76350541D01*
X142647197Y-76419515D01*
X142737317Y-76456844D01*
X142786090Y-76461648D01*
X143262280Y-76461648D01*
X143286961Y-76459216D01*
X143293547Y-76459685D01*
X143302212Y-76457714D01*
X143311053Y-76456844D01*
X143317150Y-76454318D01*
X143341337Y-76448819D01*
X143627052Y-76353581D01*
X143671803Y-76333600D01*
X143678588Y-76327714D01*
X143686888Y-76324277D01*
X143724772Y-76293186D01*
X143915248Y-76102710D01*
X143930983Y-76083535D01*
X143935969Y-76079212D01*
X143940700Y-76071695D01*
X143946339Y-76064825D01*
X143948865Y-76058724D01*
X143962078Y-76037736D01*
X144057316Y-75847260D01*
X144058681Y-75843692D01*
X144059755Y-75842243D01*
X144067070Y-75821769D01*
X144074831Y-75801488D01*
X144074958Y-75799691D01*
X144076245Y-75796091D01*
X144171483Y-75415139D01*
X144172733Y-75406680D01*
X144174143Y-75403278D01*
X144175951Y-75384912D01*
X144178651Y-75366657D01*
X144178108Y-75363013D01*
X144178947Y-75354505D01*
X144178947Y-75068790D01*
X144178108Y-75060281D01*
X144178651Y-75056638D01*
X144175951Y-75038382D01*
X144174143Y-75020017D01*
X144172733Y-75016614D01*
X144171483Y-75008156D01*
X144076245Y-74627204D01*
X144074958Y-74623603D01*
X144074831Y-74621807D01*
X144067070Y-74601525D01*
X144059755Y-74581052D01*
X144058681Y-74579602D01*
X144057316Y-74576035D01*
X143962078Y-74385559D01*
X143948866Y-74364570D01*
X143946339Y-74358470D01*
X143940700Y-74351599D01*
X143935969Y-74344083D01*
X143930983Y-74339759D01*
X143915248Y-74320585D01*
X143724772Y-74130109D01*
X143686887Y-74099019D01*
X143678589Y-74095582D01*
X143671803Y-74089696D01*
X143627052Y-74069715D01*
X143341337Y-73974477D01*
X143317150Y-73968977D01*
X143311053Y-73966452D01*
X143302212Y-73965581D01*
X143293547Y-73963611D01*
X143286961Y-73964079D01*
X143262280Y-73961648D01*
X142786090Y-73961648D01*
X142737317Y-73966452D01*
X142647197Y-74003781D01*
X142578223Y-74072755D01*
X142540894Y-74162875D01*
X142536090Y-74211648D01*
X141996787Y-74211648D01*
X141915248Y-74130109D01*
X141896075Y-74114375D01*
X141891750Y-74109388D01*
X141884228Y-74104653D01*
X141877363Y-74099019D01*
X141871268Y-74096494D01*
X141850275Y-74083279D01*
X141659798Y-73988041D01*
X141614026Y-73970526D01*
X141605066Y-73969889D01*
X141596768Y-73966452D01*
X141547995Y-73961648D01*
X140786090Y-73961648D01*
X140737317Y-73966452D01*
X140647197Y-74003781D01*
X140578223Y-74072755D01*
X140540894Y-74162875D01*
X140536090Y-74211648D01*
X139716279Y-74211648D01*
X139689927Y-74132591D01*
X139669946Y-74087840D01*
X139658243Y-74074346D01*
X139650255Y-74058370D01*
X139626573Y-74037830D01*
X139606034Y-74014149D01*
X139590057Y-74006160D01*
X139576564Y-73994458D01*
X139546827Y-73984545D01*
X139518788Y-73970526D01*
X139500969Y-73969259D01*
X139484024Y-73963611D01*
X139452756Y-73965833D01*
X139421488Y-73963611D01*
X139404542Y-73969259D01*
X139386724Y-73970526D01*
X139358684Y-73984545D01*
X139328948Y-73994458D01*
X139315454Y-74006160D01*
X139299478Y-74014149D01*
X139278938Y-74037830D01*
X139255257Y-74058370D01*
X139247268Y-74074346D01*
X139235566Y-74087840D01*
X139215585Y-74132591D01*
X138548919Y-76132591D01*
X138538053Y-76180380D01*
X138218530Y-76180380D01*
X138296200Y-76102710D01*
X138327291Y-76064825D01*
X138334403Y-76047652D01*
X138345469Y-76032719D01*
X138361959Y-75986567D01*
X138457197Y-75605615D01*
X138458447Y-75597156D01*
X138459857Y-75593754D01*
X138461665Y-75575388D01*
X138464365Y-75557133D01*
X138463822Y-75553489D01*
X138464661Y-75544981D01*
X138464661Y-74878314D01*
X138463822Y-74869805D01*
X138464365Y-74866162D01*
X138461665Y-74847906D01*
X138459857Y-74829541D01*
X138458447Y-74826138D01*
X138457197Y-74817680D01*
X138361959Y-74436728D01*
X138345469Y-74390576D01*
X138334404Y-74375642D01*
X138327291Y-74358470D01*
X138296200Y-74320585D01*
X138105724Y-74130109D01*
X138086551Y-74114375D01*
X138082226Y-74109388D01*
X138074704Y-74104653D01*
X138067839Y-74099019D01*
X138061744Y-74096494D01*
X138040751Y-74083279D01*
X137850274Y-73988041D01*
X137804502Y-73970526D01*
X137795542Y-73969889D01*
X137787244Y-73966452D01*
X137738471Y-73961648D01*
X137357518Y-73961648D01*
X137308745Y-73966452D01*
X137300446Y-73969889D01*
X137291487Y-73970526D01*
X137245715Y-73988041D01*
X137055239Y-74083279D01*
X137034250Y-74096490D01*
X137028150Y-74099018D01*
X137021279Y-74104656D01*
X137013763Y-74109388D01*
X137009439Y-74114373D01*
X136990265Y-74130109D01*
X136799789Y-74320585D01*
X136768699Y-74358470D01*
X136761586Y-74375641D01*
X136750520Y-74390577D01*
X136734030Y-74436728D01*
X136638792Y-74817680D01*
X136637541Y-74826138D01*
X136636132Y-74829541D01*
X136634323Y-74847906D01*
X136631624Y-74866162D01*
X136632166Y-74869805D01*
X136631328Y-74878314D01*
X136254131Y-74878314D01*
X136265307Y-74849107D01*
X136265943Y-74840147D01*
X136269381Y-74831849D01*
X136274185Y-74783076D01*
X136274185Y-74592600D01*
X136269381Y-74543827D01*
X136265943Y-74535528D01*
X136265307Y-74526569D01*
X136247792Y-74480797D01*
X136152554Y-74290321D01*
X136139341Y-74269332D01*
X136136815Y-74263232D01*
X136131176Y-74256361D01*
X136126445Y-74248845D01*
X136121459Y-74244521D01*
X136105724Y-74225347D01*
X136010486Y-74130109D01*
X135991313Y-74114375D01*
X135986988Y-74109388D01*
X135979466Y-74104653D01*
X135972601Y-74099019D01*
X135966506Y-74096494D01*
X135945513Y-74083279D01*
X135755036Y-73988041D01*
X135709264Y-73970526D01*
X135700304Y-73969889D01*
X135692006Y-73966452D01*
X135643233Y-73961648D01*
X134976566Y-73961648D01*
X134927793Y-73966452D01*
X134837673Y-74003781D01*
X134768699Y-74072755D01*
X134731370Y-74162875D01*
X134726566Y-74211648D01*
X132750375Y-74211648D01*
X132745571Y-74162875D01*
X132708242Y-74072755D01*
X132639268Y-74003781D01*
X132549148Y-73966452D01*
X132451602Y-73966452D01*
X132361482Y-74003781D01*
X132292508Y-74072755D01*
X132255179Y-74162875D01*
X132250375Y-74211648D01*
X132250375Y-75270256D01*
X131574579Y-74087613D01*
X131567281Y-74077332D01*
X131565385Y-74072755D01*
X131560719Y-74068089D01*
X131546210Y-74047650D01*
X131519921Y-74027291D01*
X131496411Y-74003781D01*
X131481687Y-73997682D01*
X131469087Y-73987924D01*
X131437007Y-73979175D01*
X131406291Y-73966452D01*
X131390355Y-73966452D01*
X131374980Y-73962259D01*
X131341996Y-73966452D01*
X131308745Y-73966452D01*
X131294022Y-73972550D01*
X131278214Y-73974560D01*
X131249345Y-73991056D01*
X131218625Y-74003781D01*
X131207356Y-74015049D01*
X131193520Y-74022956D01*
X131173161Y-74049244D01*
X131149651Y-74072755D01*
X131143552Y-74087478D01*
X131133794Y-74100079D01*
X131125045Y-74132158D01*
X131112322Y-74162875D01*
X131109864Y-74187820D01*
X131108129Y-74194186D01*
X131108753Y-74199101D01*
X131107518Y-74211648D01*
X130655137Y-74211648D01*
X130650333Y-74162875D01*
X130613004Y-74072755D01*
X130544030Y-74003781D01*
X130453910Y-73966452D01*
X130356364Y-73966452D01*
X130266244Y-74003781D01*
X130197270Y-74072755D01*
X130159941Y-74162875D01*
X130155137Y-74211648D01*
X129335326Y-74211648D01*
X129308974Y-74132591D01*
X129288993Y-74087840D01*
X129277290Y-74074346D01*
X129269302Y-74058370D01*
X129245620Y-74037830D01*
X129225081Y-74014149D01*
X129209104Y-74006160D01*
X129195611Y-73994458D01*
X129165874Y-73984545D01*
X129137835Y-73970526D01*
X129120016Y-73969259D01*
X129103071Y-73963611D01*
X129071803Y-73965833D01*
X129040535Y-73963611D01*
X129023589Y-73969259D01*
X129005771Y-73970526D01*
X128977731Y-73984545D01*
X128947995Y-73994458D01*
X128934501Y-74006160D01*
X128918525Y-74014149D01*
X128897985Y-74037830D01*
X128874304Y-74058370D01*
X128866315Y-74074346D01*
X128854613Y-74087840D01*
X128834632Y-74132591D01*
X128167966Y-76132591D01*
X128157100Y-76180380D01*
X127988470Y-76180380D01*
X127988470Y-74211648D01*
X127985311Y-74179585D01*
X127985571Y-74173690D01*
X127984419Y-74170522D01*
X127983666Y-74162875D01*
X127967060Y-74122786D01*
X127952236Y-74082018D01*
X127948470Y-74077906D01*
X127946337Y-74072755D01*
X127915653Y-74042071D01*
X127886357Y-74010081D01*
X127881305Y-74007723D01*
X127877363Y-74003781D01*
X127837273Y-73987175D01*
X127797962Y-73968830D01*
X127792393Y-73968585D01*
X127787243Y-73966452D01*
X127743855Y-73966452D01*
X127700511Y-73964547D01*
X127695272Y-73966452D01*
X127689697Y-73966452D01*
X127649612Y-73983055D01*
X127608840Y-73997882D01*
X127604728Y-74001647D01*
X127599577Y-74003781D01*
X127568893Y-74034464D01*
X127536903Y-74063761D01*
X127532987Y-74070370D01*
X127530603Y-74072755D01*
X127528343Y-74078209D01*
X127511924Y-74105927D01*
X127071803Y-75049042D01*
X126631683Y-74105927D01*
X126615263Y-74078209D01*
X126613004Y-74072755D01*
X126610619Y-74070370D01*
X126606704Y-74063761D01*
X126574713Y-74034464D01*
X126544030Y-74003781D01*
X126538878Y-74001647D01*
X126534767Y-73997882D01*
X126493998Y-73983057D01*
X126453910Y-73966452D01*
X126448334Y-73966452D01*
X126443095Y-73964547D01*
X126399751Y-73966452D01*
X126356364Y-73966452D01*
X126351214Y-73968585D01*
X126345644Y-73968830D01*
X126306328Y-73987177D01*
X126266244Y-74003781D01*
X126262301Y-74007723D01*
X126257250Y-74010081D01*
X126227953Y-74042071D01*
X126197270Y-74072755D01*
X126195136Y-74077906D01*
X126191371Y-74082018D01*
X126176546Y-74122786D01*
X126159941Y-74162875D01*
X126159187Y-74170522D01*
X126158036Y-74173690D01*
X126158295Y-74179585D01*
X126155137Y-74211648D01*
X125905137Y-74211648D01*
X125905137Y-73711648D01*
X144428947Y-73711648D01*
X144428947Y-76711648D01*
G37*
D10*
X107426377Y-100812238D02*
X107331139Y-100764619D01*
X107331139Y-100764619D02*
X107188282Y-100764619D01*
X107188282Y-100764619D02*
X107045425Y-100812238D01*
X107045425Y-100812238D02*
X106950187Y-100907476D01*
X106950187Y-100907476D02*
X106902568Y-101002714D01*
X106902568Y-101002714D02*
X106854949Y-101193190D01*
X106854949Y-101193190D02*
X106854949Y-101336047D01*
X106854949Y-101336047D02*
X106902568Y-101526523D01*
X106902568Y-101526523D02*
X106950187Y-101621761D01*
X106950187Y-101621761D02*
X107045425Y-101717000D01*
X107045425Y-101717000D02*
X107188282Y-101764619D01*
X107188282Y-101764619D02*
X107283520Y-101764619D01*
X107283520Y-101764619D02*
X107426377Y-101717000D01*
X107426377Y-101717000D02*
X107473996Y-101669380D01*
X107473996Y-101669380D02*
X107473996Y-101336047D01*
X107473996Y-101336047D02*
X107283520Y-101336047D01*
X107902568Y-101764619D02*
X107902568Y-100764619D01*
X107902568Y-100764619D02*
X108473996Y-101764619D01*
X108473996Y-101764619D02*
X108473996Y-100764619D01*
X108950187Y-101764619D02*
X108950187Y-100764619D01*
X108950187Y-100764619D02*
X109188282Y-100764619D01*
X109188282Y-100764619D02*
X109331139Y-100812238D01*
X109331139Y-100812238D02*
X109426377Y-100907476D01*
X109426377Y-100907476D02*
X109473996Y-101002714D01*
X109473996Y-101002714D02*
X109521615Y-101193190D01*
X109521615Y-101193190D02*
X109521615Y-101336047D01*
X109521615Y-101336047D02*
X109473996Y-101526523D01*
X109473996Y-101526523D02*
X109426377Y-101621761D01*
X109426377Y-101621761D02*
X109331139Y-101717000D01*
X109331139Y-101717000D02*
X109188282Y-101764619D01*
X109188282Y-101764619D02*
X108950187Y-101764619D01*
X136135901Y-105140809D02*
X136278758Y-105188428D01*
X136278758Y-105188428D02*
X136326377Y-105236047D01*
X136326377Y-105236047D02*
X136373996Y-105331285D01*
X136373996Y-105331285D02*
X136373996Y-105474142D01*
X136373996Y-105474142D02*
X136326377Y-105569380D01*
X136326377Y-105569380D02*
X136278758Y-105617000D01*
X136278758Y-105617000D02*
X136183520Y-105664619D01*
X136183520Y-105664619D02*
X135802568Y-105664619D01*
X135802568Y-105664619D02*
X135802568Y-104664619D01*
X135802568Y-104664619D02*
X136135901Y-104664619D01*
X136135901Y-104664619D02*
X136231139Y-104712238D01*
X136231139Y-104712238D02*
X136278758Y-104759857D01*
X136278758Y-104759857D02*
X136326377Y-104855095D01*
X136326377Y-104855095D02*
X136326377Y-104950333D01*
X136326377Y-104950333D02*
X136278758Y-105045571D01*
X136278758Y-105045571D02*
X136231139Y-105093190D01*
X136231139Y-105093190D02*
X136135901Y-105140809D01*
X136135901Y-105140809D02*
X135802568Y-105140809D01*
X136993044Y-104664619D02*
X137183520Y-104664619D01*
X137183520Y-104664619D02*
X137278758Y-104712238D01*
X137278758Y-104712238D02*
X137373996Y-104807476D01*
X137373996Y-104807476D02*
X137421615Y-104997952D01*
X137421615Y-104997952D02*
X137421615Y-105331285D01*
X137421615Y-105331285D02*
X137373996Y-105521761D01*
X137373996Y-105521761D02*
X137278758Y-105617000D01*
X137278758Y-105617000D02*
X137183520Y-105664619D01*
X137183520Y-105664619D02*
X136993044Y-105664619D01*
X136993044Y-105664619D02*
X136897806Y-105617000D01*
X136897806Y-105617000D02*
X136802568Y-105521761D01*
X136802568Y-105521761D02*
X136754949Y-105331285D01*
X136754949Y-105331285D02*
X136754949Y-104997952D01*
X136754949Y-104997952D02*
X136802568Y-104807476D01*
X136802568Y-104807476D02*
X136897806Y-104712238D01*
X136897806Y-104712238D02*
X136993044Y-104664619D01*
X138040663Y-104664619D02*
X138231139Y-104664619D01*
X138231139Y-104664619D02*
X138326377Y-104712238D01*
X138326377Y-104712238D02*
X138421615Y-104807476D01*
X138421615Y-104807476D02*
X138469234Y-104997952D01*
X138469234Y-104997952D02*
X138469234Y-105331285D01*
X138469234Y-105331285D02*
X138421615Y-105521761D01*
X138421615Y-105521761D02*
X138326377Y-105617000D01*
X138326377Y-105617000D02*
X138231139Y-105664619D01*
X138231139Y-105664619D02*
X138040663Y-105664619D01*
X138040663Y-105664619D02*
X137945425Y-105617000D01*
X137945425Y-105617000D02*
X137850187Y-105521761D01*
X137850187Y-105521761D02*
X137802568Y-105331285D01*
X137802568Y-105331285D02*
X137802568Y-104997952D01*
X137802568Y-104997952D02*
X137850187Y-104807476D01*
X137850187Y-104807476D02*
X137945425Y-104712238D01*
X137945425Y-104712238D02*
X138040663Y-104664619D01*
X138754949Y-104664619D02*
X139326377Y-104664619D01*
X139040663Y-105664619D02*
X139040663Y-104664619D01*
X139850187Y-104664619D02*
X139945425Y-104664619D01*
X139945425Y-104664619D02*
X140040663Y-104712238D01*
X140040663Y-104712238D02*
X140088282Y-104759857D01*
X140088282Y-104759857D02*
X140135901Y-104855095D01*
X140135901Y-104855095D02*
X140183520Y-105045571D01*
X140183520Y-105045571D02*
X140183520Y-105283666D01*
X140183520Y-105283666D02*
X140135901Y-105474142D01*
X140135901Y-105474142D02*
X140088282Y-105569380D01*
X140088282Y-105569380D02*
X140040663Y-105617000D01*
X140040663Y-105617000D02*
X139945425Y-105664619D01*
X139945425Y-105664619D02*
X139850187Y-105664619D01*
X139850187Y-105664619D02*
X139754949Y-105617000D01*
X139754949Y-105617000D02*
X139707330Y-105569380D01*
X139707330Y-105569380D02*
X139659711Y-105474142D01*
X139659711Y-105474142D02*
X139612092Y-105283666D01*
X139612092Y-105283666D02*
X139612092Y-105045571D01*
X139612092Y-105045571D02*
X139659711Y-104855095D01*
X139659711Y-104855095D02*
X139707330Y-104759857D01*
X139707330Y-104759857D02*
X139754949Y-104712238D01*
X139754949Y-104712238D02*
X139850187Y-104664619D01*
X146502568Y-123764619D02*
X146502568Y-122764619D01*
X146502568Y-122764619D02*
X147073996Y-123764619D01*
X147073996Y-123764619D02*
X147073996Y-122764619D01*
X148121615Y-123764619D02*
X147788282Y-123288428D01*
X147550187Y-123764619D02*
X147550187Y-122764619D01*
X147550187Y-122764619D02*
X147931139Y-122764619D01*
X147931139Y-122764619D02*
X148026377Y-122812238D01*
X148026377Y-122812238D02*
X148073996Y-122859857D01*
X148073996Y-122859857D02*
X148121615Y-122955095D01*
X148121615Y-122955095D02*
X148121615Y-123097952D01*
X148121615Y-123097952D02*
X148073996Y-123193190D01*
X148073996Y-123193190D02*
X148026377Y-123240809D01*
X148026377Y-123240809D02*
X147931139Y-123288428D01*
X147931139Y-123288428D02*
X147550187Y-123288428D01*
X148502568Y-123717000D02*
X148645425Y-123764619D01*
X148645425Y-123764619D02*
X148883520Y-123764619D01*
X148883520Y-123764619D02*
X148978758Y-123717000D01*
X148978758Y-123717000D02*
X149026377Y-123669380D01*
X149026377Y-123669380D02*
X149073996Y-123574142D01*
X149073996Y-123574142D02*
X149073996Y-123478904D01*
X149073996Y-123478904D02*
X149026377Y-123383666D01*
X149026377Y-123383666D02*
X148978758Y-123336047D01*
X148978758Y-123336047D02*
X148883520Y-123288428D01*
X148883520Y-123288428D02*
X148693044Y-123240809D01*
X148693044Y-123240809D02*
X148597806Y-123193190D01*
X148597806Y-123193190D02*
X148550187Y-123145571D01*
X148550187Y-123145571D02*
X148502568Y-123050333D01*
X148502568Y-123050333D02*
X148502568Y-122955095D01*
X148502568Y-122955095D02*
X148550187Y-122859857D01*
X148550187Y-122859857D02*
X148597806Y-122812238D01*
X148597806Y-122812238D02*
X148693044Y-122764619D01*
X148693044Y-122764619D02*
X148931139Y-122764619D01*
X148931139Y-122764619D02*
X149073996Y-122812238D01*
X149359711Y-122764619D02*
X149931139Y-122764619D01*
X149645425Y-123764619D02*
X149645425Y-122764619D01*
X138159711Y-112064619D02*
X138493044Y-113064619D01*
X138493044Y-113064619D02*
X138826377Y-112064619D01*
X139493044Y-112540809D02*
X139635901Y-112588428D01*
X139635901Y-112588428D02*
X139683520Y-112636047D01*
X139683520Y-112636047D02*
X139731139Y-112731285D01*
X139731139Y-112731285D02*
X139731139Y-112874142D01*
X139731139Y-112874142D02*
X139683520Y-112969380D01*
X139683520Y-112969380D02*
X139635901Y-113017000D01*
X139635901Y-113017000D02*
X139540663Y-113064619D01*
X139540663Y-113064619D02*
X139159711Y-113064619D01*
X139159711Y-113064619D02*
X139159711Y-112064619D01*
X139159711Y-112064619D02*
X139493044Y-112064619D01*
X139493044Y-112064619D02*
X139588282Y-112112238D01*
X139588282Y-112112238D02*
X139635901Y-112159857D01*
X139635901Y-112159857D02*
X139683520Y-112255095D01*
X139683520Y-112255095D02*
X139683520Y-112350333D01*
X139683520Y-112350333D02*
X139635901Y-112445571D01*
X139635901Y-112445571D02*
X139588282Y-112493190D01*
X139588282Y-112493190D02*
X139493044Y-112540809D01*
X139493044Y-112540809D02*
X139159711Y-112540809D01*
X140159711Y-112064619D02*
X140159711Y-112874142D01*
X140159711Y-112874142D02*
X140207330Y-112969380D01*
X140207330Y-112969380D02*
X140254949Y-113017000D01*
X140254949Y-113017000D02*
X140350187Y-113064619D01*
X140350187Y-113064619D02*
X140540663Y-113064619D01*
X140540663Y-113064619D02*
X140635901Y-113017000D01*
X140635901Y-113017000D02*
X140683520Y-112969380D01*
X140683520Y-112969380D02*
X140731139Y-112874142D01*
X140731139Y-112874142D02*
X140731139Y-112064619D01*
X141159711Y-113017000D02*
X141302568Y-113064619D01*
X141302568Y-113064619D02*
X141540663Y-113064619D01*
X141540663Y-113064619D02*
X141635901Y-113017000D01*
X141635901Y-113017000D02*
X141683520Y-112969380D01*
X141683520Y-112969380D02*
X141731139Y-112874142D01*
X141731139Y-112874142D02*
X141731139Y-112778904D01*
X141731139Y-112778904D02*
X141683520Y-112683666D01*
X141683520Y-112683666D02*
X141635901Y-112636047D01*
X141635901Y-112636047D02*
X141540663Y-112588428D01*
X141540663Y-112588428D02*
X141350187Y-112540809D01*
X141350187Y-112540809D02*
X141254949Y-112493190D01*
X141254949Y-112493190D02*
X141207330Y-112445571D01*
X141207330Y-112445571D02*
X141159711Y-112350333D01*
X141159711Y-112350333D02*
X141159711Y-112255095D01*
X141159711Y-112255095D02*
X141207330Y-112159857D01*
X141207330Y-112159857D02*
X141254949Y-112112238D01*
X141254949Y-112112238D02*
X141350187Y-112064619D01*
X141350187Y-112064619D02*
X141588282Y-112064619D01*
X141588282Y-112064619D02*
X141731139Y-112112238D01*
X94454949Y-118217000D02*
X94597806Y-118264619D01*
X94597806Y-118264619D02*
X94835901Y-118264619D01*
X94835901Y-118264619D02*
X94931139Y-118217000D01*
X94931139Y-118217000D02*
X94978758Y-118169380D01*
X94978758Y-118169380D02*
X95026377Y-118074142D01*
X95026377Y-118074142D02*
X95026377Y-117978904D01*
X95026377Y-117978904D02*
X94978758Y-117883666D01*
X94978758Y-117883666D02*
X94931139Y-117836047D01*
X94931139Y-117836047D02*
X94835901Y-117788428D01*
X94835901Y-117788428D02*
X94645425Y-117740809D01*
X94645425Y-117740809D02*
X94550187Y-117693190D01*
X94550187Y-117693190D02*
X94502568Y-117645571D01*
X94502568Y-117645571D02*
X94454949Y-117550333D01*
X94454949Y-117550333D02*
X94454949Y-117455095D01*
X94454949Y-117455095D02*
X94502568Y-117359857D01*
X94502568Y-117359857D02*
X94550187Y-117312238D01*
X94550187Y-117312238D02*
X94645425Y-117264619D01*
X94645425Y-117264619D02*
X94883520Y-117264619D01*
X94883520Y-117264619D02*
X95026377Y-117312238D01*
X95645425Y-117788428D02*
X95645425Y-118264619D01*
X95312092Y-117264619D02*
X95645425Y-117788428D01*
X95645425Y-117788428D02*
X95978758Y-117264619D01*
X96264473Y-118217000D02*
X96407330Y-118264619D01*
X96407330Y-118264619D02*
X96645425Y-118264619D01*
X96645425Y-118264619D02*
X96740663Y-118217000D01*
X96740663Y-118217000D02*
X96788282Y-118169380D01*
X96788282Y-118169380D02*
X96835901Y-118074142D01*
X96835901Y-118074142D02*
X96835901Y-117978904D01*
X96835901Y-117978904D02*
X96788282Y-117883666D01*
X96788282Y-117883666D02*
X96740663Y-117836047D01*
X96740663Y-117836047D02*
X96645425Y-117788428D01*
X96645425Y-117788428D02*
X96454949Y-117740809D01*
X96454949Y-117740809D02*
X96359711Y-117693190D01*
X96359711Y-117693190D02*
X96312092Y-117645571D01*
X96312092Y-117645571D02*
X96264473Y-117550333D01*
X96264473Y-117550333D02*
X96264473Y-117455095D01*
X96264473Y-117455095D02*
X96312092Y-117359857D01*
X96312092Y-117359857D02*
X96359711Y-117312238D01*
X96359711Y-117312238D02*
X96454949Y-117264619D01*
X96454949Y-117264619D02*
X96693044Y-117264619D01*
X96693044Y-117264619D02*
X96835901Y-117312238D01*
X97121616Y-117264619D02*
X97693044Y-117264619D01*
X97407330Y-118264619D02*
X97407330Y-117264619D01*
X98026378Y-117740809D02*
X98359711Y-117740809D01*
X98502568Y-118264619D02*
X98026378Y-118264619D01*
X98026378Y-118264619D02*
X98026378Y-117264619D01*
X98026378Y-117264619D02*
X98502568Y-117264619D01*
X98931140Y-118264619D02*
X98931140Y-117264619D01*
X98931140Y-117264619D02*
X99264473Y-117978904D01*
X99264473Y-117978904D02*
X99597806Y-117264619D01*
X99597806Y-117264619D02*
X99597806Y-118264619D01*
X100693045Y-117264619D02*
X101026378Y-118264619D01*
X101026378Y-118264619D02*
X101359711Y-117264619D01*
X108002568Y-63483666D02*
X108764473Y-63483666D01*
X109764472Y-63864619D02*
X109193044Y-63864619D01*
X109478758Y-63864619D02*
X109478758Y-62864619D01*
X109478758Y-62864619D02*
X109383520Y-63007476D01*
X109383520Y-63007476D02*
X109288282Y-63102714D01*
X109288282Y-63102714D02*
X109193044Y-63150333D01*
X110145425Y-62959857D02*
X110193044Y-62912238D01*
X110193044Y-62912238D02*
X110288282Y-62864619D01*
X110288282Y-62864619D02*
X110526377Y-62864619D01*
X110526377Y-62864619D02*
X110621615Y-62912238D01*
X110621615Y-62912238D02*
X110669234Y-62959857D01*
X110669234Y-62959857D02*
X110716853Y-63055095D01*
X110716853Y-63055095D02*
X110716853Y-63150333D01*
X110716853Y-63150333D02*
X110669234Y-63293190D01*
X110669234Y-63293190D02*
X110097806Y-63864619D01*
X110097806Y-63864619D02*
X110716853Y-63864619D01*
X111002568Y-62864619D02*
X111335901Y-63864619D01*
X111335901Y-63864619D02*
X111669234Y-62864619D01*
X86602568Y-63483666D02*
X87364473Y-63483666D01*
X86983520Y-63864619D02*
X86983520Y-63102714D01*
X88364472Y-63864619D02*
X87793044Y-63864619D01*
X88078758Y-63864619D02*
X88078758Y-62864619D01*
X88078758Y-62864619D02*
X87983520Y-63007476D01*
X87983520Y-63007476D02*
X87888282Y-63102714D01*
X87888282Y-63102714D02*
X87793044Y-63150333D01*
X88745425Y-62959857D02*
X88793044Y-62912238D01*
X88793044Y-62912238D02*
X88888282Y-62864619D01*
X88888282Y-62864619D02*
X89126377Y-62864619D01*
X89126377Y-62864619D02*
X89221615Y-62912238D01*
X89221615Y-62912238D02*
X89269234Y-62959857D01*
X89269234Y-62959857D02*
X89316853Y-63055095D01*
X89316853Y-63055095D02*
X89316853Y-63150333D01*
X89316853Y-63150333D02*
X89269234Y-63293190D01*
X89269234Y-63293190D02*
X88697806Y-63864619D01*
X88697806Y-63864619D02*
X89316853Y-63864619D01*
X89602568Y-62864619D02*
X89935901Y-63864619D01*
X89935901Y-63864619D02*
X90269234Y-62864619D01*
X106307330Y-93364619D02*
X106926377Y-93364619D01*
X106926377Y-93364619D02*
X106593044Y-93745571D01*
X106593044Y-93745571D02*
X106735901Y-93745571D01*
X106735901Y-93745571D02*
X106831139Y-93793190D01*
X106831139Y-93793190D02*
X106878758Y-93840809D01*
X106878758Y-93840809D02*
X106926377Y-93936047D01*
X106926377Y-93936047D02*
X106926377Y-94174142D01*
X106926377Y-94174142D02*
X106878758Y-94269380D01*
X106878758Y-94269380D02*
X106831139Y-94317000D01*
X106831139Y-94317000D02*
X106735901Y-94364619D01*
X106735901Y-94364619D02*
X106450187Y-94364619D01*
X106450187Y-94364619D02*
X106354949Y-94317000D01*
X106354949Y-94317000D02*
X106307330Y-94269380D01*
X107354949Y-94269380D02*
X107402568Y-94317000D01*
X107402568Y-94317000D02*
X107354949Y-94364619D01*
X107354949Y-94364619D02*
X107307330Y-94317000D01*
X107307330Y-94317000D02*
X107354949Y-94269380D01*
X107354949Y-94269380D02*
X107354949Y-94364619D01*
X107735901Y-93364619D02*
X108354948Y-93364619D01*
X108354948Y-93364619D02*
X108021615Y-93745571D01*
X108021615Y-93745571D02*
X108164472Y-93745571D01*
X108164472Y-93745571D02*
X108259710Y-93793190D01*
X108259710Y-93793190D02*
X108307329Y-93840809D01*
X108307329Y-93840809D02*
X108354948Y-93936047D01*
X108354948Y-93936047D02*
X108354948Y-94174142D01*
X108354948Y-94174142D02*
X108307329Y-94269380D01*
X108307329Y-94269380D02*
X108259710Y-94317000D01*
X108259710Y-94317000D02*
X108164472Y-94364619D01*
X108164472Y-94364619D02*
X107878758Y-94364619D01*
X107878758Y-94364619D02*
X107783520Y-94317000D01*
X107783520Y-94317000D02*
X107735901Y-94269380D01*
X108640663Y-93364619D02*
X108973996Y-94364619D01*
X108973996Y-94364619D02*
X109307329Y-93364619D01*
X109593044Y-94078904D02*
X110069234Y-94078904D01*
X109497806Y-94364619D02*
X109831139Y-93364619D01*
X109831139Y-93364619D02*
X110164472Y-94364619D01*
X96507330Y-93464619D02*
X97126377Y-93464619D01*
X97126377Y-93464619D02*
X96793044Y-93845571D01*
X96793044Y-93845571D02*
X96935901Y-93845571D01*
X96935901Y-93845571D02*
X97031139Y-93893190D01*
X97031139Y-93893190D02*
X97078758Y-93940809D01*
X97078758Y-93940809D02*
X97126377Y-94036047D01*
X97126377Y-94036047D02*
X97126377Y-94274142D01*
X97126377Y-94274142D02*
X97078758Y-94369380D01*
X97078758Y-94369380D02*
X97031139Y-94417000D01*
X97031139Y-94417000D02*
X96935901Y-94464619D01*
X96935901Y-94464619D02*
X96650187Y-94464619D01*
X96650187Y-94464619D02*
X96554949Y-94417000D01*
X96554949Y-94417000D02*
X96507330Y-94369380D01*
X97554949Y-94369380D02*
X97602568Y-94417000D01*
X97602568Y-94417000D02*
X97554949Y-94464619D01*
X97554949Y-94464619D02*
X97507330Y-94417000D01*
X97507330Y-94417000D02*
X97554949Y-94369380D01*
X97554949Y-94369380D02*
X97554949Y-94464619D01*
X97935901Y-93464619D02*
X98554948Y-93464619D01*
X98554948Y-93464619D02*
X98221615Y-93845571D01*
X98221615Y-93845571D02*
X98364472Y-93845571D01*
X98364472Y-93845571D02*
X98459710Y-93893190D01*
X98459710Y-93893190D02*
X98507329Y-93940809D01*
X98507329Y-93940809D02*
X98554948Y-94036047D01*
X98554948Y-94036047D02*
X98554948Y-94274142D01*
X98554948Y-94274142D02*
X98507329Y-94369380D01*
X98507329Y-94369380D02*
X98459710Y-94417000D01*
X98459710Y-94417000D02*
X98364472Y-94464619D01*
X98364472Y-94464619D02*
X98078758Y-94464619D01*
X98078758Y-94464619D02*
X97983520Y-94417000D01*
X97983520Y-94417000D02*
X97935901Y-94369380D01*
X98840663Y-93464619D02*
X99173996Y-94464619D01*
X99173996Y-94464619D02*
X99507329Y-93464619D01*
X97578758Y-100764619D02*
X97102568Y-100764619D01*
X97102568Y-100764619D02*
X97054949Y-101240809D01*
X97054949Y-101240809D02*
X97102568Y-101193190D01*
X97102568Y-101193190D02*
X97197806Y-101145571D01*
X97197806Y-101145571D02*
X97435901Y-101145571D01*
X97435901Y-101145571D02*
X97531139Y-101193190D01*
X97531139Y-101193190D02*
X97578758Y-101240809D01*
X97578758Y-101240809D02*
X97626377Y-101336047D01*
X97626377Y-101336047D02*
X97626377Y-101574142D01*
X97626377Y-101574142D02*
X97578758Y-101669380D01*
X97578758Y-101669380D02*
X97531139Y-101717000D01*
X97531139Y-101717000D02*
X97435901Y-101764619D01*
X97435901Y-101764619D02*
X97197806Y-101764619D01*
X97197806Y-101764619D02*
X97102568Y-101717000D01*
X97102568Y-101717000D02*
X97054949Y-101669380D01*
X97912092Y-100764619D02*
X98245425Y-101764619D01*
X98245425Y-101764619D02*
X98578758Y-100764619D01*
X82493190Y-99097431D02*
X82493190Y-98335527D01*
X82874142Y-98716479D02*
X82112238Y-98716479D01*
X83064619Y-98335527D02*
X83064619Y-99097431D01*
X83064619Y-97335527D02*
X83064619Y-97906955D01*
X83064619Y-97621241D02*
X82064619Y-97621241D01*
X82064619Y-97621241D02*
X82207476Y-97716479D01*
X82207476Y-97716479D02*
X82302714Y-97811717D01*
X82302714Y-97811717D02*
X82350333Y-97906955D01*
X82159857Y-96954574D02*
X82112238Y-96906955D01*
X82112238Y-96906955D02*
X82064619Y-96811717D01*
X82064619Y-96811717D02*
X82064619Y-96573622D01*
X82064619Y-96573622D02*
X82112238Y-96478384D01*
X82112238Y-96478384D02*
X82159857Y-96430765D01*
X82159857Y-96430765D02*
X82255095Y-96383146D01*
X82255095Y-96383146D02*
X82350333Y-96383146D01*
X82350333Y-96383146D02*
X82493190Y-96430765D01*
X82493190Y-96430765D02*
X83064619Y-97002193D01*
X83064619Y-97002193D02*
X83064619Y-96383146D01*
X82064619Y-96097431D02*
X83064619Y-95764098D01*
X83064619Y-95764098D02*
X82064619Y-95430765D01*
X82017000Y-94383146D02*
X83302714Y-95240288D01*
X82112238Y-93526003D02*
X82064619Y-93621241D01*
X82064619Y-93621241D02*
X82064619Y-93764098D01*
X82064619Y-93764098D02*
X82112238Y-93906955D01*
X82112238Y-93906955D02*
X82207476Y-94002193D01*
X82207476Y-94002193D02*
X82302714Y-94049812D01*
X82302714Y-94049812D02*
X82493190Y-94097431D01*
X82493190Y-94097431D02*
X82636047Y-94097431D01*
X82636047Y-94097431D02*
X82826523Y-94049812D01*
X82826523Y-94049812D02*
X82921761Y-94002193D01*
X82921761Y-94002193D02*
X83017000Y-93906955D01*
X83017000Y-93906955D02*
X83064619Y-93764098D01*
X83064619Y-93764098D02*
X83064619Y-93668860D01*
X83064619Y-93668860D02*
X83017000Y-93526003D01*
X83017000Y-93526003D02*
X82969380Y-93478384D01*
X82969380Y-93478384D02*
X82636047Y-93478384D01*
X82636047Y-93478384D02*
X82636047Y-93668860D01*
X83064619Y-93049812D02*
X82064619Y-93049812D01*
X82064619Y-93049812D02*
X83064619Y-92478384D01*
X83064619Y-92478384D02*
X82064619Y-92478384D01*
X83064619Y-92002193D02*
X82064619Y-92002193D01*
X82064619Y-92002193D02*
X82064619Y-91764098D01*
X82064619Y-91764098D02*
X82112238Y-91621241D01*
X82112238Y-91621241D02*
X82207476Y-91526003D01*
X82207476Y-91526003D02*
X82302714Y-91478384D01*
X82302714Y-91478384D02*
X82493190Y-91430765D01*
X82493190Y-91430765D02*
X82636047Y-91430765D01*
X82636047Y-91430765D02*
X82826523Y-91478384D01*
X82826523Y-91478384D02*
X82921761Y-91526003D01*
X82921761Y-91526003D02*
X83017000Y-91621241D01*
X83017000Y-91621241D02*
X83064619Y-91764098D01*
X83064619Y-91764098D02*
X83064619Y-92002193D01*
X82017000Y-90287908D02*
X83302714Y-91145050D01*
X82064619Y-90049812D02*
X82064619Y-89430765D01*
X82064619Y-89430765D02*
X82445571Y-89764098D01*
X82445571Y-89764098D02*
X82445571Y-89621241D01*
X82445571Y-89621241D02*
X82493190Y-89526003D01*
X82493190Y-89526003D02*
X82540809Y-89478384D01*
X82540809Y-89478384D02*
X82636047Y-89430765D01*
X82636047Y-89430765D02*
X82874142Y-89430765D01*
X82874142Y-89430765D02*
X82969380Y-89478384D01*
X82969380Y-89478384D02*
X83017000Y-89526003D01*
X83017000Y-89526003D02*
X83064619Y-89621241D01*
X83064619Y-89621241D02*
X83064619Y-89906955D01*
X83064619Y-89906955D02*
X83017000Y-90002193D01*
X83017000Y-90002193D02*
X82969380Y-90049812D01*
X82969380Y-89002193D02*
X83017000Y-88954574D01*
X83017000Y-88954574D02*
X83064619Y-89002193D01*
X83064619Y-89002193D02*
X83017000Y-89049812D01*
X83017000Y-89049812D02*
X82969380Y-89002193D01*
X82969380Y-89002193D02*
X83064619Y-89002193D01*
X82064619Y-88621241D02*
X82064619Y-88002194D01*
X82064619Y-88002194D02*
X82445571Y-88335527D01*
X82445571Y-88335527D02*
X82445571Y-88192670D01*
X82445571Y-88192670D02*
X82493190Y-88097432D01*
X82493190Y-88097432D02*
X82540809Y-88049813D01*
X82540809Y-88049813D02*
X82636047Y-88002194D01*
X82636047Y-88002194D02*
X82874142Y-88002194D01*
X82874142Y-88002194D02*
X82969380Y-88049813D01*
X82969380Y-88049813D02*
X83017000Y-88097432D01*
X83017000Y-88097432D02*
X83064619Y-88192670D01*
X83064619Y-88192670D02*
X83064619Y-88478384D01*
X83064619Y-88478384D02*
X83017000Y-88573622D01*
X83017000Y-88573622D02*
X82969380Y-88621241D01*
X82064619Y-87716479D02*
X83064619Y-87383146D01*
X83064619Y-87383146D02*
X82064619Y-87049813D01*
X135493044Y-51464619D02*
X135683520Y-51464619D01*
X135683520Y-51464619D02*
X135778758Y-51512238D01*
X135778758Y-51512238D02*
X135873996Y-51607476D01*
X135873996Y-51607476D02*
X135921615Y-51797952D01*
X135921615Y-51797952D02*
X135921615Y-52131285D01*
X135921615Y-52131285D02*
X135873996Y-52321761D01*
X135873996Y-52321761D02*
X135778758Y-52417000D01*
X135778758Y-52417000D02*
X135683520Y-52464619D01*
X135683520Y-52464619D02*
X135493044Y-52464619D01*
X135493044Y-52464619D02*
X135397806Y-52417000D01*
X135397806Y-52417000D02*
X135302568Y-52321761D01*
X135302568Y-52321761D02*
X135254949Y-52131285D01*
X135254949Y-52131285D02*
X135254949Y-51797952D01*
X135254949Y-51797952D02*
X135302568Y-51607476D01*
X135302568Y-51607476D02*
X135397806Y-51512238D01*
X135397806Y-51512238D02*
X135493044Y-51464619D01*
X136302568Y-52417000D02*
X136445425Y-52464619D01*
X136445425Y-52464619D02*
X136683520Y-52464619D01*
X136683520Y-52464619D02*
X136778758Y-52417000D01*
X136778758Y-52417000D02*
X136826377Y-52369380D01*
X136826377Y-52369380D02*
X136873996Y-52274142D01*
X136873996Y-52274142D02*
X136873996Y-52178904D01*
X136873996Y-52178904D02*
X136826377Y-52083666D01*
X136826377Y-52083666D02*
X136778758Y-52036047D01*
X136778758Y-52036047D02*
X136683520Y-51988428D01*
X136683520Y-51988428D02*
X136493044Y-51940809D01*
X136493044Y-51940809D02*
X136397806Y-51893190D01*
X136397806Y-51893190D02*
X136350187Y-51845571D01*
X136350187Y-51845571D02*
X136302568Y-51750333D01*
X136302568Y-51750333D02*
X136302568Y-51655095D01*
X136302568Y-51655095D02*
X136350187Y-51559857D01*
X136350187Y-51559857D02*
X136397806Y-51512238D01*
X136397806Y-51512238D02*
X136493044Y-51464619D01*
X136493044Y-51464619D02*
X136731139Y-51464619D01*
X136731139Y-51464619D02*
X136873996Y-51512238D01*
X137873996Y-52369380D02*
X137826377Y-52417000D01*
X137826377Y-52417000D02*
X137683520Y-52464619D01*
X137683520Y-52464619D02*
X137588282Y-52464619D01*
X137588282Y-52464619D02*
X137445425Y-52417000D01*
X137445425Y-52417000D02*
X137350187Y-52321761D01*
X137350187Y-52321761D02*
X137302568Y-52226523D01*
X137302568Y-52226523D02*
X137254949Y-52036047D01*
X137254949Y-52036047D02*
X137254949Y-51893190D01*
X137254949Y-51893190D02*
X137302568Y-51702714D01*
X137302568Y-51702714D02*
X137350187Y-51607476D01*
X137350187Y-51607476D02*
X137445425Y-51512238D01*
X137445425Y-51512238D02*
X137588282Y-51464619D01*
X137588282Y-51464619D02*
X137683520Y-51464619D01*
X137683520Y-51464619D02*
X137826377Y-51512238D01*
X137826377Y-51512238D02*
X137873996Y-51559857D01*
X138302568Y-52464619D02*
X138302568Y-51464619D01*
X139254948Y-52464619D02*
X138778758Y-52464619D01*
X138778758Y-52464619D02*
X138778758Y-51464619D01*
X140064472Y-52464619D02*
X139588282Y-52464619D01*
X139588282Y-52464619D02*
X139588282Y-51464619D01*
X140588282Y-51464619D02*
X140778758Y-51464619D01*
X140778758Y-51464619D02*
X140873996Y-51512238D01*
X140873996Y-51512238D02*
X140969234Y-51607476D01*
X140969234Y-51607476D02*
X141016853Y-51797952D01*
X141016853Y-51797952D02*
X141016853Y-52131285D01*
X141016853Y-52131285D02*
X140969234Y-52321761D01*
X140969234Y-52321761D02*
X140873996Y-52417000D01*
X140873996Y-52417000D02*
X140778758Y-52464619D01*
X140778758Y-52464619D02*
X140588282Y-52464619D01*
X140588282Y-52464619D02*
X140493044Y-52417000D01*
X140493044Y-52417000D02*
X140397806Y-52321761D01*
X140397806Y-52321761D02*
X140350187Y-52131285D01*
X140350187Y-52131285D02*
X140350187Y-51797952D01*
X140350187Y-51797952D02*
X140397806Y-51607476D01*
X140397806Y-51607476D02*
X140493044Y-51512238D01*
X140493044Y-51512238D02*
X140588282Y-51464619D01*
X141397806Y-52417000D02*
X141540663Y-52464619D01*
X141540663Y-52464619D02*
X141778758Y-52464619D01*
X141778758Y-52464619D02*
X141873996Y-52417000D01*
X141873996Y-52417000D02*
X141921615Y-52369380D01*
X141921615Y-52369380D02*
X141969234Y-52274142D01*
X141969234Y-52274142D02*
X141969234Y-52178904D01*
X141969234Y-52178904D02*
X141921615Y-52083666D01*
X141921615Y-52083666D02*
X141873996Y-52036047D01*
X141873996Y-52036047D02*
X141778758Y-51988428D01*
X141778758Y-51988428D02*
X141588282Y-51940809D01*
X141588282Y-51940809D02*
X141493044Y-51893190D01*
X141493044Y-51893190D02*
X141445425Y-51845571D01*
X141445425Y-51845571D02*
X141397806Y-51750333D01*
X141397806Y-51750333D02*
X141397806Y-51655095D01*
X141397806Y-51655095D02*
X141445425Y-51559857D01*
X141445425Y-51559857D02*
X141493044Y-51512238D01*
X141493044Y-51512238D02*
X141588282Y-51464619D01*
X141588282Y-51464619D02*
X141826377Y-51464619D01*
X141826377Y-51464619D02*
X141969234Y-51512238D01*
X142969234Y-52369380D02*
X142921615Y-52417000D01*
X142921615Y-52417000D02*
X142778758Y-52464619D01*
X142778758Y-52464619D02*
X142683520Y-52464619D01*
X142683520Y-52464619D02*
X142540663Y-52417000D01*
X142540663Y-52417000D02*
X142445425Y-52321761D01*
X142445425Y-52321761D02*
X142397806Y-52226523D01*
X142397806Y-52226523D02*
X142350187Y-52036047D01*
X142350187Y-52036047D02*
X142350187Y-51893190D01*
X142350187Y-51893190D02*
X142397806Y-51702714D01*
X142397806Y-51702714D02*
X142445425Y-51607476D01*
X142445425Y-51607476D02*
X142540663Y-51512238D01*
X142540663Y-51512238D02*
X142683520Y-51464619D01*
X142683520Y-51464619D02*
X142778758Y-51464619D01*
X142778758Y-51464619D02*
X142921615Y-51512238D01*
X142921615Y-51512238D02*
X142969234Y-51559857D01*
X143588282Y-51464619D02*
X143778758Y-51464619D01*
X143778758Y-51464619D02*
X143873996Y-51512238D01*
X143873996Y-51512238D02*
X143969234Y-51607476D01*
X143969234Y-51607476D02*
X144016853Y-51797952D01*
X144016853Y-51797952D02*
X144016853Y-52131285D01*
X144016853Y-52131285D02*
X143969234Y-52321761D01*
X143969234Y-52321761D02*
X143873996Y-52417000D01*
X143873996Y-52417000D02*
X143778758Y-52464619D01*
X143778758Y-52464619D02*
X143588282Y-52464619D01*
X143588282Y-52464619D02*
X143493044Y-52417000D01*
X143493044Y-52417000D02*
X143397806Y-52321761D01*
X143397806Y-52321761D02*
X143350187Y-52131285D01*
X143350187Y-52131285D02*
X143350187Y-51797952D01*
X143350187Y-51797952D02*
X143397806Y-51607476D01*
X143397806Y-51607476D02*
X143493044Y-51512238D01*
X143493044Y-51512238D02*
X143588282Y-51464619D01*
X144445425Y-52464619D02*
X144445425Y-51464619D01*
X144445425Y-51464619D02*
X144826377Y-51464619D01*
X144826377Y-51464619D02*
X144921615Y-51512238D01*
X144921615Y-51512238D02*
X144969234Y-51559857D01*
X144969234Y-51559857D02*
X145016853Y-51655095D01*
X145016853Y-51655095D02*
X145016853Y-51797952D01*
X145016853Y-51797952D02*
X144969234Y-51893190D01*
X144969234Y-51893190D02*
X144921615Y-51940809D01*
X144921615Y-51940809D02*
X144826377Y-51988428D01*
X144826377Y-51988428D02*
X144445425Y-51988428D01*
X145445425Y-51940809D02*
X145778758Y-51940809D01*
X145921615Y-52464619D02*
X145445425Y-52464619D01*
X145445425Y-52464619D02*
X145445425Y-51464619D01*
X145445425Y-51464619D02*
X145921615Y-51464619D01*
X82493190Y-83197431D02*
X82493190Y-82435527D01*
X82874142Y-82816479D02*
X82112238Y-82816479D01*
X83064619Y-82435527D02*
X83064619Y-83197431D01*
X83064619Y-81435527D02*
X83064619Y-82006955D01*
X83064619Y-81721241D02*
X82064619Y-81721241D01*
X82064619Y-81721241D02*
X82207476Y-81816479D01*
X82207476Y-81816479D02*
X82302714Y-81911717D01*
X82302714Y-81911717D02*
X82350333Y-82006955D01*
X82159857Y-81054574D02*
X82112238Y-81006955D01*
X82112238Y-81006955D02*
X82064619Y-80911717D01*
X82064619Y-80911717D02*
X82064619Y-80673622D01*
X82064619Y-80673622D02*
X82112238Y-80578384D01*
X82112238Y-80578384D02*
X82159857Y-80530765D01*
X82159857Y-80530765D02*
X82255095Y-80483146D01*
X82255095Y-80483146D02*
X82350333Y-80483146D01*
X82350333Y-80483146D02*
X82493190Y-80530765D01*
X82493190Y-80530765D02*
X83064619Y-81102193D01*
X83064619Y-81102193D02*
X83064619Y-80483146D01*
X82064619Y-80197431D02*
X83064619Y-79864098D01*
X83064619Y-79864098D02*
X82064619Y-79530765D01*
X82017000Y-78483146D02*
X83302714Y-79340288D01*
X82112238Y-77626003D02*
X82064619Y-77721241D01*
X82064619Y-77721241D02*
X82064619Y-77864098D01*
X82064619Y-77864098D02*
X82112238Y-78006955D01*
X82112238Y-78006955D02*
X82207476Y-78102193D01*
X82207476Y-78102193D02*
X82302714Y-78149812D01*
X82302714Y-78149812D02*
X82493190Y-78197431D01*
X82493190Y-78197431D02*
X82636047Y-78197431D01*
X82636047Y-78197431D02*
X82826523Y-78149812D01*
X82826523Y-78149812D02*
X82921761Y-78102193D01*
X82921761Y-78102193D02*
X83017000Y-78006955D01*
X83017000Y-78006955D02*
X83064619Y-77864098D01*
X83064619Y-77864098D02*
X83064619Y-77768860D01*
X83064619Y-77768860D02*
X83017000Y-77626003D01*
X83017000Y-77626003D02*
X82969380Y-77578384D01*
X82969380Y-77578384D02*
X82636047Y-77578384D01*
X82636047Y-77578384D02*
X82636047Y-77768860D01*
X83064619Y-77149812D02*
X82064619Y-77149812D01*
X82064619Y-77149812D02*
X83064619Y-76578384D01*
X83064619Y-76578384D02*
X82064619Y-76578384D01*
X83064619Y-76102193D02*
X82064619Y-76102193D01*
X82064619Y-76102193D02*
X82064619Y-75864098D01*
X82064619Y-75864098D02*
X82112238Y-75721241D01*
X82112238Y-75721241D02*
X82207476Y-75626003D01*
X82207476Y-75626003D02*
X82302714Y-75578384D01*
X82302714Y-75578384D02*
X82493190Y-75530765D01*
X82493190Y-75530765D02*
X82636047Y-75530765D01*
X82636047Y-75530765D02*
X82826523Y-75578384D01*
X82826523Y-75578384D02*
X82921761Y-75626003D01*
X82921761Y-75626003D02*
X83017000Y-75721241D01*
X83017000Y-75721241D02*
X83064619Y-75864098D01*
X83064619Y-75864098D02*
X83064619Y-76102193D01*
X82017000Y-74387908D02*
X83302714Y-75245050D01*
X82064619Y-74149812D02*
X82064619Y-73530765D01*
X82064619Y-73530765D02*
X82445571Y-73864098D01*
X82445571Y-73864098D02*
X82445571Y-73721241D01*
X82445571Y-73721241D02*
X82493190Y-73626003D01*
X82493190Y-73626003D02*
X82540809Y-73578384D01*
X82540809Y-73578384D02*
X82636047Y-73530765D01*
X82636047Y-73530765D02*
X82874142Y-73530765D01*
X82874142Y-73530765D02*
X82969380Y-73578384D01*
X82969380Y-73578384D02*
X83017000Y-73626003D01*
X83017000Y-73626003D02*
X83064619Y-73721241D01*
X83064619Y-73721241D02*
X83064619Y-74006955D01*
X83064619Y-74006955D02*
X83017000Y-74102193D01*
X83017000Y-74102193D02*
X82969380Y-74149812D01*
X82969380Y-73102193D02*
X83017000Y-73054574D01*
X83017000Y-73054574D02*
X83064619Y-73102193D01*
X83064619Y-73102193D02*
X83017000Y-73149812D01*
X83017000Y-73149812D02*
X82969380Y-73102193D01*
X82969380Y-73102193D02*
X83064619Y-73102193D01*
X82064619Y-72721241D02*
X82064619Y-72102194D01*
X82064619Y-72102194D02*
X82445571Y-72435527D01*
X82445571Y-72435527D02*
X82445571Y-72292670D01*
X82445571Y-72292670D02*
X82493190Y-72197432D01*
X82493190Y-72197432D02*
X82540809Y-72149813D01*
X82540809Y-72149813D02*
X82636047Y-72102194D01*
X82636047Y-72102194D02*
X82874142Y-72102194D01*
X82874142Y-72102194D02*
X82969380Y-72149813D01*
X82969380Y-72149813D02*
X83017000Y-72197432D01*
X83017000Y-72197432D02*
X83064619Y-72292670D01*
X83064619Y-72292670D02*
X83064619Y-72578384D01*
X83064619Y-72578384D02*
X83017000Y-72673622D01*
X83017000Y-72673622D02*
X82969380Y-72721241D01*
X82064619Y-71816479D02*
X83064619Y-71483146D01*
X83064619Y-71483146D02*
X82064619Y-71149813D01*
X82264619Y-68292669D02*
X82264619Y-67673622D01*
X82264619Y-67673622D02*
X82645571Y-68006955D01*
X82645571Y-68006955D02*
X82645571Y-67864098D01*
X82645571Y-67864098D02*
X82693190Y-67768860D01*
X82693190Y-67768860D02*
X82740809Y-67721241D01*
X82740809Y-67721241D02*
X82836047Y-67673622D01*
X82836047Y-67673622D02*
X83074142Y-67673622D01*
X83074142Y-67673622D02*
X83169380Y-67721241D01*
X83169380Y-67721241D02*
X83217000Y-67768860D01*
X83217000Y-67768860D02*
X83264619Y-67864098D01*
X83264619Y-67864098D02*
X83264619Y-68149812D01*
X83264619Y-68149812D02*
X83217000Y-68245050D01*
X83217000Y-68245050D02*
X83169380Y-68292669D01*
X83169380Y-67245050D02*
X83217000Y-67197431D01*
X83217000Y-67197431D02*
X83264619Y-67245050D01*
X83264619Y-67245050D02*
X83217000Y-67292669D01*
X83217000Y-67292669D02*
X83169380Y-67245050D01*
X83169380Y-67245050D02*
X83264619Y-67245050D01*
X82264619Y-66864098D02*
X82264619Y-66245051D01*
X82264619Y-66245051D02*
X82645571Y-66578384D01*
X82645571Y-66578384D02*
X82645571Y-66435527D01*
X82645571Y-66435527D02*
X82693190Y-66340289D01*
X82693190Y-66340289D02*
X82740809Y-66292670D01*
X82740809Y-66292670D02*
X82836047Y-66245051D01*
X82836047Y-66245051D02*
X83074142Y-66245051D01*
X83074142Y-66245051D02*
X83169380Y-66292670D01*
X83169380Y-66292670D02*
X83217000Y-66340289D01*
X83217000Y-66340289D02*
X83264619Y-66435527D01*
X83264619Y-66435527D02*
X83264619Y-66721241D01*
X83264619Y-66721241D02*
X83217000Y-66816479D01*
X83217000Y-66816479D02*
X83169380Y-66864098D01*
X82264619Y-65959336D02*
X83264619Y-65626003D01*
X83264619Y-65626003D02*
X82264619Y-65292670D01*
X82217000Y-64245051D02*
X83502714Y-65102193D01*
X82264619Y-63435527D02*
X82264619Y-63911717D01*
X82264619Y-63911717D02*
X82740809Y-63959336D01*
X82740809Y-63959336D02*
X82693190Y-63911717D01*
X82693190Y-63911717D02*
X82645571Y-63816479D01*
X82645571Y-63816479D02*
X82645571Y-63578384D01*
X82645571Y-63578384D02*
X82693190Y-63483146D01*
X82693190Y-63483146D02*
X82740809Y-63435527D01*
X82740809Y-63435527D02*
X82836047Y-63387908D01*
X82836047Y-63387908D02*
X83074142Y-63387908D01*
X83074142Y-63387908D02*
X83169380Y-63435527D01*
X83169380Y-63435527D02*
X83217000Y-63483146D01*
X83217000Y-63483146D02*
X83264619Y-63578384D01*
X83264619Y-63578384D02*
X83264619Y-63816479D01*
X83264619Y-63816479D02*
X83217000Y-63911717D01*
X83217000Y-63911717D02*
X83169380Y-63959336D01*
X82264619Y-63102193D02*
X83264619Y-62768860D01*
X83264619Y-62768860D02*
X82264619Y-62435527D01*
X82217000Y-61387908D02*
X83502714Y-62245050D01*
X82312238Y-60530765D02*
X82264619Y-60626003D01*
X82264619Y-60626003D02*
X82264619Y-60768860D01*
X82264619Y-60768860D02*
X82312238Y-60911717D01*
X82312238Y-60911717D02*
X82407476Y-61006955D01*
X82407476Y-61006955D02*
X82502714Y-61054574D01*
X82502714Y-61054574D02*
X82693190Y-61102193D01*
X82693190Y-61102193D02*
X82836047Y-61102193D01*
X82836047Y-61102193D02*
X83026523Y-61054574D01*
X83026523Y-61054574D02*
X83121761Y-61006955D01*
X83121761Y-61006955D02*
X83217000Y-60911717D01*
X83217000Y-60911717D02*
X83264619Y-60768860D01*
X83264619Y-60768860D02*
X83264619Y-60673622D01*
X83264619Y-60673622D02*
X83217000Y-60530765D01*
X83217000Y-60530765D02*
X83169380Y-60483146D01*
X83169380Y-60483146D02*
X82836047Y-60483146D01*
X82836047Y-60483146D02*
X82836047Y-60673622D01*
X83264619Y-60054574D02*
X82264619Y-60054574D01*
X82264619Y-60054574D02*
X83264619Y-59483146D01*
X83264619Y-59483146D02*
X82264619Y-59483146D01*
X83264619Y-59006955D02*
X82264619Y-59006955D01*
X82264619Y-59006955D02*
X82264619Y-58768860D01*
X82264619Y-58768860D02*
X82312238Y-58626003D01*
X82312238Y-58626003D02*
X82407476Y-58530765D01*
X82407476Y-58530765D02*
X82502714Y-58483146D01*
X82502714Y-58483146D02*
X82693190Y-58435527D01*
X82693190Y-58435527D02*
X82836047Y-58435527D01*
X82836047Y-58435527D02*
X83026523Y-58483146D01*
X83026523Y-58483146D02*
X83121761Y-58530765D01*
X83121761Y-58530765D02*
X83217000Y-58626003D01*
X83217000Y-58626003D02*
X83264619Y-58768860D01*
X83264619Y-58768860D02*
X83264619Y-59006955D01*
X148364619Y-75197431D02*
X147364619Y-75197431D01*
X147364619Y-75197431D02*
X147364619Y-74959336D01*
X147364619Y-74959336D02*
X147412238Y-74816479D01*
X147412238Y-74816479D02*
X147507476Y-74721241D01*
X147507476Y-74721241D02*
X147602714Y-74673622D01*
X147602714Y-74673622D02*
X147793190Y-74626003D01*
X147793190Y-74626003D02*
X147936047Y-74626003D01*
X147936047Y-74626003D02*
X148126523Y-74673622D01*
X148126523Y-74673622D02*
X148221761Y-74721241D01*
X148221761Y-74721241D02*
X148317000Y-74816479D01*
X148317000Y-74816479D02*
X148364619Y-74959336D01*
X148364619Y-74959336D02*
X148364619Y-75197431D01*
X148364619Y-74197431D02*
X147364619Y-74197431D01*
X148317000Y-73768860D02*
X148364619Y-73626003D01*
X148364619Y-73626003D02*
X148364619Y-73387908D01*
X148364619Y-73387908D02*
X148317000Y-73292670D01*
X148317000Y-73292670D02*
X148269380Y-73245051D01*
X148269380Y-73245051D02*
X148174142Y-73197432D01*
X148174142Y-73197432D02*
X148078904Y-73197432D01*
X148078904Y-73197432D02*
X147983666Y-73245051D01*
X147983666Y-73245051D02*
X147936047Y-73292670D01*
X147936047Y-73292670D02*
X147888428Y-73387908D01*
X147888428Y-73387908D02*
X147840809Y-73578384D01*
X147840809Y-73578384D02*
X147793190Y-73673622D01*
X147793190Y-73673622D02*
X147745571Y-73721241D01*
X147745571Y-73721241D02*
X147650333Y-73768860D01*
X147650333Y-73768860D02*
X147555095Y-73768860D01*
X147555095Y-73768860D02*
X147459857Y-73721241D01*
X147459857Y-73721241D02*
X147412238Y-73673622D01*
X147412238Y-73673622D02*
X147364619Y-73578384D01*
X147364619Y-73578384D02*
X147364619Y-73340289D01*
X147364619Y-73340289D02*
X147412238Y-73197432D01*
X148364619Y-72768860D02*
X147364619Y-72768860D01*
X147364619Y-72768860D02*
X147364619Y-72387908D01*
X147364619Y-72387908D02*
X147412238Y-72292670D01*
X147412238Y-72292670D02*
X147459857Y-72245051D01*
X147459857Y-72245051D02*
X147555095Y-72197432D01*
X147555095Y-72197432D02*
X147697952Y-72197432D01*
X147697952Y-72197432D02*
X147793190Y-72245051D01*
X147793190Y-72245051D02*
X147840809Y-72292670D01*
X147840809Y-72292670D02*
X147888428Y-72387908D01*
X147888428Y-72387908D02*
X147888428Y-72768860D01*
X148364619Y-71292670D02*
X148364619Y-71768860D01*
X148364619Y-71768860D02*
X147364619Y-71768860D01*
X148078904Y-71006955D02*
X148078904Y-70530765D01*
X148364619Y-71102193D02*
X147364619Y-70768860D01*
X147364619Y-70768860D02*
X148364619Y-70435527D01*
X147888428Y-69911717D02*
X148364619Y-69911717D01*
X147364619Y-70245050D02*
X147888428Y-69911717D01*
X147888428Y-69911717D02*
X147364619Y-69578384D01*
X119773996Y-58069380D02*
X119726377Y-58117000D01*
X119726377Y-58117000D02*
X119583520Y-58164619D01*
X119583520Y-58164619D02*
X119488282Y-58164619D01*
X119488282Y-58164619D02*
X119345425Y-58117000D01*
X119345425Y-58117000D02*
X119250187Y-58021761D01*
X119250187Y-58021761D02*
X119202568Y-57926523D01*
X119202568Y-57926523D02*
X119154949Y-57736047D01*
X119154949Y-57736047D02*
X119154949Y-57593190D01*
X119154949Y-57593190D02*
X119202568Y-57402714D01*
X119202568Y-57402714D02*
X119250187Y-57307476D01*
X119250187Y-57307476D02*
X119345425Y-57212238D01*
X119345425Y-57212238D02*
X119488282Y-57164619D01*
X119488282Y-57164619D02*
X119583520Y-57164619D01*
X119583520Y-57164619D02*
X119726377Y-57212238D01*
X119726377Y-57212238D02*
X119773996Y-57259857D01*
X120154949Y-57878904D02*
X120631139Y-57878904D01*
X120059711Y-58164619D02*
X120393044Y-57164619D01*
X120393044Y-57164619D02*
X120726377Y-58164619D01*
X121059711Y-58164619D02*
X121059711Y-57164619D01*
X121059711Y-57164619D02*
X121631139Y-58164619D01*
X121631139Y-58164619D02*
X121631139Y-57164619D01*
X122440663Y-57640809D02*
X122583520Y-57688428D01*
X122583520Y-57688428D02*
X122631139Y-57736047D01*
X122631139Y-57736047D02*
X122678758Y-57831285D01*
X122678758Y-57831285D02*
X122678758Y-57974142D01*
X122678758Y-57974142D02*
X122631139Y-58069380D01*
X122631139Y-58069380D02*
X122583520Y-58117000D01*
X122583520Y-58117000D02*
X122488282Y-58164619D01*
X122488282Y-58164619D02*
X122107330Y-58164619D01*
X122107330Y-58164619D02*
X122107330Y-57164619D01*
X122107330Y-57164619D02*
X122440663Y-57164619D01*
X122440663Y-57164619D02*
X122535901Y-57212238D01*
X122535901Y-57212238D02*
X122583520Y-57259857D01*
X122583520Y-57259857D02*
X122631139Y-57355095D01*
X122631139Y-57355095D02*
X122631139Y-57450333D01*
X122631139Y-57450333D02*
X122583520Y-57545571D01*
X122583520Y-57545571D02*
X122535901Y-57593190D01*
X122535901Y-57593190D02*
X122440663Y-57640809D01*
X122440663Y-57640809D02*
X122107330Y-57640809D01*
X123107330Y-57164619D02*
X123107330Y-57974142D01*
X123107330Y-57974142D02*
X123154949Y-58069380D01*
X123154949Y-58069380D02*
X123202568Y-58117000D01*
X123202568Y-58117000D02*
X123297806Y-58164619D01*
X123297806Y-58164619D02*
X123488282Y-58164619D01*
X123488282Y-58164619D02*
X123583520Y-58117000D01*
X123583520Y-58117000D02*
X123631139Y-58069380D01*
X123631139Y-58069380D02*
X123678758Y-57974142D01*
X123678758Y-57974142D02*
X123678758Y-57164619D01*
X124107330Y-58117000D02*
X124250187Y-58164619D01*
X124250187Y-58164619D02*
X124488282Y-58164619D01*
X124488282Y-58164619D02*
X124583520Y-58117000D01*
X124583520Y-58117000D02*
X124631139Y-58069380D01*
X124631139Y-58069380D02*
X124678758Y-57974142D01*
X124678758Y-57974142D02*
X124678758Y-57878904D01*
X124678758Y-57878904D02*
X124631139Y-57783666D01*
X124631139Y-57783666D02*
X124583520Y-57736047D01*
X124583520Y-57736047D02*
X124488282Y-57688428D01*
X124488282Y-57688428D02*
X124297806Y-57640809D01*
X124297806Y-57640809D02*
X124202568Y-57593190D01*
X124202568Y-57593190D02*
X124154949Y-57545571D01*
X124154949Y-57545571D02*
X124107330Y-57450333D01*
X124107330Y-57450333D02*
X124107330Y-57355095D01*
X124107330Y-57355095D02*
X124154949Y-57259857D01*
X124154949Y-57259857D02*
X124202568Y-57212238D01*
X124202568Y-57212238D02*
X124297806Y-57164619D01*
X124297806Y-57164619D02*
X124535901Y-57164619D01*
X124535901Y-57164619D02*
X124678758Y-57212238D01*
X125869235Y-58164619D02*
X125869235Y-57164619D01*
X125869235Y-57164619D02*
X126107330Y-57164619D01*
X126107330Y-57164619D02*
X126250187Y-57212238D01*
X126250187Y-57212238D02*
X126345425Y-57307476D01*
X126345425Y-57307476D02*
X126393044Y-57402714D01*
X126393044Y-57402714D02*
X126440663Y-57593190D01*
X126440663Y-57593190D02*
X126440663Y-57736047D01*
X126440663Y-57736047D02*
X126393044Y-57926523D01*
X126393044Y-57926523D02*
X126345425Y-58021761D01*
X126345425Y-58021761D02*
X126250187Y-58117000D01*
X126250187Y-58117000D02*
X126107330Y-58164619D01*
X126107330Y-58164619D02*
X125869235Y-58164619D01*
X126869235Y-57640809D02*
X127202568Y-57640809D01*
X127345425Y-58164619D02*
X126869235Y-58164619D01*
X126869235Y-58164619D02*
X126869235Y-57164619D01*
X126869235Y-57164619D02*
X127345425Y-57164619D01*
X128107330Y-57640809D02*
X128250187Y-57688428D01*
X128250187Y-57688428D02*
X128297806Y-57736047D01*
X128297806Y-57736047D02*
X128345425Y-57831285D01*
X128345425Y-57831285D02*
X128345425Y-57974142D01*
X128345425Y-57974142D02*
X128297806Y-58069380D01*
X128297806Y-58069380D02*
X128250187Y-58117000D01*
X128250187Y-58117000D02*
X128154949Y-58164619D01*
X128154949Y-58164619D02*
X127773997Y-58164619D01*
X127773997Y-58164619D02*
X127773997Y-57164619D01*
X127773997Y-57164619D02*
X128107330Y-57164619D01*
X128107330Y-57164619D02*
X128202568Y-57212238D01*
X128202568Y-57212238D02*
X128250187Y-57259857D01*
X128250187Y-57259857D02*
X128297806Y-57355095D01*
X128297806Y-57355095D02*
X128297806Y-57450333D01*
X128297806Y-57450333D02*
X128250187Y-57545571D01*
X128250187Y-57545571D02*
X128202568Y-57593190D01*
X128202568Y-57593190D02*
X128107330Y-57640809D01*
X128107330Y-57640809D02*
X127773997Y-57640809D01*
X128773997Y-57164619D02*
X128773997Y-57974142D01*
X128773997Y-57974142D02*
X128821616Y-58069380D01*
X128821616Y-58069380D02*
X128869235Y-58117000D01*
X128869235Y-58117000D02*
X128964473Y-58164619D01*
X128964473Y-58164619D02*
X129154949Y-58164619D01*
X129154949Y-58164619D02*
X129250187Y-58117000D01*
X129250187Y-58117000D02*
X129297806Y-58069380D01*
X129297806Y-58069380D02*
X129345425Y-57974142D01*
X129345425Y-57974142D02*
X129345425Y-57164619D01*
X130345425Y-57212238D02*
X130250187Y-57164619D01*
X130250187Y-57164619D02*
X130107330Y-57164619D01*
X130107330Y-57164619D02*
X129964473Y-57212238D01*
X129964473Y-57212238D02*
X129869235Y-57307476D01*
X129869235Y-57307476D02*
X129821616Y-57402714D01*
X129821616Y-57402714D02*
X129773997Y-57593190D01*
X129773997Y-57593190D02*
X129773997Y-57736047D01*
X129773997Y-57736047D02*
X129821616Y-57926523D01*
X129821616Y-57926523D02*
X129869235Y-58021761D01*
X129869235Y-58021761D02*
X129964473Y-58117000D01*
X129964473Y-58117000D02*
X130107330Y-58164619D01*
X130107330Y-58164619D02*
X130202568Y-58164619D01*
X130202568Y-58164619D02*
X130345425Y-58117000D01*
X130345425Y-58117000D02*
X130393044Y-58069380D01*
X130393044Y-58069380D02*
X130393044Y-57736047D01*
X130393044Y-57736047D02*
X130202568Y-57736047D01*
X131345425Y-57212238D02*
X131250187Y-57164619D01*
X131250187Y-57164619D02*
X131107330Y-57164619D01*
X131107330Y-57164619D02*
X130964473Y-57212238D01*
X130964473Y-57212238D02*
X130869235Y-57307476D01*
X130869235Y-57307476D02*
X130821616Y-57402714D01*
X130821616Y-57402714D02*
X130773997Y-57593190D01*
X130773997Y-57593190D02*
X130773997Y-57736047D01*
X130773997Y-57736047D02*
X130821616Y-57926523D01*
X130821616Y-57926523D02*
X130869235Y-58021761D01*
X130869235Y-58021761D02*
X130964473Y-58117000D01*
X130964473Y-58117000D02*
X131107330Y-58164619D01*
X131107330Y-58164619D02*
X131202568Y-58164619D01*
X131202568Y-58164619D02*
X131345425Y-58117000D01*
X131345425Y-58117000D02*
X131393044Y-58069380D01*
X131393044Y-58069380D02*
X131393044Y-57736047D01*
X131393044Y-57736047D02*
X131202568Y-57736047D01*
X131821616Y-57640809D02*
X132154949Y-57640809D01*
X132297806Y-58164619D02*
X131821616Y-58164619D01*
X131821616Y-58164619D02*
X131821616Y-57164619D01*
X131821616Y-57164619D02*
X132297806Y-57164619D01*
X133297806Y-58164619D02*
X132964473Y-57688428D01*
X132726378Y-58164619D02*
X132726378Y-57164619D01*
X132726378Y-57164619D02*
X133107330Y-57164619D01*
X133107330Y-57164619D02*
X133202568Y-57212238D01*
X133202568Y-57212238D02*
X133250187Y-57259857D01*
X133250187Y-57259857D02*
X133297806Y-57355095D01*
X133297806Y-57355095D02*
X133297806Y-57497952D01*
X133297806Y-57497952D02*
X133250187Y-57593190D01*
X133250187Y-57593190D02*
X133202568Y-57640809D01*
X133202568Y-57640809D02*
X133107330Y-57688428D01*
X133107330Y-57688428D02*
X132726378Y-57688428D01*
X147664619Y-108997431D02*
X146664619Y-108997431D01*
X147664619Y-108521241D02*
X146664619Y-108521241D01*
X146664619Y-108521241D02*
X147664619Y-107949813D01*
X147664619Y-107949813D02*
X146664619Y-107949813D01*
X146664619Y-107616479D02*
X146664619Y-107045051D01*
X147664619Y-107330765D02*
X146664619Y-107330765D01*
X147140809Y-106711717D02*
X147140809Y-106378384D01*
X147664619Y-106235527D02*
X147664619Y-106711717D01*
X147664619Y-106711717D02*
X146664619Y-106711717D01*
X146664619Y-106711717D02*
X146664619Y-106235527D01*
X147664619Y-105235527D02*
X147188428Y-105568860D01*
X147664619Y-105806955D02*
X146664619Y-105806955D01*
X146664619Y-105806955D02*
X146664619Y-105426003D01*
X146664619Y-105426003D02*
X146712238Y-105330765D01*
X146712238Y-105330765D02*
X146759857Y-105283146D01*
X146759857Y-105283146D02*
X146855095Y-105235527D01*
X146855095Y-105235527D02*
X146997952Y-105235527D01*
X146997952Y-105235527D02*
X147093190Y-105283146D01*
X147093190Y-105283146D02*
X147140809Y-105330765D01*
X147140809Y-105330765D02*
X147188428Y-105426003D01*
X147188428Y-105426003D02*
X147188428Y-105806955D01*
X147140809Y-104473622D02*
X147140809Y-104806955D01*
X147664619Y-104806955D02*
X146664619Y-104806955D01*
X146664619Y-104806955D02*
X146664619Y-104330765D01*
X147378904Y-103997431D02*
X147378904Y-103521241D01*
X147664619Y-104092669D02*
X146664619Y-103759336D01*
X146664619Y-103759336D02*
X147664619Y-103426003D01*
X147569380Y-102521241D02*
X147617000Y-102568860D01*
X147617000Y-102568860D02*
X147664619Y-102711717D01*
X147664619Y-102711717D02*
X147664619Y-102806955D01*
X147664619Y-102806955D02*
X147617000Y-102949812D01*
X147617000Y-102949812D02*
X147521761Y-103045050D01*
X147521761Y-103045050D02*
X147426523Y-103092669D01*
X147426523Y-103092669D02*
X147236047Y-103140288D01*
X147236047Y-103140288D02*
X147093190Y-103140288D01*
X147093190Y-103140288D02*
X146902714Y-103092669D01*
X146902714Y-103092669D02*
X146807476Y-103045050D01*
X146807476Y-103045050D02*
X146712238Y-102949812D01*
X146712238Y-102949812D02*
X146664619Y-102806955D01*
X146664619Y-102806955D02*
X146664619Y-102711717D01*
X146664619Y-102711717D02*
X146712238Y-102568860D01*
X146712238Y-102568860D02*
X146759857Y-102521241D01*
X147140809Y-102092669D02*
X147140809Y-101759336D01*
X147664619Y-101616479D02*
X147664619Y-102092669D01*
X147664619Y-102092669D02*
X146664619Y-102092669D01*
X146664619Y-102092669D02*
X146664619Y-101616479D01*
X141135901Y-126040809D02*
X141278758Y-126088428D01*
X141278758Y-126088428D02*
X141326377Y-126136047D01*
X141326377Y-126136047D02*
X141373996Y-126231285D01*
X141373996Y-126231285D02*
X141373996Y-126374142D01*
X141373996Y-126374142D02*
X141326377Y-126469380D01*
X141326377Y-126469380D02*
X141278758Y-126517000D01*
X141278758Y-126517000D02*
X141183520Y-126564619D01*
X141183520Y-126564619D02*
X140802568Y-126564619D01*
X140802568Y-126564619D02*
X140802568Y-125564619D01*
X140802568Y-125564619D02*
X141135901Y-125564619D01*
X141135901Y-125564619D02*
X141231139Y-125612238D01*
X141231139Y-125612238D02*
X141278758Y-125659857D01*
X141278758Y-125659857D02*
X141326377Y-125755095D01*
X141326377Y-125755095D02*
X141326377Y-125850333D01*
X141326377Y-125850333D02*
X141278758Y-125945571D01*
X141278758Y-125945571D02*
X141231139Y-125993190D01*
X141231139Y-125993190D02*
X141135901Y-126040809D01*
X141135901Y-126040809D02*
X140802568Y-126040809D01*
X141993044Y-125564619D02*
X142183520Y-125564619D01*
X142183520Y-125564619D02*
X142278758Y-125612238D01*
X142278758Y-125612238D02*
X142373996Y-125707476D01*
X142373996Y-125707476D02*
X142421615Y-125897952D01*
X142421615Y-125897952D02*
X142421615Y-126231285D01*
X142421615Y-126231285D02*
X142373996Y-126421761D01*
X142373996Y-126421761D02*
X142278758Y-126517000D01*
X142278758Y-126517000D02*
X142183520Y-126564619D01*
X142183520Y-126564619D02*
X141993044Y-126564619D01*
X141993044Y-126564619D02*
X141897806Y-126517000D01*
X141897806Y-126517000D02*
X141802568Y-126421761D01*
X141802568Y-126421761D02*
X141754949Y-126231285D01*
X141754949Y-126231285D02*
X141754949Y-125897952D01*
X141754949Y-125897952D02*
X141802568Y-125707476D01*
X141802568Y-125707476D02*
X141897806Y-125612238D01*
X141897806Y-125612238D02*
X141993044Y-125564619D01*
X143040663Y-125564619D02*
X143231139Y-125564619D01*
X143231139Y-125564619D02*
X143326377Y-125612238D01*
X143326377Y-125612238D02*
X143421615Y-125707476D01*
X143421615Y-125707476D02*
X143469234Y-125897952D01*
X143469234Y-125897952D02*
X143469234Y-126231285D01*
X143469234Y-126231285D02*
X143421615Y-126421761D01*
X143421615Y-126421761D02*
X143326377Y-126517000D01*
X143326377Y-126517000D02*
X143231139Y-126564619D01*
X143231139Y-126564619D02*
X143040663Y-126564619D01*
X143040663Y-126564619D02*
X142945425Y-126517000D01*
X142945425Y-126517000D02*
X142850187Y-126421761D01*
X142850187Y-126421761D02*
X142802568Y-126231285D01*
X142802568Y-126231285D02*
X142802568Y-125897952D01*
X142802568Y-125897952D02*
X142850187Y-125707476D01*
X142850187Y-125707476D02*
X142945425Y-125612238D01*
X142945425Y-125612238D02*
X143040663Y-125564619D01*
X143754949Y-125564619D02*
X144326377Y-125564619D01*
X144040663Y-126564619D02*
X144040663Y-125564619D01*
X144850187Y-125564619D02*
X144945425Y-125564619D01*
X144945425Y-125564619D02*
X145040663Y-125612238D01*
X145040663Y-125612238D02*
X145088282Y-125659857D01*
X145088282Y-125659857D02*
X145135901Y-125755095D01*
X145135901Y-125755095D02*
X145183520Y-125945571D01*
X145183520Y-125945571D02*
X145183520Y-126183666D01*
X145183520Y-126183666D02*
X145135901Y-126374142D01*
X145135901Y-126374142D02*
X145088282Y-126469380D01*
X145088282Y-126469380D02*
X145040663Y-126517000D01*
X145040663Y-126517000D02*
X144945425Y-126564619D01*
X144945425Y-126564619D02*
X144850187Y-126564619D01*
X144850187Y-126564619D02*
X144754949Y-126517000D01*
X144754949Y-126517000D02*
X144707330Y-126469380D01*
X144707330Y-126469380D02*
X144659711Y-126374142D01*
X144659711Y-126374142D02*
X144612092Y-126183666D01*
X144612092Y-126183666D02*
X144612092Y-125945571D01*
X144612092Y-125945571D02*
X144659711Y-125755095D01*
X144659711Y-125755095D02*
X144707330Y-125659857D01*
X144707330Y-125659857D02*
X144754949Y-125612238D01*
X144754949Y-125612238D02*
X144850187Y-125564619D01*
X146373997Y-126564619D02*
X146373997Y-125564619D01*
X147564472Y-125517000D02*
X146707330Y-126802714D01*
X148088282Y-125564619D02*
X148278758Y-125564619D01*
X148278758Y-125564619D02*
X148373996Y-125612238D01*
X148373996Y-125612238D02*
X148469234Y-125707476D01*
X148469234Y-125707476D02*
X148516853Y-125897952D01*
X148516853Y-125897952D02*
X148516853Y-126231285D01*
X148516853Y-126231285D02*
X148469234Y-126421761D01*
X148469234Y-126421761D02*
X148373996Y-126517000D01*
X148373996Y-126517000D02*
X148278758Y-126564619D01*
X148278758Y-126564619D02*
X148088282Y-126564619D01*
X148088282Y-126564619D02*
X147993044Y-126517000D01*
X147993044Y-126517000D02*
X147897806Y-126421761D01*
X147897806Y-126421761D02*
X147850187Y-126231285D01*
X147850187Y-126231285D02*
X147850187Y-125897952D01*
X147850187Y-125897952D02*
X147897806Y-125707476D01*
X147897806Y-125707476D02*
X147993044Y-125612238D01*
X147993044Y-125612238D02*
X148088282Y-125564619D01*
X125178758Y-122464619D02*
X124702568Y-122464619D01*
X124702568Y-122464619D02*
X124702568Y-121464619D01*
X125702568Y-121464619D02*
X125893044Y-121464619D01*
X125893044Y-121464619D02*
X125988282Y-121512238D01*
X125988282Y-121512238D02*
X126083520Y-121607476D01*
X126083520Y-121607476D02*
X126131139Y-121797952D01*
X126131139Y-121797952D02*
X126131139Y-122131285D01*
X126131139Y-122131285D02*
X126083520Y-122321761D01*
X126083520Y-122321761D02*
X125988282Y-122417000D01*
X125988282Y-122417000D02*
X125893044Y-122464619D01*
X125893044Y-122464619D02*
X125702568Y-122464619D01*
X125702568Y-122464619D02*
X125607330Y-122417000D01*
X125607330Y-122417000D02*
X125512092Y-122321761D01*
X125512092Y-122321761D02*
X125464473Y-122131285D01*
X125464473Y-122131285D02*
X125464473Y-121797952D01*
X125464473Y-121797952D02*
X125512092Y-121607476D01*
X125512092Y-121607476D02*
X125607330Y-121512238D01*
X125607330Y-121512238D02*
X125702568Y-121464619D01*
X127083520Y-121512238D02*
X126988282Y-121464619D01*
X126988282Y-121464619D02*
X126845425Y-121464619D01*
X126845425Y-121464619D02*
X126702568Y-121512238D01*
X126702568Y-121512238D02*
X126607330Y-121607476D01*
X126607330Y-121607476D02*
X126559711Y-121702714D01*
X126559711Y-121702714D02*
X126512092Y-121893190D01*
X126512092Y-121893190D02*
X126512092Y-122036047D01*
X126512092Y-122036047D02*
X126559711Y-122226523D01*
X126559711Y-122226523D02*
X126607330Y-122321761D01*
X126607330Y-122321761D02*
X126702568Y-122417000D01*
X126702568Y-122417000D02*
X126845425Y-122464619D01*
X126845425Y-122464619D02*
X126940663Y-122464619D01*
X126940663Y-122464619D02*
X127083520Y-122417000D01*
X127083520Y-122417000D02*
X127131139Y-122369380D01*
X127131139Y-122369380D02*
X127131139Y-122036047D01*
X127131139Y-122036047D02*
X126940663Y-122036047D01*
X127559711Y-122464619D02*
X127559711Y-121464619D01*
X128607329Y-122369380D02*
X128559710Y-122417000D01*
X128559710Y-122417000D02*
X128416853Y-122464619D01*
X128416853Y-122464619D02*
X128321615Y-122464619D01*
X128321615Y-122464619D02*
X128178758Y-122417000D01*
X128178758Y-122417000D02*
X128083520Y-122321761D01*
X128083520Y-122321761D02*
X128035901Y-122226523D01*
X128035901Y-122226523D02*
X127988282Y-122036047D01*
X127988282Y-122036047D02*
X127988282Y-121893190D01*
X127988282Y-121893190D02*
X128035901Y-121702714D01*
X128035901Y-121702714D02*
X128083520Y-121607476D01*
X128083520Y-121607476D02*
X128178758Y-121512238D01*
X128178758Y-121512238D02*
X128321615Y-121464619D01*
X128321615Y-121464619D02*
X128416853Y-121464619D01*
X128416853Y-121464619D02*
X128559710Y-121512238D01*
X128559710Y-121512238D02*
X128607329Y-121559857D01*
X129750187Y-122178904D02*
X130226377Y-122178904D01*
X129654949Y-122464619D02*
X129988282Y-121464619D01*
X129988282Y-121464619D02*
X130321615Y-122464619D01*
X130654949Y-122464619D02*
X130654949Y-121464619D01*
X130654949Y-121464619D02*
X131226377Y-122464619D01*
X131226377Y-122464619D02*
X131226377Y-121464619D01*
X131654949Y-122178904D02*
X132131139Y-122178904D01*
X131559711Y-122464619D02*
X131893044Y-121464619D01*
X131893044Y-121464619D02*
X132226377Y-122464619D01*
X133035901Y-122464619D02*
X132559711Y-122464619D01*
X132559711Y-122464619D02*
X132559711Y-121464619D01*
X133559711Y-121988428D02*
X133559711Y-122464619D01*
X133226378Y-121464619D02*
X133559711Y-121988428D01*
X133559711Y-121988428D02*
X133893044Y-121464619D01*
X134131140Y-121464619D02*
X134797806Y-121464619D01*
X134797806Y-121464619D02*
X134131140Y-122464619D01*
X134131140Y-122464619D02*
X134797806Y-122464619D01*
X135178759Y-121940809D02*
X135512092Y-121940809D01*
X135654949Y-122464619D02*
X135178759Y-122464619D01*
X135178759Y-122464619D02*
X135178759Y-121464619D01*
X135178759Y-121464619D02*
X135654949Y-121464619D01*
X136654949Y-122464619D02*
X136321616Y-121988428D01*
X136083521Y-122464619D02*
X136083521Y-121464619D01*
X136083521Y-121464619D02*
X136464473Y-121464619D01*
X136464473Y-121464619D02*
X136559711Y-121512238D01*
X136559711Y-121512238D02*
X136607330Y-121559857D01*
X136607330Y-121559857D02*
X136654949Y-121655095D01*
X136654949Y-121655095D02*
X136654949Y-121797952D01*
X136654949Y-121797952D02*
X136607330Y-121893190D01*
X136607330Y-121893190D02*
X136559711Y-121940809D01*
X136559711Y-121940809D02*
X136464473Y-121988428D01*
X136464473Y-121988428D02*
X136083521Y-121988428D01*
X103535901Y-57640809D02*
X103202568Y-57640809D01*
X103202568Y-58164619D02*
X103202568Y-57164619D01*
X103202568Y-57164619D02*
X103678758Y-57164619D01*
X104059711Y-57164619D02*
X104059711Y-57974142D01*
X104059711Y-57974142D02*
X104107330Y-58069380D01*
X104107330Y-58069380D02*
X104154949Y-58117000D01*
X104154949Y-58117000D02*
X104250187Y-58164619D01*
X104250187Y-58164619D02*
X104440663Y-58164619D01*
X104440663Y-58164619D02*
X104535901Y-58117000D01*
X104535901Y-58117000D02*
X104583520Y-58069380D01*
X104583520Y-58069380D02*
X104631139Y-57974142D01*
X104631139Y-57974142D02*
X104631139Y-57164619D01*
X105107330Y-58164619D02*
X105107330Y-57164619D01*
X105107330Y-57164619D02*
X105678758Y-58164619D01*
X105678758Y-58164619D02*
X105678758Y-57164619D01*
X106726377Y-58069380D02*
X106678758Y-58117000D01*
X106678758Y-58117000D02*
X106535901Y-58164619D01*
X106535901Y-58164619D02*
X106440663Y-58164619D01*
X106440663Y-58164619D02*
X106297806Y-58117000D01*
X106297806Y-58117000D02*
X106202568Y-58021761D01*
X106202568Y-58021761D02*
X106154949Y-57926523D01*
X106154949Y-57926523D02*
X106107330Y-57736047D01*
X106107330Y-57736047D02*
X106107330Y-57593190D01*
X106107330Y-57593190D02*
X106154949Y-57402714D01*
X106154949Y-57402714D02*
X106202568Y-57307476D01*
X106202568Y-57307476D02*
X106297806Y-57212238D01*
X106297806Y-57212238D02*
X106440663Y-57164619D01*
X106440663Y-57164619D02*
X106535901Y-57164619D01*
X106535901Y-57164619D02*
X106678758Y-57212238D01*
X106678758Y-57212238D02*
X106726377Y-57259857D01*
X107012092Y-57164619D02*
X107583520Y-57164619D01*
X107297806Y-58164619D02*
X107297806Y-57164619D01*
X107916854Y-58164619D02*
X107916854Y-57164619D01*
X108583520Y-57164619D02*
X108773996Y-57164619D01*
X108773996Y-57164619D02*
X108869234Y-57212238D01*
X108869234Y-57212238D02*
X108964472Y-57307476D01*
X108964472Y-57307476D02*
X109012091Y-57497952D01*
X109012091Y-57497952D02*
X109012091Y-57831285D01*
X109012091Y-57831285D02*
X108964472Y-58021761D01*
X108964472Y-58021761D02*
X108869234Y-58117000D01*
X108869234Y-58117000D02*
X108773996Y-58164619D01*
X108773996Y-58164619D02*
X108583520Y-58164619D01*
X108583520Y-58164619D02*
X108488282Y-58117000D01*
X108488282Y-58117000D02*
X108393044Y-58021761D01*
X108393044Y-58021761D02*
X108345425Y-57831285D01*
X108345425Y-57831285D02*
X108345425Y-57497952D01*
X108345425Y-57497952D02*
X108393044Y-57307476D01*
X108393044Y-57307476D02*
X108488282Y-57212238D01*
X108488282Y-57212238D02*
X108583520Y-57164619D01*
X109440663Y-58164619D02*
X109440663Y-57164619D01*
X109440663Y-57164619D02*
X110012091Y-58164619D01*
X110012091Y-58164619D02*
X110012091Y-57164619D01*
X111773996Y-57212238D02*
X111678758Y-57164619D01*
X111678758Y-57164619D02*
X111535901Y-57164619D01*
X111535901Y-57164619D02*
X111393044Y-57212238D01*
X111393044Y-57212238D02*
X111297806Y-57307476D01*
X111297806Y-57307476D02*
X111250187Y-57402714D01*
X111250187Y-57402714D02*
X111202568Y-57593190D01*
X111202568Y-57593190D02*
X111202568Y-57736047D01*
X111202568Y-57736047D02*
X111250187Y-57926523D01*
X111250187Y-57926523D02*
X111297806Y-58021761D01*
X111297806Y-58021761D02*
X111393044Y-58117000D01*
X111393044Y-58117000D02*
X111535901Y-58164619D01*
X111535901Y-58164619D02*
X111631139Y-58164619D01*
X111631139Y-58164619D02*
X111773996Y-58117000D01*
X111773996Y-58117000D02*
X111821615Y-58069380D01*
X111821615Y-58069380D02*
X111821615Y-57736047D01*
X111821615Y-57736047D02*
X111631139Y-57736047D01*
X112250187Y-57640809D02*
X112583520Y-57640809D01*
X112726377Y-58164619D02*
X112250187Y-58164619D01*
X112250187Y-58164619D02*
X112250187Y-57164619D01*
X112250187Y-57164619D02*
X112726377Y-57164619D01*
X113154949Y-58164619D02*
X113154949Y-57164619D01*
X113154949Y-57164619D02*
X113726377Y-58164619D01*
X113726377Y-58164619D02*
X113726377Y-57164619D01*
X106002568Y-122464619D02*
X106002568Y-121464619D01*
X106002568Y-121464619D02*
X106335901Y-122178904D01*
X106335901Y-122178904D02*
X106669234Y-121464619D01*
X106669234Y-121464619D02*
X106669234Y-122464619D01*
X107145425Y-121464619D02*
X107145425Y-122274142D01*
X107145425Y-122274142D02*
X107193044Y-122369380D01*
X107193044Y-122369380D02*
X107240663Y-122417000D01*
X107240663Y-122417000D02*
X107335901Y-122464619D01*
X107335901Y-122464619D02*
X107526377Y-122464619D01*
X107526377Y-122464619D02*
X107621615Y-122417000D01*
X107621615Y-122417000D02*
X107669234Y-122369380D01*
X107669234Y-122369380D02*
X107716853Y-122274142D01*
X107716853Y-122274142D02*
X107716853Y-121464619D01*
X108669234Y-122464619D02*
X108193044Y-122464619D01*
X108193044Y-122464619D02*
X108193044Y-121464619D01*
X108859711Y-121464619D02*
X109431139Y-121464619D01*
X109145425Y-122464619D02*
X109145425Y-121464619D01*
X109764473Y-122464619D02*
X109764473Y-121464619D01*
X110240663Y-122464619D02*
X110240663Y-121464619D01*
X110240663Y-121464619D02*
X110573996Y-122178904D01*
X110573996Y-122178904D02*
X110907329Y-121464619D01*
X110907329Y-121464619D02*
X110907329Y-122464619D01*
X111383520Y-121940809D02*
X111716853Y-121940809D01*
X111859710Y-122464619D02*
X111383520Y-122464619D01*
X111383520Y-122464619D02*
X111383520Y-121464619D01*
X111383520Y-121464619D02*
X111859710Y-121464619D01*
X112145425Y-121464619D02*
X112716853Y-121464619D01*
X112431139Y-122464619D02*
X112431139Y-121464619D01*
X113050187Y-121940809D02*
X113383520Y-121940809D01*
X113526377Y-122464619D02*
X113050187Y-122464619D01*
X113050187Y-122464619D02*
X113050187Y-121464619D01*
X113050187Y-121464619D02*
X113526377Y-121464619D01*
X114526377Y-122464619D02*
X114193044Y-121988428D01*
X113954949Y-122464619D02*
X113954949Y-121464619D01*
X113954949Y-121464619D02*
X114335901Y-121464619D01*
X114335901Y-121464619D02*
X114431139Y-121512238D01*
X114431139Y-121512238D02*
X114478758Y-121559857D01*
X114478758Y-121559857D02*
X114526377Y-121655095D01*
X114526377Y-121655095D02*
X114526377Y-121797952D01*
X114526377Y-121797952D02*
X114478758Y-121893190D01*
X114478758Y-121893190D02*
X114431139Y-121940809D01*
X114431139Y-121940809D02*
X114335901Y-121988428D01*
X114335901Y-121988428D02*
X113954949Y-121988428D01*
X83773996Y-57669380D02*
X83726377Y-57717000D01*
X83726377Y-57717000D02*
X83583520Y-57764619D01*
X83583520Y-57764619D02*
X83488282Y-57764619D01*
X83488282Y-57764619D02*
X83345425Y-57717000D01*
X83345425Y-57717000D02*
X83250187Y-57621761D01*
X83250187Y-57621761D02*
X83202568Y-57526523D01*
X83202568Y-57526523D02*
X83154949Y-57336047D01*
X83154949Y-57336047D02*
X83154949Y-57193190D01*
X83154949Y-57193190D02*
X83202568Y-57002714D01*
X83202568Y-57002714D02*
X83250187Y-56907476D01*
X83250187Y-56907476D02*
X83345425Y-56812238D01*
X83345425Y-56812238D02*
X83488282Y-56764619D01*
X83488282Y-56764619D02*
X83583520Y-56764619D01*
X83583520Y-56764619D02*
X83726377Y-56812238D01*
X83726377Y-56812238D02*
X83773996Y-56859857D01*
X84393044Y-56764619D02*
X84583520Y-56764619D01*
X84583520Y-56764619D02*
X84678758Y-56812238D01*
X84678758Y-56812238D02*
X84773996Y-56907476D01*
X84773996Y-56907476D02*
X84821615Y-57097952D01*
X84821615Y-57097952D02*
X84821615Y-57431285D01*
X84821615Y-57431285D02*
X84773996Y-57621761D01*
X84773996Y-57621761D02*
X84678758Y-57717000D01*
X84678758Y-57717000D02*
X84583520Y-57764619D01*
X84583520Y-57764619D02*
X84393044Y-57764619D01*
X84393044Y-57764619D02*
X84297806Y-57717000D01*
X84297806Y-57717000D02*
X84202568Y-57621761D01*
X84202568Y-57621761D02*
X84154949Y-57431285D01*
X84154949Y-57431285D02*
X84154949Y-57097952D01*
X84154949Y-57097952D02*
X84202568Y-56907476D01*
X84202568Y-56907476D02*
X84297806Y-56812238D01*
X84297806Y-56812238D02*
X84393044Y-56764619D01*
X85250187Y-57764619D02*
X85250187Y-56764619D01*
X85250187Y-56764619D02*
X85583520Y-57478904D01*
X85583520Y-57478904D02*
X85916853Y-56764619D01*
X85916853Y-56764619D02*
X85916853Y-57764619D01*
X86393044Y-57764619D02*
X86393044Y-56764619D01*
X86393044Y-56764619D02*
X86773996Y-56764619D01*
X86773996Y-56764619D02*
X86869234Y-56812238D01*
X86869234Y-56812238D02*
X86916853Y-56859857D01*
X86916853Y-56859857D02*
X86964472Y-56955095D01*
X86964472Y-56955095D02*
X86964472Y-57097952D01*
X86964472Y-57097952D02*
X86916853Y-57193190D01*
X86916853Y-57193190D02*
X86869234Y-57240809D01*
X86869234Y-57240809D02*
X86773996Y-57288428D01*
X86773996Y-57288428D02*
X86393044Y-57288428D01*
X87583520Y-56764619D02*
X87773996Y-56764619D01*
X87773996Y-56764619D02*
X87869234Y-56812238D01*
X87869234Y-56812238D02*
X87964472Y-56907476D01*
X87964472Y-56907476D02*
X88012091Y-57097952D01*
X88012091Y-57097952D02*
X88012091Y-57431285D01*
X88012091Y-57431285D02*
X87964472Y-57621761D01*
X87964472Y-57621761D02*
X87869234Y-57717000D01*
X87869234Y-57717000D02*
X87773996Y-57764619D01*
X87773996Y-57764619D02*
X87583520Y-57764619D01*
X87583520Y-57764619D02*
X87488282Y-57717000D01*
X87488282Y-57717000D02*
X87393044Y-57621761D01*
X87393044Y-57621761D02*
X87345425Y-57431285D01*
X87345425Y-57431285D02*
X87345425Y-57097952D01*
X87345425Y-57097952D02*
X87393044Y-56907476D01*
X87393044Y-56907476D02*
X87488282Y-56812238D01*
X87488282Y-56812238D02*
X87583520Y-56764619D01*
X88440663Y-57764619D02*
X88440663Y-56764619D01*
X88440663Y-56764619D02*
X89012091Y-57764619D01*
X89012091Y-57764619D02*
X89012091Y-56764619D01*
X89488282Y-57240809D02*
X89821615Y-57240809D01*
X89964472Y-57764619D02*
X89488282Y-57764619D01*
X89488282Y-57764619D02*
X89488282Y-56764619D01*
X89488282Y-56764619D02*
X89964472Y-56764619D01*
X90393044Y-57764619D02*
X90393044Y-56764619D01*
X90393044Y-56764619D02*
X90964472Y-57764619D01*
X90964472Y-57764619D02*
X90964472Y-56764619D01*
X91297806Y-56764619D02*
X91869234Y-56764619D01*
X91583520Y-57764619D02*
X91583520Y-56764619D01*
X92821616Y-56764619D02*
X93393044Y-56764619D01*
X93107330Y-57764619D02*
X93107330Y-56764619D01*
X93726378Y-57240809D02*
X94059711Y-57240809D01*
X94202568Y-57764619D02*
X93726378Y-57764619D01*
X93726378Y-57764619D02*
X93726378Y-56764619D01*
X93726378Y-56764619D02*
X94202568Y-56764619D01*
X94583521Y-57717000D02*
X94726378Y-57764619D01*
X94726378Y-57764619D02*
X94964473Y-57764619D01*
X94964473Y-57764619D02*
X95059711Y-57717000D01*
X95059711Y-57717000D02*
X95107330Y-57669380D01*
X95107330Y-57669380D02*
X95154949Y-57574142D01*
X95154949Y-57574142D02*
X95154949Y-57478904D01*
X95154949Y-57478904D02*
X95107330Y-57383666D01*
X95107330Y-57383666D02*
X95059711Y-57336047D01*
X95059711Y-57336047D02*
X94964473Y-57288428D01*
X94964473Y-57288428D02*
X94773997Y-57240809D01*
X94773997Y-57240809D02*
X94678759Y-57193190D01*
X94678759Y-57193190D02*
X94631140Y-57145571D01*
X94631140Y-57145571D02*
X94583521Y-57050333D01*
X94583521Y-57050333D02*
X94583521Y-56955095D01*
X94583521Y-56955095D02*
X94631140Y-56859857D01*
X94631140Y-56859857D02*
X94678759Y-56812238D01*
X94678759Y-56812238D02*
X94773997Y-56764619D01*
X94773997Y-56764619D02*
X95012092Y-56764619D01*
X95012092Y-56764619D02*
X95154949Y-56812238D01*
X95440664Y-56764619D02*
X96012092Y-56764619D01*
X95726378Y-57764619D02*
X95726378Y-56764619D01*
X96345426Y-57240809D02*
X96678759Y-57240809D01*
X96821616Y-57764619D02*
X96345426Y-57764619D01*
X96345426Y-57764619D02*
X96345426Y-56764619D01*
X96345426Y-56764619D02*
X96821616Y-56764619D01*
X97821616Y-57764619D02*
X97488283Y-57288428D01*
X97250188Y-57764619D02*
X97250188Y-56764619D01*
X97250188Y-56764619D02*
X97631140Y-56764619D01*
X97631140Y-56764619D02*
X97726378Y-56812238D01*
X97726378Y-56812238D02*
X97773997Y-56859857D01*
X97773997Y-56859857D02*
X97821616Y-56955095D01*
X97821616Y-56955095D02*
X97821616Y-57097952D01*
X97821616Y-57097952D02*
X97773997Y-57193190D01*
X97773997Y-57193190D02*
X97726378Y-57240809D01*
X97726378Y-57240809D02*
X97631140Y-57288428D01*
X97631140Y-57288428D02*
X97250188Y-57288428D01*
X88359711Y-121464619D02*
X88693044Y-122464619D01*
X88693044Y-122464619D02*
X89026377Y-121464619D01*
X89359711Y-122464619D02*
X89359711Y-121464619D01*
X89359711Y-121464619D02*
X89740663Y-121464619D01*
X89740663Y-121464619D02*
X89835901Y-121512238D01*
X89835901Y-121512238D02*
X89883520Y-121559857D01*
X89883520Y-121559857D02*
X89931139Y-121655095D01*
X89931139Y-121655095D02*
X89931139Y-121797952D01*
X89931139Y-121797952D02*
X89883520Y-121893190D01*
X89883520Y-121893190D02*
X89835901Y-121940809D01*
X89835901Y-121940809D02*
X89740663Y-121988428D01*
X89740663Y-121988428D02*
X89359711Y-121988428D01*
X90312092Y-122417000D02*
X90454949Y-122464619D01*
X90454949Y-122464619D02*
X90693044Y-122464619D01*
X90693044Y-122464619D02*
X90788282Y-122417000D01*
X90788282Y-122417000D02*
X90835901Y-122369380D01*
X90835901Y-122369380D02*
X90883520Y-122274142D01*
X90883520Y-122274142D02*
X90883520Y-122178904D01*
X90883520Y-122178904D02*
X90835901Y-122083666D01*
X90835901Y-122083666D02*
X90788282Y-122036047D01*
X90788282Y-122036047D02*
X90693044Y-121988428D01*
X90693044Y-121988428D02*
X90502568Y-121940809D01*
X90502568Y-121940809D02*
X90407330Y-121893190D01*
X90407330Y-121893190D02*
X90359711Y-121845571D01*
X90359711Y-121845571D02*
X90312092Y-121750333D01*
X90312092Y-121750333D02*
X90312092Y-121655095D01*
X90312092Y-121655095D02*
X90359711Y-121559857D01*
X90359711Y-121559857D02*
X90407330Y-121512238D01*
X90407330Y-121512238D02*
X90502568Y-121464619D01*
X90502568Y-121464619D02*
X90740663Y-121464619D01*
X90740663Y-121464619D02*
X90883520Y-121512238D01*
X91312092Y-121464619D02*
X91312092Y-122274142D01*
X91312092Y-122274142D02*
X91359711Y-122369380D01*
X91359711Y-122369380D02*
X91407330Y-122417000D01*
X91407330Y-122417000D02*
X91502568Y-122464619D01*
X91502568Y-122464619D02*
X91693044Y-122464619D01*
X91693044Y-122464619D02*
X91788282Y-122417000D01*
X91788282Y-122417000D02*
X91835901Y-122369380D01*
X91835901Y-122369380D02*
X91883520Y-122274142D01*
X91883520Y-122274142D02*
X91883520Y-121464619D01*
X152117000Y-120945050D02*
X152164619Y-120802193D01*
X152164619Y-120802193D02*
X152164619Y-120564098D01*
X152164619Y-120564098D02*
X152117000Y-120468860D01*
X152117000Y-120468860D02*
X152069380Y-120421241D01*
X152069380Y-120421241D02*
X151974142Y-120373622D01*
X151974142Y-120373622D02*
X151878904Y-120373622D01*
X151878904Y-120373622D02*
X151783666Y-120421241D01*
X151783666Y-120421241D02*
X151736047Y-120468860D01*
X151736047Y-120468860D02*
X151688428Y-120564098D01*
X151688428Y-120564098D02*
X151640809Y-120754574D01*
X151640809Y-120754574D02*
X151593190Y-120849812D01*
X151593190Y-120849812D02*
X151545571Y-120897431D01*
X151545571Y-120897431D02*
X151450333Y-120945050D01*
X151450333Y-120945050D02*
X151355095Y-120945050D01*
X151355095Y-120945050D02*
X151259857Y-120897431D01*
X151259857Y-120897431D02*
X151212238Y-120849812D01*
X151212238Y-120849812D02*
X151164619Y-120754574D01*
X151164619Y-120754574D02*
X151164619Y-120516479D01*
X151164619Y-120516479D02*
X151212238Y-120373622D01*
X151164619Y-120040288D02*
X152164619Y-119802193D01*
X152164619Y-119802193D02*
X151450333Y-119611717D01*
X151450333Y-119611717D02*
X152164619Y-119421241D01*
X152164619Y-119421241D02*
X151164619Y-119183146D01*
X152164619Y-118802193D02*
X151164619Y-118802193D01*
X151164619Y-118802193D02*
X151164619Y-118564098D01*
X151164619Y-118564098D02*
X151212238Y-118421241D01*
X151212238Y-118421241D02*
X151307476Y-118326003D01*
X151307476Y-118326003D02*
X151402714Y-118278384D01*
X151402714Y-118278384D02*
X151593190Y-118230765D01*
X151593190Y-118230765D02*
X151736047Y-118230765D01*
X151736047Y-118230765D02*
X151926523Y-118278384D01*
X151926523Y-118278384D02*
X152021761Y-118326003D01*
X152021761Y-118326003D02*
X152117000Y-118421241D01*
X152117000Y-118421241D02*
X152164619Y-118564098D01*
X152164619Y-118564098D02*
X152164619Y-118802193D01*
D13*
X145682142Y-96499580D02*
X145634523Y-96547200D01*
X145634523Y-96547200D02*
X145491666Y-96594819D01*
X145491666Y-96594819D02*
X145396428Y-96594819D01*
X145396428Y-96594819D02*
X145253571Y-96547200D01*
X145253571Y-96547200D02*
X145158333Y-96451961D01*
X145158333Y-96451961D02*
X145110714Y-96356723D01*
X145110714Y-96356723D02*
X145063095Y-96166247D01*
X145063095Y-96166247D02*
X145063095Y-96023390D01*
X145063095Y-96023390D02*
X145110714Y-95832914D01*
X145110714Y-95832914D02*
X145158333Y-95737676D01*
X145158333Y-95737676D02*
X145253571Y-95642438D01*
X145253571Y-95642438D02*
X145396428Y-95594819D01*
X145396428Y-95594819D02*
X145491666Y-95594819D01*
X145491666Y-95594819D02*
X145634523Y-95642438D01*
X145634523Y-95642438D02*
X145682142Y-95690057D01*
X146015476Y-95594819D02*
X146634523Y-95594819D01*
X146634523Y-95594819D02*
X146301190Y-95975771D01*
X146301190Y-95975771D02*
X146444047Y-95975771D01*
X146444047Y-95975771D02*
X146539285Y-96023390D01*
X146539285Y-96023390D02*
X146586904Y-96071009D01*
X146586904Y-96071009D02*
X146634523Y-96166247D01*
X146634523Y-96166247D02*
X146634523Y-96404342D01*
X146634523Y-96404342D02*
X146586904Y-96499580D01*
X146586904Y-96499580D02*
X146539285Y-96547200D01*
X146539285Y-96547200D02*
X146444047Y-96594819D01*
X146444047Y-96594819D02*
X146158333Y-96594819D01*
X146158333Y-96594819D02*
X146063095Y-96547200D01*
X146063095Y-96547200D02*
X146015476Y-96499580D01*
X147491666Y-95928152D02*
X147491666Y-96594819D01*
X147253571Y-95547200D02*
X147015476Y-96261485D01*
X147015476Y-96261485D02*
X147634523Y-96261485D01*
D14*
%TO.C,U26*%
X150902617Y-113350038D02*
X152968936Y-113350038D01*
X157231243Y-113350038D02*
X159802617Y-113350038D01*
X159802617Y-111962636D02*
X159802617Y-113350038D01*
X159802617Y-111962636D02*
X159802617Y-110349987D01*
X150902617Y-111081153D02*
X150902617Y-113350038D01*
X158975108Y-110349987D02*
X158975108Y-100349962D01*
X159802617Y-110349987D02*
X158975108Y-110349987D01*
X150902617Y-109081127D02*
X150902617Y-109618847D01*
X150902617Y-107081127D02*
X150902617Y-107618897D01*
X150902617Y-105081127D02*
X150902617Y-105618897D01*
X150902617Y-103081178D02*
X150902617Y-103618897D01*
X150902617Y-101081178D02*
X150902617Y-101618872D01*
X158975108Y-100349962D02*
X159775108Y-100349962D01*
X159775108Y-100349962D02*
X159775108Y-98572618D01*
X159775108Y-98572618D02*
X159792507Y-98572618D01*
X150892507Y-98330277D02*
X150892507Y-99614732D01*
X150892507Y-97345847D02*
X150892507Y-98330277D01*
X150892507Y-97345847D02*
X152545365Y-97345847D01*
X152545365Y-97345847D02*
X152958852Y-97345847D01*
X159792507Y-97345847D02*
X159792507Y-98753137D01*
X159792507Y-97345847D02*
X157221057Y-97345847D01*
D15*
X152875134Y-110850012D02*
X152125223Y-110350012D01*
X152875134Y-109850012D01*
X152875134Y-110850012D01*
G36*
X152875134Y-110850012D02*
G01*
X152125223Y-110350012D01*
X152875134Y-109850012D01*
X152875134Y-110850012D01*
G37*
D16*
%TO.C,G\u002A\u002A\u002A*%
G36*
X111562370Y-64958660D02*
G01*
X111686792Y-65018089D01*
X111830032Y-65119472D01*
X111994755Y-65264721D01*
X112183628Y-65455746D01*
X112201963Y-65475314D01*
X112384511Y-65674013D01*
X112576317Y-65888458D01*
X112774215Y-66114689D01*
X112975044Y-66348744D01*
X113175639Y-66586663D01*
X113372838Y-66824482D01*
X113563478Y-67058242D01*
X113744396Y-67283982D01*
X113912428Y-67497738D01*
X114064411Y-67695551D01*
X114197182Y-67873460D01*
X114307579Y-68027501D01*
X114392437Y-68153716D01*
X114448594Y-68248141D01*
X114472887Y-68306816D01*
X114472972Y-68319392D01*
X114460653Y-68362875D01*
X114437710Y-68445777D01*
X114407905Y-68554457D01*
X114387326Y-68629919D01*
X114336791Y-68807745D01*
X114293370Y-68940324D01*
X114253343Y-69036311D01*
X114212988Y-69104360D01*
X114168587Y-69153124D01*
X114158873Y-69161341D01*
X114112819Y-69218326D01*
X114112329Y-69267493D01*
X114147992Y-69301581D01*
X114210396Y-69313329D01*
X114290130Y-69295475D01*
X114316535Y-69282987D01*
X114356250Y-69238242D01*
X114404334Y-69144813D01*
X114458680Y-69007986D01*
X114517180Y-68833046D01*
X114555867Y-68700594D01*
X120337452Y-68700594D01*
X120364837Y-68748300D01*
X120446813Y-68799420D01*
X120468026Y-68809271D01*
X120672610Y-68899838D01*
X120833180Y-68968396D01*
X120955280Y-69016740D01*
X121044455Y-69046661D01*
X121106250Y-69059953D01*
X121146209Y-69058408D01*
X121169877Y-69043819D01*
X121174339Y-69037644D01*
X121182908Y-69004336D01*
X121163135Y-68969735D01*
X121109606Y-68930203D01*
X121016907Y-68882104D01*
X120879622Y-68821801D01*
X120810433Y-68793212D01*
X120640661Y-68725834D01*
X120514824Y-68681070D01*
X120427260Y-68657811D01*
X120372306Y-68654948D01*
X120344301Y-68671373D01*
X120337452Y-68700594D01*
X114555867Y-68700594D01*
X114575604Y-68633022D01*
X114659206Y-68381010D01*
X114774417Y-68108962D01*
X114912601Y-67834296D01*
X115065121Y-67574433D01*
X115193939Y-67385812D01*
X115253951Y-67307519D01*
X115328973Y-67213870D01*
X115411201Y-67114075D01*
X115492831Y-67017345D01*
X115566060Y-66932889D01*
X115623086Y-66869916D01*
X115656104Y-66837638D01*
X115660379Y-66835292D01*
X115687654Y-66817534D01*
X115743529Y-66771289D01*
X115816754Y-66705941D01*
X115829227Y-66694434D01*
X115981203Y-66566056D01*
X116160719Y-66433741D01*
X116345795Y-66312826D01*
X116502712Y-66224516D01*
X116825073Y-66087837D01*
X117183748Y-65982451D01*
X117569734Y-65908520D01*
X117974031Y-65866206D01*
X118387637Y-65855672D01*
X118801549Y-65877077D01*
X119206767Y-65930585D01*
X119594290Y-66016358D01*
X119955114Y-66134556D01*
X120021326Y-66161283D01*
X120178364Y-66225331D01*
X120296348Y-66269311D01*
X120385995Y-66296511D01*
X120458024Y-66310217D01*
X120518444Y-66313734D01*
X120659386Y-66294082D01*
X120766026Y-66239538D01*
X120833626Y-66156721D01*
X120857446Y-66052250D01*
X120832746Y-65932741D01*
X120816497Y-65897499D01*
X120773247Y-65813864D01*
X120905837Y-65831496D01*
X121312065Y-65912014D01*
X121716825Y-66043887D01*
X122112098Y-66223881D01*
X122489865Y-66448766D01*
X122564075Y-66499878D01*
X122710557Y-66612560D01*
X122878850Y-66757282D01*
X123058382Y-66923570D01*
X123238578Y-67100948D01*
X123408865Y-67278942D01*
X123558670Y-67447079D01*
X123677420Y-67594883D01*
X123698004Y-67623177D01*
X123764943Y-67719009D01*
X123817833Y-67797888D01*
X123849786Y-67849359D01*
X123856067Y-67863081D01*
X123831240Y-67872809D01*
X123767370Y-67879176D01*
X123709245Y-67880617D01*
X123484705Y-67906727D01*
X123279186Y-67983414D01*
X123097248Y-68108213D01*
X122943448Y-68278658D01*
X122925483Y-68304447D01*
X122875162Y-68382388D01*
X122829469Y-68462396D01*
X122784660Y-68553027D01*
X122736991Y-68662834D01*
X122682718Y-68800372D01*
X122618097Y-68974196D01*
X122551522Y-69158864D01*
X122460949Y-69407725D01*
X122382210Y-69611329D01*
X122311039Y-69776988D01*
X122243172Y-69912014D01*
X122174341Y-70023719D01*
X122100284Y-70119414D01*
X122016733Y-70206412D01*
X121919425Y-70292024D01*
X121864699Y-70336262D01*
X121708541Y-70471692D01*
X121571507Y-70618246D01*
X121445031Y-70787092D01*
X121320550Y-70989396D01*
X121219109Y-71178031D01*
X121050157Y-71555183D01*
X120929652Y-71932238D01*
X120857824Y-72305368D01*
X120834902Y-72670746D01*
X120861118Y-73024544D01*
X120936700Y-73362936D01*
X121061878Y-73682092D01*
X121068006Y-73694578D01*
X121230462Y-73962378D01*
X121437492Y-74204460D01*
X121682711Y-74415749D01*
X121959740Y-74591172D01*
X122262194Y-74725656D01*
X122432068Y-74778990D01*
X122707141Y-74838910D01*
X122991206Y-74875035D01*
X123261605Y-74884913D01*
X123369637Y-74880369D01*
X123494113Y-74874260D01*
X123570502Y-74876715D01*
X123595917Y-74887609D01*
X123594971Y-74890275D01*
X123557269Y-74926554D01*
X123481960Y-74981667D01*
X123380098Y-75048871D01*
X123262740Y-75121421D01*
X123140944Y-75192570D01*
X123025764Y-75255575D01*
X122928258Y-75303690D01*
X122892027Y-75319106D01*
X122744606Y-75384882D01*
X122648342Y-75449086D01*
X122599841Y-75516988D01*
X122595709Y-75593858D01*
X122632554Y-75684966D01*
X122643922Y-75704346D01*
X122693356Y-75814717D01*
X122734584Y-75962007D01*
X122764249Y-76128372D01*
X122778996Y-76295968D01*
X122777932Y-76416868D01*
X122747094Y-76609607D01*
X122683706Y-76785542D01*
X122593645Y-76930422D01*
X122544389Y-76983166D01*
X122450533Y-77047434D01*
X122311610Y-77112840D01*
X122137405Y-77176862D01*
X121937709Y-77236977D01*
X121722309Y-77290666D01*
X121500993Y-77335406D01*
X121283549Y-77368675D01*
X121079765Y-77387952D01*
X120958271Y-77391785D01*
X120740670Y-77391873D01*
X120532189Y-77177338D01*
X120426681Y-77062406D01*
X120318911Y-76934469D01*
X120225816Y-76814025D01*
X120191055Y-76764500D01*
X120093736Y-76634760D01*
X120000886Y-76549990D01*
X119900641Y-76502664D01*
X119781136Y-76485256D01*
X119749950Y-76484692D01*
X119668662Y-76479684D01*
X119555081Y-76466439D01*
X119430811Y-76447572D01*
X119402820Y-76442682D01*
X119264371Y-76419006D01*
X119117629Y-76395793D01*
X118992275Y-76377720D01*
X118982162Y-76376389D01*
X118865402Y-76356108D01*
X118723208Y-76324102D01*
X118582148Y-76286482D01*
X118551223Y-76277238D01*
X118408707Y-76237592D01*
X118310704Y-76221104D01*
X118251704Y-76228128D01*
X118226197Y-76259015D01*
X118225730Y-76298041D01*
X118242843Y-76337223D01*
X118288841Y-76369265D01*
X118375302Y-76401628D01*
X118396880Y-76408313D01*
X118501987Y-76442330D01*
X118570673Y-76474882D01*
X118619516Y-76519123D01*
X118665095Y-76588208D01*
X118697783Y-76647075D01*
X118738976Y-76726047D01*
X118755750Y-76777497D01*
X118750462Y-76821920D01*
X118725473Y-76879811D01*
X118724746Y-76881336D01*
X118667654Y-76958829D01*
X118567638Y-77049712D01*
X118433201Y-77147923D01*
X118272842Y-77247403D01*
X118095061Y-77342092D01*
X118044308Y-77366457D01*
X117925007Y-77421355D01*
X117842132Y-77454462D01*
X117782584Y-77467857D01*
X117733262Y-77463622D01*
X117681068Y-77443834D01*
X117650325Y-77429018D01*
X117596827Y-77392173D01*
X117517041Y-77324317D01*
X117421703Y-77235086D01*
X117321546Y-77134113D01*
X117320455Y-77132970D01*
X117111283Y-76895061D01*
X116891890Y-76611136D01*
X116666032Y-76288356D01*
X116437461Y-75933877D01*
X116209931Y-75554858D01*
X115987195Y-75158457D01*
X115773009Y-74751833D01*
X115571125Y-74342143D01*
X115385296Y-73936546D01*
X115219278Y-73542200D01*
X115076823Y-73166263D01*
X114961685Y-72815893D01*
X114877618Y-72498250D01*
X114868705Y-72457565D01*
X114837759Y-72312877D01*
X114814514Y-72212708D01*
X114794771Y-72147905D01*
X114774328Y-72109314D01*
X114748985Y-72087779D01*
X114714542Y-72074147D01*
X114689218Y-72066400D01*
X114609712Y-72051161D01*
X114554998Y-72066736D01*
X114547736Y-72071690D01*
X114516858Y-72120376D01*
X114529643Y-72173640D01*
X114580216Y-72212214D01*
X114591675Y-72215802D01*
X114637898Y-72253208D01*
X114661916Y-72330021D01*
X114701163Y-72524040D01*
X114761395Y-72755451D01*
X114838982Y-73012484D01*
X114930292Y-73283371D01*
X115031694Y-73556343D01*
X115070351Y-73653801D01*
X115110700Y-73756874D01*
X115140342Y-73838765D01*
X115155126Y-73887674D01*
X115155621Y-73896102D01*
X115123026Y-73893572D01*
X115066746Y-73856366D01*
X114997392Y-73792778D01*
X114936914Y-73725187D01*
X114791779Y-73523753D01*
X114650756Y-73283239D01*
X114521213Y-73019450D01*
X114410520Y-72748187D01*
X114326048Y-72485254D01*
X114291789Y-72341892D01*
X114246001Y-72116263D01*
X113943253Y-71805853D01*
X113592554Y-71423798D01*
X113268519Y-71022516D01*
X113229050Y-70966681D01*
X117733841Y-70966681D01*
X117746036Y-71229363D01*
X117783121Y-71505423D01*
X117842512Y-71778531D01*
X117921623Y-72032362D01*
X117975607Y-72164495D01*
X118051689Y-72316096D01*
X118123945Y-72429276D01*
X118189195Y-72500630D01*
X118244258Y-72526755D01*
X118285953Y-72504245D01*
X118288876Y-72499822D01*
X118285511Y-72462440D01*
X118257892Y-72399170D01*
X118240609Y-72369248D01*
X118112966Y-72120649D01*
X118012056Y-71833124D01*
X117940795Y-71517298D01*
X117902099Y-71183796D01*
X117898875Y-71124025D01*
X117894823Y-70890147D01*
X117900491Y-70798447D01*
X118189604Y-70798447D01*
X118190377Y-70985426D01*
X118205942Y-71182309D01*
X118208582Y-71204029D01*
X118231855Y-71370004D01*
X118258185Y-71507175D01*
X118292764Y-71633771D01*
X118340783Y-71768021D01*
X118407433Y-71928155D01*
X118428554Y-71976505D01*
X118506647Y-72145295D01*
X118570870Y-72263682D01*
X118622993Y-72333970D01*
X118664787Y-72358463D01*
X118698020Y-72339464D01*
X118702409Y-72332953D01*
X118700210Y-72294583D01*
X118677125Y-72214535D01*
X118636050Y-72100699D01*
X118579879Y-71960968D01*
X118511508Y-71803230D01*
X118493069Y-71762394D01*
X118427829Y-71588071D01*
X118382974Y-71392171D01*
X118356708Y-71164129D01*
X118347311Y-70904427D01*
X118347271Y-70746248D01*
X118349943Y-70657024D01*
X118646868Y-70657024D01*
X118653450Y-70925257D01*
X118675132Y-71158813D01*
X118714821Y-71376625D01*
X118775419Y-71597622D01*
X118805043Y-71687868D01*
X118857611Y-71838124D01*
X118900218Y-71948011D01*
X118938739Y-72029812D01*
X118979048Y-72095807D01*
X119027020Y-72158276D01*
X119034131Y-72166787D01*
X119098421Y-72227416D01*
X119146309Y-72239035D01*
X119174848Y-72201180D01*
X119177659Y-72189296D01*
X119168827Y-72141304D01*
X119136720Y-72069925D01*
X119115596Y-72033721D01*
X119031737Y-71872027D01*
X118954775Y-71669606D01*
X118887900Y-71440582D01*
X118834297Y-71199083D01*
X118797157Y-70959233D01*
X118779666Y-70735158D01*
X118783178Y-70560812D01*
X118795615Y-70409423D01*
X118803139Y-70304143D01*
X118805361Y-70236293D01*
X118801889Y-70197190D01*
X118792336Y-70178152D01*
X118776310Y-70170498D01*
X118765551Y-70168188D01*
X118722077Y-70172556D01*
X118689769Y-70208901D01*
X118667398Y-70282292D01*
X118653733Y-70397796D01*
X118647544Y-70560481D01*
X118646868Y-70657024D01*
X118349943Y-70657024D01*
X118350690Y-70632093D01*
X118358682Y-70551058D01*
X118372360Y-70492239D01*
X118392839Y-70444733D01*
X118394582Y-70441502D01*
X118427916Y-70355286D01*
X118421025Y-70297242D01*
X118374858Y-70272653D01*
X118364185Y-70272176D01*
X118309612Y-70298180D01*
X118263626Y-70371239D01*
X118227469Y-70483924D01*
X118202381Y-70628803D01*
X118189604Y-70798447D01*
X117900491Y-70798447D01*
X117906395Y-70702915D01*
X117934518Y-70556000D01*
X117980114Y-70443071D01*
X118003830Y-70405467D01*
X118041491Y-70330458D01*
X118039379Y-70275256D01*
X117999622Y-70249148D01*
X117968122Y-70249631D01*
X117909716Y-70284290D01*
X117854046Y-70365845D01*
X117804766Y-70486221D01*
X117765530Y-70637342D01*
X117749121Y-70733705D01*
X117733841Y-70966681D01*
X113229050Y-70966681D01*
X112965416Y-70593728D01*
X112677514Y-70129153D01*
X112543698Y-69884699D01*
X120261836Y-69884699D01*
X120274472Y-70107339D01*
X120334451Y-70322397D01*
X120427788Y-70499277D01*
X120534295Y-70623747D01*
X120649954Y-70698493D01*
X120770358Y-70722045D01*
X120891096Y-70692931D01*
X120934988Y-70668505D01*
X121024437Y-70578143D01*
X121084820Y-70442413D01*
X121115530Y-70262986D01*
X121119549Y-70162219D01*
X121108037Y-69952458D01*
X121068291Y-69779862D01*
X120996027Y-69632105D01*
X120888872Y-69498843D01*
X120815727Y-69426488D01*
X120760682Y-69386265D01*
X120705691Y-69368879D01*
X120632706Y-69365036D01*
X120629027Y-69365033D01*
X120506679Y-69386323D01*
X120410214Y-69452095D01*
X120336516Y-69565206D01*
X120298626Y-69667881D01*
X120261836Y-69884699D01*
X112543698Y-69884699D01*
X112399078Y-69620510D01*
X112312813Y-69450633D01*
X112001134Y-68772409D01*
X111737945Y-68084602D01*
X111524994Y-67392487D01*
X111364031Y-66701338D01*
X111318712Y-66451180D01*
X111293162Y-66270302D01*
X111273386Y-66073473D01*
X111259495Y-65869722D01*
X111251601Y-65668075D01*
X111249815Y-65477560D01*
X111254248Y-65307202D01*
X111265011Y-65166030D01*
X111282215Y-65063070D01*
X111301019Y-65013775D01*
X111349162Y-64960956D01*
X111414395Y-64940870D01*
X111454098Y-64939275D01*
X111562370Y-64958660D01*
G37*
G36*
X124527707Y-74147471D02*
G01*
X124538395Y-74214201D01*
X124541364Y-74287676D01*
X124539291Y-74337373D01*
X124526354Y-74380420D01*
X124495757Y-74424511D01*
X124440704Y-74477336D01*
X124354396Y-74546588D01*
X124230109Y-74639905D01*
X124122887Y-74717224D01*
X124051905Y-74762344D01*
X124011165Y-74778259D01*
X123994671Y-74767963D01*
X123993513Y-74758055D01*
X124011705Y-74726775D01*
X124057281Y-74675273D01*
X124077488Y-74655255D01*
X124128651Y-74598322D01*
X124199175Y-74509422D01*
X124278240Y-74402546D01*
X124329709Y-74329157D01*
X124410820Y-74214813D01*
X124468082Y-74146962D01*
X124505657Y-74124786D01*
X124527707Y-74147471D01*
G37*
G36*
X123834142Y-68065653D02*
G01*
X123925512Y-68076408D01*
X123981811Y-68092387D01*
X123982267Y-68092643D01*
X124015115Y-68128139D01*
X124065852Y-68203201D01*
X124128365Y-68307932D01*
X124196542Y-68432437D01*
X124219732Y-68477134D01*
X124304882Y-68645378D01*
X124365700Y-68770420D01*
X124404169Y-68857329D01*
X124422271Y-68911176D01*
X124421988Y-68937029D01*
X124405303Y-68939960D01*
X124399987Y-68938171D01*
X124350650Y-68941756D01*
X124310860Y-68962147D01*
X124277965Y-68993580D01*
X124274971Y-69031506D01*
X124295879Y-69090107D01*
X124340883Y-69175279D01*
X124398528Y-69257670D01*
X124400848Y-69260453D01*
X124468618Y-69340993D01*
X124361639Y-69451265D01*
X124272048Y-69529444D01*
X124156292Y-69611241D01*
X124032371Y-69685583D01*
X123918281Y-69741399D01*
X123854138Y-69763462D01*
X123805699Y-69767245D01*
X123764813Y-69743729D01*
X123715774Y-69683030D01*
X123707504Y-69671205D01*
X123629793Y-69577406D01*
X123564456Y-69535078D01*
X123514347Y-69543747D01*
X123482317Y-69602942D01*
X123471218Y-69710384D01*
X123471218Y-69857430D01*
X123271922Y-69865506D01*
X123168371Y-69871146D01*
X123107580Y-69880346D01*
X123077331Y-69897208D01*
X123065407Y-69925837D01*
X123063847Y-69935389D01*
X123078885Y-69992081D01*
X123137953Y-70029867D01*
X123233701Y-70049407D01*
X123358779Y-70051359D01*
X123505837Y-70036384D01*
X123667526Y-70005141D01*
X123836497Y-69958289D01*
X124005399Y-69896489D01*
X124129561Y-69839746D01*
X124259525Y-69764254D01*
X124389565Y-69672061D01*
X124481204Y-69593398D01*
X124628077Y-69450005D01*
X124654332Y-69519063D01*
X124683888Y-69610475D01*
X124719976Y-69743119D01*
X124759570Y-69904086D01*
X124799641Y-70080466D01*
X124837164Y-70259352D01*
X124869110Y-70427833D01*
X124873974Y-70455703D01*
X124903722Y-70670585D01*
X124926743Y-70921210D01*
X124942432Y-71191083D01*
X124950186Y-71463708D01*
X124949399Y-71722589D01*
X124939467Y-71951232D01*
X124931969Y-72038743D01*
X124861415Y-72521789D01*
X124752361Y-72982410D01*
X124606696Y-73416001D01*
X124426312Y-73817953D01*
X124213099Y-74183661D01*
X123968948Y-74508516D01*
X123875582Y-74612727D01*
X123809555Y-74682020D01*
X123760015Y-74732129D01*
X123737088Y-74752828D01*
X123736762Y-74752912D01*
X123714126Y-74736450D01*
X123696568Y-74719863D01*
X123658750Y-74704938D01*
X123578391Y-74695905D01*
X123451238Y-74692486D01*
X123299350Y-74693860D01*
X122936236Y-74683530D01*
X122609120Y-74636632D01*
X122311558Y-74551548D01*
X122037107Y-74426657D01*
X121894335Y-74340846D01*
X121738570Y-74224379D01*
X121581428Y-74081716D01*
X121437827Y-73928018D01*
X121322687Y-73778449D01*
X121289881Y-73726502D01*
X121154489Y-73442050D01*
X121065838Y-73134278D01*
X121023394Y-72807933D01*
X121026623Y-72467763D01*
X121074992Y-72118516D01*
X121167967Y-71764939D01*
X121305015Y-71411780D01*
X121485602Y-71063786D01*
X121611579Y-70863963D01*
X121673842Y-70774680D01*
X121731616Y-70701577D01*
X121795762Y-70633586D01*
X121877145Y-70559637D01*
X121986627Y-70468663D01*
X122048458Y-70418818D01*
X122151193Y-70330220D01*
X122241190Y-70236873D01*
X122322428Y-70131722D01*
X122398886Y-70007713D01*
X122474546Y-69857789D01*
X122553387Y-69674896D01*
X122639388Y-69451977D01*
X122720445Y-69227587D01*
X122814055Y-68970722D01*
X123225233Y-68970722D01*
X123232029Y-69062828D01*
X123235806Y-69079193D01*
X123267895Y-69133865D01*
X123316105Y-69140560D01*
X123355776Y-69110496D01*
X123374419Y-69056014D01*
X123368135Y-68986433D01*
X123342925Y-68922872D01*
X123304788Y-68886451D01*
X123291412Y-68883972D01*
X123246061Y-68907474D01*
X123225233Y-68970722D01*
X122814055Y-68970722D01*
X122815984Y-68965429D01*
X122901297Y-68750668D01*
X122979907Y-68577469D01*
X123055336Y-68439995D01*
X123111552Y-68360177D01*
X123832776Y-68360177D01*
X123843302Y-68415450D01*
X123885980Y-68458369D01*
X123943369Y-68481607D01*
X123998028Y-68477839D01*
X124031182Y-68443522D01*
X124024896Y-68393978D01*
X123985633Y-68341642D01*
X123931227Y-68304717D01*
X123889054Y-68298453D01*
X123845954Y-68329739D01*
X123832776Y-68360177D01*
X123111552Y-68360177D01*
X123131106Y-68332413D01*
X123210741Y-68248887D01*
X123297761Y-68183582D01*
X123377330Y-68139424D01*
X123486530Y-68093864D01*
X123593320Y-68070273D01*
X123725850Y-68062456D01*
X123727256Y-68062439D01*
X123834142Y-68065653D01*
G37*
G36*
X114674681Y-67866873D02*
G01*
X114660937Y-67880617D01*
X114647192Y-67866873D01*
X114660937Y-67853128D01*
X114674681Y-67866873D01*
G37*
G36*
X114612154Y-62142836D02*
G01*
X115015720Y-62194793D01*
X115437875Y-62285983D01*
X115874443Y-62414376D01*
X116321248Y-62577943D01*
X116774114Y-62774653D01*
X117228863Y-63002476D01*
X117681320Y-63259381D01*
X118127309Y-63543339D01*
X118562653Y-63852320D01*
X118983177Y-64184292D01*
X119384702Y-64537226D01*
X119763055Y-64909093D01*
X119960575Y-65121864D01*
X120103548Y-65284626D01*
X120240128Y-65446477D01*
X120365620Y-65601282D01*
X120475334Y-65742904D01*
X120564576Y-65865207D01*
X120628653Y-65962054D01*
X120662874Y-66027308D01*
X120667322Y-66046071D01*
X120643224Y-66091766D01*
X120584283Y-66125533D01*
X120510531Y-66138837D01*
X120464395Y-66132545D01*
X120416378Y-66115775D01*
X120329910Y-66083554D01*
X120217660Y-66040665D01*
X120103794Y-65996401D01*
X119783227Y-65881307D01*
X119476369Y-65794753D01*
X119168147Y-65734017D01*
X118843491Y-65696373D01*
X118487329Y-65679100D01*
X118337710Y-65677301D01*
X117897750Y-65690233D01*
X117495083Y-65733362D01*
X117119969Y-65808414D01*
X116762671Y-65917114D01*
X116576397Y-65989290D01*
X116299920Y-66127402D01*
X116017640Y-66311252D01*
X115737686Y-66533394D01*
X115468188Y-66786380D01*
X115217275Y-67062766D01*
X114993076Y-67355105D01*
X114857027Y-67564179D01*
X114805869Y-67647860D01*
X114775605Y-67689626D01*
X114758811Y-67694688D01*
X114748066Y-67668255D01*
X114742566Y-67644520D01*
X114633545Y-67238876D01*
X114512112Y-66908237D01*
X114464279Y-66792725D01*
X114423165Y-66689441D01*
X114394669Y-66613393D01*
X114386514Y-66588626D01*
X114368227Y-66544508D01*
X114326675Y-66456276D01*
X114264162Y-66328490D01*
X114182988Y-66165707D01*
X114085456Y-65972486D01*
X113973868Y-65753386D01*
X113850525Y-65512966D01*
X113717729Y-65255784D01*
X113577783Y-64986399D01*
X113567550Y-64966765D01*
X113483177Y-64808638D01*
X113385760Y-64631827D01*
X113289202Y-64461321D01*
X113228503Y-64357308D01*
X113046555Y-64034817D01*
X112905280Y-63748256D01*
X112804363Y-63496911D01*
X112743487Y-63280068D01*
X112736732Y-63244501D01*
X112712228Y-63096061D01*
X112700281Y-62988609D01*
X112702607Y-62909232D01*
X112720924Y-62845018D01*
X112756948Y-62783054D01*
X112806814Y-62717425D01*
X112964999Y-62557864D01*
X113166836Y-62416973D01*
X113402737Y-62299701D01*
X113663117Y-62210995D01*
X113877495Y-62164745D01*
X114231354Y-62132143D01*
X114612154Y-62142836D01*
G37*
D14*
%TO.C,U21*%
X81999949Y-125850267D02*
X81999949Y-127916586D01*
X81999949Y-132178893D02*
X81999949Y-134750267D01*
X83387351Y-134750267D02*
X81999949Y-134750267D01*
X83387351Y-134750267D02*
X85000000Y-134750267D01*
X84268834Y-125850267D02*
X81999949Y-125850267D01*
X85000000Y-133922758D02*
X95000025Y-133922758D01*
X85000000Y-134750267D02*
X85000000Y-133922758D01*
X86268860Y-125850267D02*
X85731140Y-125850267D01*
X88268860Y-125850267D02*
X87731090Y-125850267D01*
X90268860Y-125850267D02*
X89731090Y-125850267D01*
X92268809Y-125850267D02*
X91731090Y-125850267D01*
X94268809Y-125850267D02*
X93731115Y-125850267D01*
X95000025Y-133922758D02*
X95000025Y-134722758D01*
X95000025Y-134722758D02*
X96777369Y-134722758D01*
X96777369Y-134722758D02*
X96777369Y-134740157D01*
X97019710Y-125840157D02*
X95735255Y-125840157D01*
X98004140Y-125840157D02*
X97019710Y-125840157D01*
X98004140Y-125840157D02*
X98004140Y-127493015D01*
X98004140Y-127493015D02*
X98004140Y-127906502D01*
X98004140Y-134740157D02*
X96596850Y-134740157D01*
X98004140Y-134740157D02*
X98004140Y-132168707D01*
D15*
X85499975Y-127822784D02*
X84499975Y-127822784D01*
X84999975Y-127072873D01*
X85499975Y-127822784D01*
G36*
X85499975Y-127822784D02*
G01*
X84499975Y-127822784D01*
X84999975Y-127072873D01*
X85499975Y-127822784D01*
G37*
D14*
%TO.C,U22*%
X99199949Y-127902870D02*
X99199949Y-126049022D01*
X99199949Y-132365177D02*
X99199949Y-132165177D01*
X99199949Y-132365177D02*
X99199949Y-134936551D01*
X100587351Y-134089154D02*
X100587351Y-134936551D01*
X100587351Y-134936551D02*
X99199949Y-134936551D01*
X101545009Y-126049022D02*
X99276124Y-126049022D01*
X103468860Y-126036551D02*
X102931140Y-126036551D01*
X105468860Y-126036551D02*
X104931090Y-126036551D01*
X107468860Y-126036551D02*
X106931090Y-126036551D01*
X109468809Y-126036551D02*
X108931090Y-126036551D01*
X111468809Y-126036551D02*
X110931115Y-126036551D01*
X113468809Y-126036551D02*
X112931115Y-126036551D01*
X115468885Y-126036551D02*
X114931115Y-126036551D01*
X117468885Y-126036551D02*
X116931115Y-126036551D01*
X118900025Y-133176530D02*
X101499975Y-133176530D01*
X119812751Y-134089180D02*
X119812751Y-134926543D01*
X120235636Y-126026543D02*
X118951156Y-126026543D01*
X121220041Y-126026543D02*
X120235636Y-126026543D01*
X121220041Y-127902870D02*
X121220041Y-126026543D01*
X121220041Y-132355143D02*
X121220041Y-132165177D01*
X121220041Y-134926543D02*
X119812751Y-134926543D01*
X121220041Y-134926543D02*
X121220041Y-132355143D01*
X100587325Y-134089154D02*
G75*
G02*
X101499975Y-133176504I912650J0D01*
G01*
X118900025Y-133176530D02*
G75*
G02*
X119812787Y-134089180I75J-912687D01*
G01*
X119808560Y-134093345D02*
G75*
G02*
X119812725Y-134089177I4140J28D01*
G01*
X101134214Y-124400051D02*
G75*
G02*
X100651612Y-124400051I-241301J0D01*
G01*
X100651612Y-124400051D02*
G75*
G02*
X101134214Y-124400051I241301J0D01*
G01*
D15*
X102699975Y-128009068D02*
X101699975Y-128009068D01*
X102199975Y-127259157D01*
X102699975Y-128009068D01*
G36*
X102699975Y-128009068D02*
G01*
X101699975Y-128009068D01*
X102199975Y-127259157D01*
X102699975Y-128009068D01*
G37*
D14*
%TO.C,U20*%
X122349949Y-125847917D02*
X122349949Y-127914236D01*
X122349949Y-132176543D02*
X122349949Y-134747917D01*
X123737351Y-134747917D02*
X122349949Y-134747917D01*
X123737351Y-134747917D02*
X125350000Y-134747917D01*
X124618834Y-125847917D02*
X122349949Y-125847917D01*
X125350000Y-133920408D02*
X135350025Y-133920408D01*
X125350000Y-134747917D02*
X125350000Y-133920408D01*
X126618860Y-125847917D02*
X126081140Y-125847917D01*
X128618860Y-125847917D02*
X128081090Y-125847917D01*
X130618860Y-125847917D02*
X130081090Y-125847917D01*
X132618809Y-125847917D02*
X132081090Y-125847917D01*
X134618809Y-125847917D02*
X134081115Y-125847917D01*
X135350025Y-133920408D02*
X135350025Y-134720408D01*
X135350025Y-134720408D02*
X137127369Y-134720408D01*
X137127369Y-134720408D02*
X137127369Y-134737807D01*
X137369710Y-125837807D02*
X136085255Y-125837807D01*
X138354140Y-125837807D02*
X137369710Y-125837807D01*
X138354140Y-125837807D02*
X138354140Y-127490665D01*
X138354140Y-127490665D02*
X138354140Y-127904152D01*
X138354140Y-134737807D02*
X136946850Y-134737807D01*
X138354140Y-134737807D02*
X138354140Y-132166357D01*
D15*
X125849975Y-127820434D02*
X124849975Y-127820434D01*
X125349975Y-127070523D01*
X125849975Y-127820434D01*
G36*
X125849975Y-127820434D02*
G01*
X124849975Y-127820434D01*
X125349975Y-127070523D01*
X125849975Y-127820434D01*
G37*
%TO.C,R31*%
X85020000Y-92453641D02*
X85020000Y-92146359D01*
X85780000Y-92453641D02*
X85780000Y-92146359D01*
%TO.C,C60*%
X88584420Y-114910000D02*
X88865580Y-114910000D01*
X88584420Y-115930000D02*
X88865580Y-115930000D01*
%TO.C,U2*%
X120390000Y-82890000D02*
X121090000Y-82890000D01*
X120390000Y-83590000D02*
X120390000Y-82890000D01*
X120390000Y-97110000D02*
X120390000Y-96410000D01*
X121090000Y-97110000D02*
X120390000Y-97110000D01*
X133910000Y-82890000D02*
X134610000Y-82890000D01*
X134610000Y-82890000D02*
X134610000Y-83590000D01*
X134610000Y-96410000D02*
X134610000Y-97110000D01*
X134610000Y-97110000D02*
X133910000Y-97110000D01*
X119750000Y-83590000D02*
X119410000Y-83120000D01*
X120090000Y-83120000D01*
X119750000Y-83590000D01*
G36*
X119750000Y-83590000D02*
G01*
X119410000Y-83120000D01*
X120090000Y-83120000D01*
X119750000Y-83590000D01*
G37*
%TO.C,C35*%
X140927836Y-86440000D02*
X140712164Y-86440000D01*
X140927836Y-87160000D02*
X140712164Y-87160000D01*
%TO.C,C9*%
X132784420Y-100090000D02*
X133065580Y-100090000D01*
X132784420Y-101110000D02*
X133065580Y-101110000D01*
%TO.C,R9*%
X100447500Y-110437258D02*
X100447500Y-109962742D01*
X101492500Y-110437258D02*
X101492500Y-109962742D01*
%TO.C,C5*%
X121312164Y-80340000D02*
X121527836Y-80340000D01*
X121312164Y-81060000D02*
X121527836Y-81060000D01*
%TO.C,C33*%
X146840000Y-91192164D02*
X146840000Y-91407836D01*
X147560000Y-91192164D02*
X147560000Y-91407836D01*
%TO.C,C40*%
X88859420Y-86140000D02*
X89140580Y-86140000D01*
X88859420Y-87160000D02*
X89140580Y-87160000D01*
%TO.C,C16*%
X137177500Y-116765580D02*
X137177500Y-116484420D01*
X138197500Y-116765580D02*
X138197500Y-116484420D01*
%TO.C,C1*%
X110740000Y-92735580D02*
X110740000Y-92454420D01*
X111760000Y-92735580D02*
X111760000Y-92454420D01*
%TO.C,C11*%
X150577500Y-114984420D02*
X150577500Y-115265580D01*
X151597500Y-114984420D02*
X151597500Y-115265580D01*
%TO.C,C20*%
X115840000Y-94992164D02*
X115840000Y-95207836D01*
X116560000Y-94992164D02*
X116560000Y-95207836D01*
%TO.C,C62*%
X92040000Y-111047836D02*
X92040000Y-110832164D01*
X92760000Y-111047836D02*
X92760000Y-110832164D01*
%TO.C,L2*%
X100870000Y-68617500D02*
X100870000Y-62397500D01*
X107090000Y-62397500D02*
X107090000Y-68617500D01*
%TO.C,C26*%
X140927836Y-87440000D02*
X140712164Y-87440000D01*
X140927836Y-88160000D02*
X140712164Y-88160000D01*
%TO.C,FB4*%
X85737221Y-86140000D02*
X86062779Y-86140000D01*
X85737221Y-87160000D02*
X86062779Y-87160000D01*
%TO.C,R12*%
X87720000Y-92453641D02*
X87720000Y-92146359D01*
X88480000Y-92453641D02*
X88480000Y-92146359D01*
%TO.C,R17*%
X105047500Y-110437258D02*
X105047500Y-109962742D01*
X106092500Y-110437258D02*
X106092500Y-109962742D01*
%TO.C,C66*%
X86240000Y-113172164D02*
X86240000Y-113387836D01*
X86960000Y-113172164D02*
X86960000Y-113387836D01*
D14*
%TO.C,U11*%
X152029598Y-62699975D02*
X152029598Y-64411100D01*
X152029623Y-64411100D02*
X152029623Y-64500026D01*
X152029623Y-64500026D02*
X152429598Y-64900000D01*
X152029623Y-80999950D02*
X152029623Y-82699975D01*
X152383700Y-80645873D02*
X152029623Y-80999950D01*
X152429598Y-64900000D02*
X152429598Y-65015545D01*
X152429598Y-66374245D02*
X152429598Y-67015545D01*
X152429598Y-68374245D02*
X152429598Y-69015545D01*
X152429598Y-70374245D02*
X152429598Y-71015545D01*
X152429598Y-72374245D02*
X152429598Y-73015545D01*
X152429598Y-74374245D02*
X152429598Y-75015545D01*
X152429598Y-76374245D02*
X152429598Y-77015545D01*
X152429598Y-78374245D02*
X152429598Y-79015545D01*
X152429598Y-80374245D02*
X152429598Y-80567387D01*
X153248444Y-62699975D02*
X152029598Y-62699975D01*
X153248444Y-82700000D02*
X152029623Y-82700000D01*
X157510751Y-82732995D02*
X158110192Y-82732995D01*
X158110192Y-62666955D02*
X157510751Y-62666955D01*
X158110192Y-63301956D02*
X158110192Y-62666955D01*
X158110192Y-65714961D02*
X159126194Y-65714961D01*
X158110192Y-79557989D02*
X158110192Y-65714961D01*
X158110192Y-82097994D02*
X159888195Y-82097994D01*
X158110192Y-82732995D02*
X158110192Y-82097994D01*
X159126194Y-65714961D02*
X159888195Y-65333960D01*
X159126194Y-79557989D02*
X158110192Y-79557989D01*
X159888195Y-63301956D02*
X158110192Y-63301956D01*
X159888195Y-65333960D02*
X159888195Y-63301956D01*
X159888195Y-80319990D02*
X159126194Y-79557989D01*
X159888195Y-82097994D02*
X159888195Y-80319990D01*
D12*
X150613240Y-81336018D02*
G75*
G02*
X150113366Y-81336018I-249937J0D01*
G01*
X150113366Y-81336018D02*
G75*
G02*
X150613240Y-81336018I249937J0D01*
G01*
D15*
%TO.C,C50*%
X89440000Y-70457836D02*
X89440000Y-70242164D01*
X90160000Y-70457836D02*
X90160000Y-70242164D01*
%TO.C,R8*%
X98847500Y-109962742D02*
X98847500Y-110437258D01*
X99892500Y-109962742D02*
X99892500Y-110437258D01*
D13*
%TO.C,U7*%
X89070000Y-89080000D02*
X89070000Y-89290000D01*
X89070000Y-91900000D02*
X89070000Y-92120000D01*
X89070000Y-92120000D02*
X90040000Y-92120000D01*
X90040000Y-89080000D02*
X89070000Y-89080000D01*
X91150000Y-92120000D02*
X92120000Y-92120000D01*
X92120000Y-89080000D02*
X91150000Y-89080000D01*
X92120000Y-89290000D02*
X92120000Y-89080000D01*
X92120000Y-92120000D02*
X92120000Y-91900000D01*
D10*
X89330000Y-88700000D02*
G75*
G02*
X89329583Y-88690000I-120000J5D01*
G01*
D15*
%TO.C,J1*%
X67980000Y-112980000D02*
X67980000Y-122220000D01*
X67980000Y-122220000D02*
X76100000Y-122220000D01*
X81500000Y-122220000D02*
X82720000Y-122220000D01*
X82720000Y-112980000D02*
X67980000Y-112980000D01*
X82720000Y-114650000D02*
X82720000Y-112980000D01*
X82720000Y-122220000D02*
X82720000Y-120550000D01*
%TO.C,C36*%
X139990000Y-95492164D02*
X139990000Y-95707836D01*
X140710000Y-95492164D02*
X140710000Y-95707836D01*
%TO.C,R18*%
X105047500Y-107337258D02*
X105047500Y-106862742D01*
X106092500Y-107337258D02*
X106092500Y-106862742D01*
D14*
%TO.C,U17*%
X70000026Y-70149988D02*
X70000026Y-84140031D01*
X70000026Y-72772060D02*
X71890018Y-72772060D01*
X70000026Y-84140031D02*
X72340031Y-84170028D01*
X71368911Y-70149988D02*
X70000026Y-70149988D01*
X71890018Y-72772060D02*
X71890018Y-81510033D01*
X71890018Y-81510033D02*
X70000026Y-81510033D01*
X72368911Y-70149988D02*
X71229236Y-70149988D01*
X79400051Y-70149988D02*
X76631192Y-70149988D01*
X79400051Y-72418873D02*
X79400051Y-70149988D01*
X79400051Y-74418898D02*
X79400051Y-73881179D01*
X79400051Y-76418898D02*
X79400051Y-75881128D01*
X79400051Y-78418898D02*
X79400051Y-77881128D01*
X79400051Y-80325019D02*
X79400051Y-80418873D01*
X79400051Y-80418847D02*
X79400051Y-79881128D01*
X79400051Y-81881153D02*
X79400051Y-84310033D01*
X79400051Y-84310033D02*
X76631166Y-84310033D01*
D17*
X80379858Y-71470054D02*
G75*
G02*
X79980062Y-71470054I-199898J0D01*
G01*
X79980062Y-71470054D02*
G75*
G02*
X80379858Y-71470054I199898J0D01*
G01*
D15*
X74480061Y-72800051D02*
X72480061Y-73500051D01*
X72480061Y-72200051D01*
X74480061Y-72800051D01*
G36*
X74480061Y-72800051D02*
G01*
X72480061Y-73500051D01*
X72480061Y-72200051D01*
X74480061Y-72800051D01*
G37*
%TO.C,C42*%
X104727836Y-113840000D02*
X104512164Y-113840000D01*
X104727836Y-114560000D02*
X104512164Y-114560000D01*
%TO.C,C21*%
X110740000Y-95534420D02*
X110740000Y-95815580D01*
X111760000Y-95534420D02*
X111760000Y-95815580D01*
%TO.C,C6*%
X116890000Y-93327836D02*
X116890000Y-93112164D01*
X117610000Y-93327836D02*
X117610000Y-93112164D01*
%TO.C,R16*%
X90470000Y-70503641D02*
X90470000Y-70196359D01*
X91230000Y-70503641D02*
X91230000Y-70196359D01*
%TO.C,C71*%
X95270000Y-104138748D02*
X95270000Y-104661252D01*
X96740000Y-104138748D02*
X96740000Y-104661252D01*
%TO.C,C43*%
X89462164Y-87740000D02*
X89677836Y-87740000D01*
X89462164Y-88460000D02*
X89677836Y-88460000D01*
%TO.C,C10*%
X133587836Y-98940000D02*
X133372164Y-98940000D01*
X133587836Y-99660000D02*
X133372164Y-99660000D01*
%TO.C,C7*%
X136672164Y-82640000D02*
X136887836Y-82640000D01*
X136672164Y-83360000D02*
X136887836Y-83360000D01*
D10*
%TO.C,Q1*%
X97800000Y-76300000D02*
X97800000Y-75300000D01*
X98660000Y-76300000D02*
X97800000Y-76300000D01*
X99610000Y-74900000D02*
X98980000Y-74900000D01*
X100800000Y-76300000D02*
X99930000Y-76300000D01*
X100800000Y-76300000D02*
X100800000Y-75300000D01*
D15*
%TO.C,C23*%
X149109420Y-90590000D02*
X149390580Y-90590000D01*
X149109420Y-91610000D02*
X149390580Y-91610000D01*
%TO.C,R3*%
X148853641Y-92070000D02*
X148546359Y-92070000D01*
X148853641Y-92830000D02*
X148546359Y-92830000D01*
%TO.C,R26*%
X90737258Y-119092500D02*
X90262742Y-119092500D01*
X90737258Y-120137500D02*
X90262742Y-120137500D01*
%TO.C,C32*%
X146840000Y-95472164D02*
X146840000Y-95687836D01*
X147560000Y-95472164D02*
X147560000Y-95687836D01*
%TO.C,R15*%
X92620000Y-66153641D02*
X92620000Y-65846359D01*
X93380000Y-66153641D02*
X93380000Y-65846359D01*
%TO.C,FB2*%
X113450378Y-94490000D02*
X114249622Y-94490000D01*
X113450378Y-95610000D02*
X114249622Y-95610000D01*
%TO.C,C8*%
X116470000Y-90652164D02*
X116470000Y-90867836D01*
X117190000Y-90652164D02*
X117190000Y-90867836D01*
%TO.C,C46*%
X91540000Y-66107836D02*
X91540000Y-65892164D01*
X92260000Y-66107836D02*
X92260000Y-65892164D01*
%TO.C,R32*%
X117046359Y-83520000D02*
X117353641Y-83520000D01*
X117046359Y-84280000D02*
X117353641Y-84280000D01*
%TO.C,C52*%
X87111252Y-68065000D02*
X86588748Y-68065000D01*
X87111252Y-69535000D02*
X86588748Y-69535000D01*
%TO.C,R22*%
X145453641Y-112420000D02*
X145146359Y-112420000D01*
X145453641Y-113180000D02*
X145146359Y-113180000D01*
%TO.C,Y1*%
X112770000Y-87480000D02*
X112770000Y-91600000D01*
X116190000Y-87480000D02*
X112770000Y-87480000D01*
D14*
%TO.C,U10*%
X133400000Y-46875616D02*
X133400000Y-49450064D01*
X134268834Y-48550064D02*
X133400000Y-48550064D01*
X146531166Y-48550064D02*
X147400000Y-48550064D01*
X146836652Y-45650064D02*
X133963018Y-45650064D01*
X147400000Y-46875616D02*
X147400000Y-49450064D01*
X147400000Y-49450064D02*
X133400000Y-49450064D01*
D15*
X146980036Y-49119990D02*
X146550013Y-48919990D01*
X146980036Y-48770003D01*
X146980036Y-49119990D01*
G36*
X146980036Y-49119990D02*
G01*
X146550013Y-48919990D01*
X146980036Y-48770003D01*
X146980036Y-49119990D01*
G37*
%TO.C,C58*%
X115340000Y-83607836D02*
X115340000Y-83392164D01*
X116060000Y-83607836D02*
X116060000Y-83392164D01*
%TO.C,C67*%
X84370000Y-104138748D02*
X84370000Y-104661252D01*
X85840000Y-104138748D02*
X85840000Y-104661252D01*
%TO.C,L1*%
X86390000Y-81610000D02*
X86390000Y-75390000D01*
X92610000Y-75390000D02*
X92610000Y-81610000D01*
D10*
%TO.C,USB1*%
X156290000Y-85430000D02*
X154300000Y-85430000D01*
X156290000Y-94500000D02*
X154300000Y-94500000D01*
X159720000Y-85430000D02*
X158250000Y-85430000D01*
X159870000Y-85500000D02*
X159870000Y-94500000D01*
X159870000Y-94500000D02*
X158250000Y-94500000D01*
D15*
%TO.C,C19*%
X116890000Y-94992164D02*
X116890000Y-95207836D01*
X117610000Y-94992164D02*
X117610000Y-95207836D01*
%TO.C,D1*%
X157400000Y-59325000D02*
X159685000Y-59325000D01*
X159685000Y-57855000D02*
X157400000Y-57855000D01*
X159685000Y-59325000D02*
X159685000Y-57855000D01*
%TO.C,C39*%
X94740000Y-73342164D02*
X94740000Y-73557836D01*
X95460000Y-73342164D02*
X95460000Y-73557836D01*
%TO.C,C2*%
X115840000Y-93327836D02*
X115840000Y-93112164D01*
X116560000Y-93327836D02*
X116560000Y-93112164D01*
%TO.C,D5*%
X157400000Y-57135000D02*
X159685000Y-57135000D01*
X159685000Y-55665000D02*
X157400000Y-55665000D01*
X159685000Y-57135000D02*
X159685000Y-55665000D01*
%TO.C,Y2*%
X144360000Y-96810000D02*
X140240000Y-96810000D01*
X144360000Y-100230000D02*
X144360000Y-96810000D01*
%TO.C,R35*%
X155620000Y-56753641D02*
X155620000Y-56446359D01*
X156380000Y-56753641D02*
X156380000Y-56446359D01*
%TO.C,R5*%
X142120000Y-87363641D02*
X142120000Y-87056359D01*
X142880000Y-87363641D02*
X142880000Y-87056359D01*
%TO.C,C54*%
X87240580Y-70090000D02*
X86959420Y-70090000D01*
X87240580Y-71110000D02*
X86959420Y-71110000D01*
%TO.C,FB1*%
X114249622Y-92710000D02*
X113450378Y-92710000D01*
X114249622Y-93830000D02*
X113450378Y-93830000D01*
%TO.C,R7*%
X98847500Y-106862742D02*
X98847500Y-107337258D01*
X99892500Y-106862742D02*
X99892500Y-107337258D01*
%TO.C,R13*%
X86227500Y-92612742D02*
X86227500Y-93087258D01*
X87272500Y-92612742D02*
X87272500Y-93087258D01*
%TO.C,U1*%
X141227500Y-113640000D02*
X145347500Y-113640000D01*
X145347500Y-118760000D02*
X141227500Y-118760000D01*
X139547500Y-114200000D02*
X139217500Y-114440000D01*
X139217500Y-113960000D01*
X139547500Y-114200000D01*
G36*
X139547500Y-114200000D02*
G01*
X139217500Y-114440000D01*
X139217500Y-113960000D01*
X139547500Y-114200000D01*
G37*
%TO.C,C49*%
X91687836Y-87740000D02*
X91472164Y-87740000D01*
X91687836Y-88460000D02*
X91472164Y-88460000D01*
%TO.C,U5*%
X92020000Y-67610000D02*
X92495000Y-67610000D01*
X92020000Y-68085000D02*
X92020000Y-67610000D01*
X92020000Y-71830000D02*
X92020000Y-71355000D01*
X92495000Y-71830000D02*
X92020000Y-71830000D01*
X95765000Y-67610000D02*
X96240000Y-67610000D01*
X96240000Y-67610000D02*
X96240000Y-68085000D01*
X96240000Y-71355000D02*
X96240000Y-71830000D01*
X96240000Y-71830000D02*
X95765000Y-71830000D01*
X93120000Y-72690000D02*
X92640000Y-72690000D01*
X92880000Y-72360000D01*
X93120000Y-72690000D01*
G36*
X93120000Y-72690000D02*
G01*
X92640000Y-72690000D01*
X92880000Y-72360000D01*
X93120000Y-72690000D01*
G37*
%TO.C,C28*%
X138890000Y-95492164D02*
X138890000Y-95707836D01*
X139610000Y-95492164D02*
X139610000Y-95707836D01*
%TO.C,C68*%
X91107836Y-117955000D02*
X90892164Y-117955000D01*
X91107836Y-118675000D02*
X90892164Y-118675000D01*
D14*
%TO.C,U23*%
X83239980Y-54538563D02*
X83239980Y-51769678D01*
X83409982Y-45138538D02*
X83379985Y-47478543D01*
X85668860Y-54538563D02*
X83239980Y-54538563D01*
X86039980Y-47028530D02*
X86039980Y-45138538D01*
X87131166Y-54538563D02*
X87668885Y-54538563D01*
X87224994Y-54538563D02*
X87131140Y-54538563D01*
X89131115Y-54538563D02*
X89668885Y-54538563D01*
X91131115Y-54538563D02*
X91668885Y-54538563D01*
X93131115Y-54538563D02*
X93668834Y-54538563D01*
X94777953Y-45138538D02*
X94777953Y-47028530D01*
X94777953Y-47028530D02*
X86039980Y-47028530D01*
X95131140Y-54538563D02*
X97400025Y-54538563D01*
X97400025Y-45138538D02*
X83409982Y-45138538D01*
X97400025Y-46507423D02*
X97400025Y-45138538D01*
X97400025Y-47507423D02*
X97400025Y-46367748D01*
X97400025Y-54538563D02*
X97400025Y-51769704D01*
D17*
X96279857Y-55318472D02*
G75*
G02*
X95880061Y-55318472I-199898J0D01*
G01*
X95880061Y-55318472D02*
G75*
G02*
X96279857Y-55318472I199898J0D01*
G01*
D15*
X94749962Y-49618573D02*
X94049962Y-47618573D01*
X95349962Y-47618573D01*
X94749962Y-49618573D01*
G36*
X94749962Y-49618573D02*
G01*
X94049962Y-47618573D01*
X95349962Y-47618573D01*
X94749962Y-49618573D01*
G37*
%TO.C,R27*%
X90337258Y-116477500D02*
X89862742Y-116477500D01*
X90337258Y-117522500D02*
X89862742Y-117522500D01*
%TO.C,C53*%
X94261252Y-61565000D02*
X93738748Y-61565000D01*
X94261252Y-63035000D02*
X93738748Y-63035000D01*
%TO.C,R24*%
X93415000Y-113346359D02*
X93415000Y-113653641D01*
X94175000Y-113346359D02*
X94175000Y-113653641D01*
%TO.C,R1*%
X147665000Y-113837742D02*
X147665000Y-114312258D01*
X148710000Y-113837742D02*
X148710000Y-114312258D01*
%TO.C,D2*%
X84740000Y-71550000D02*
X84740000Y-74850000D01*
X84740000Y-71550000D02*
X90250000Y-71550000D01*
X84740000Y-74850000D02*
X90250000Y-74850000D01*
D14*
%TO.C,U14*%
X98466980Y-46889808D02*
X98466980Y-47489249D01*
X98500000Y-51751556D02*
X98500000Y-52970402D01*
X98500000Y-52970402D02*
X100211125Y-52970402D01*
X99101981Y-45111805D02*
X99101981Y-46889808D01*
X99101981Y-46889808D02*
X98466980Y-46889808D01*
X100211125Y-52970377D02*
X100300051Y-52970377D01*
X100300051Y-52970377D02*
X100700025Y-52570402D01*
X100700025Y-52570402D02*
X100815570Y-52570402D01*
X101133985Y-45111805D02*
X99101981Y-45111805D01*
X101514986Y-45873806D02*
X101133985Y-45111805D01*
X101514986Y-46889808D02*
X101514986Y-45873806D01*
X102174270Y-52570402D02*
X102815570Y-52570402D01*
X104174270Y-52570402D02*
X104815570Y-52570402D01*
X106174270Y-52570402D02*
X106815570Y-52570402D01*
X108174270Y-52570402D02*
X108815570Y-52570402D01*
X110174270Y-52570402D02*
X110815570Y-52570402D01*
X112174270Y-52570402D02*
X112815570Y-52570402D01*
X114174270Y-52570402D02*
X114815570Y-52570402D01*
X115358014Y-45873806D02*
X115358014Y-46889808D01*
X115358014Y-46889808D02*
X101514986Y-46889808D01*
X116120015Y-45111805D02*
X115358014Y-45873806D01*
X116174270Y-52570402D02*
X116367412Y-52570402D01*
X116445898Y-52616300D02*
X116799975Y-52970377D01*
X116799975Y-52970377D02*
X118500000Y-52970377D01*
X117898019Y-45111805D02*
X116120015Y-45111805D01*
X117898019Y-46889808D02*
X117898019Y-45111805D01*
X118500025Y-51751556D02*
X118500025Y-52970377D01*
X118533020Y-46889808D02*
X117898019Y-46889808D01*
X118533020Y-47489249D02*
X118533020Y-46889808D01*
D12*
X117385980Y-54636697D02*
G75*
G02*
X116886106Y-54636697I-249937J0D01*
G01*
X116886106Y-54636697D02*
G75*
G02*
X117385980Y-54636697I249937J0D01*
G01*
D15*
%TO.C,R34*%
X155620000Y-61153641D02*
X155620000Y-60846359D01*
X156380000Y-61153641D02*
X156380000Y-60846359D01*
%TO.C,FB6*%
X95037221Y-86140000D02*
X95362779Y-86140000D01*
X95037221Y-87160000D02*
X95362779Y-87160000D01*
%TO.C,C69*%
X138627500Y-115922164D02*
X138627500Y-116137836D01*
X139347500Y-115922164D02*
X139347500Y-116137836D01*
%TO.C,R4*%
X147870000Y-95446359D02*
X147870000Y-95753641D01*
X148630000Y-95446359D02*
X148630000Y-95753641D01*
%TO.C,C70*%
X84690000Y-110799420D02*
X84690000Y-111080580D01*
X85710000Y-110799420D02*
X85710000Y-111080580D01*
%TO.C,C51*%
X92265580Y-86140000D02*
X91984420Y-86140000D01*
X92265580Y-87160000D02*
X91984420Y-87160000D01*
%TO.C,C44*%
X90490000Y-68457836D02*
X90490000Y-68242164D01*
X91210000Y-68457836D02*
X91210000Y-68242164D01*
%TO.C,C65*%
X93285000Y-111080580D02*
X93285000Y-110799420D01*
X94305000Y-111080580D02*
X94305000Y-110799420D01*
%TO.C,R19*%
X94653641Y-65120000D02*
X94346359Y-65120000D01*
X94653641Y-65880000D02*
X94346359Y-65880000D01*
%TO.C,C41*%
X93240000Y-76165580D02*
X93240000Y-75884420D01*
X94260000Y-76165580D02*
X94260000Y-75884420D01*
%TO.C,C13*%
X136590000Y-85215580D02*
X136590000Y-84934420D01*
X137610000Y-85215580D02*
X137610000Y-84934420D01*
%TO.C,R29*%
X148431141Y-115820000D02*
X148123859Y-115820000D01*
X148431141Y-116580000D02*
X148123859Y-116580000D01*
%TO.C,C59*%
X103290000Y-85927836D02*
X103290000Y-85712164D01*
X104010000Y-85927836D02*
X104010000Y-85712164D01*
D18*
%TO.C,U6*%
X102150000Y-111060000D02*
X102150000Y-110560000D01*
X102150000Y-113060000D02*
X102150000Y-112550000D01*
X102200000Y-110560000D02*
X102150000Y-110560000D01*
X102200000Y-113060000D02*
X102150000Y-113060000D01*
X104350000Y-110560000D02*
X104300000Y-110560000D01*
X104350000Y-111060000D02*
X104350000Y-110560000D01*
X104350000Y-113060000D02*
X104300000Y-113060000D01*
X104350000Y-113060000D02*
X104350000Y-112560000D01*
X104850000Y-112300000D02*
G75*
G02*
X104650000Y-112300000I-100000J0D01*
G01*
X104650000Y-112300000D02*
G75*
G02*
X104850000Y-112300000I100000J0D01*
G01*
D15*
%TO.C,L3*%
X86390000Y-108510000D02*
X86390000Y-102290000D01*
X92610000Y-102290000D02*
X92610000Y-108510000D01*
%TO.C,C56*%
X97090000Y-85940580D02*
X97090000Y-85659420D01*
X98110000Y-85940580D02*
X98110000Y-85659420D01*
%TO.C,D3*%
X97030000Y-69167500D02*
X97030000Y-63657500D01*
X97030000Y-69167500D02*
X100330000Y-69167500D01*
X100330000Y-69167500D02*
X100330000Y-63657500D01*
%TO.C,C47*%
X94392164Y-66190000D02*
X94607836Y-66190000D01*
X94392164Y-66910000D02*
X94607836Y-66910000D01*
%TO.C,C18*%
X117540000Y-86372164D02*
X117540000Y-86587836D01*
X118260000Y-86372164D02*
X118260000Y-86587836D01*
%TO.C,FB8*%
X99862878Y-86140000D02*
X100662122Y-86140000D01*
X99862878Y-87260000D02*
X100662122Y-87260000D01*
%TO.C,R23*%
X93246359Y-115020000D02*
X93553641Y-115020000D01*
X93246359Y-115780000D02*
X93553641Y-115780000D01*
%TO.C,U4*%
X140652500Y-88890000D02*
X141127500Y-88890000D01*
X140652500Y-89365000D02*
X140652500Y-88890000D01*
X140652500Y-94110000D02*
X140652500Y-93635000D01*
X141127500Y-94110000D02*
X140652500Y-94110000D01*
X145397500Y-88890000D02*
X145872500Y-88890000D01*
X145872500Y-88890000D02*
X145872500Y-89365000D01*
X145872500Y-93635000D02*
X145872500Y-94110000D01*
X145872500Y-94110000D02*
X145397500Y-94110000D01*
X146732500Y-93490000D02*
X146402500Y-93250000D01*
X146732500Y-93010000D01*
X146732500Y-93490000D01*
G36*
X146732500Y-93490000D02*
G01*
X146402500Y-93250000D01*
X146732500Y-93010000D01*
X146732500Y-93490000D01*
G37*
%TO.C,R14*%
X101220000Y-114863641D02*
X101220000Y-114556359D01*
X101980000Y-114863641D02*
X101980000Y-114556359D01*
%TO.C,C22*%
X115615580Y-105090000D02*
X115334420Y-105090000D01*
X115615580Y-106110000D02*
X115334420Y-106110000D01*
%TO.C,R6*%
X96496359Y-73520000D02*
X96803641Y-73520000D01*
X96496359Y-74280000D02*
X96803641Y-74280000D01*
%TO.C,C14*%
X121487836Y-99040000D02*
X121272164Y-99040000D01*
X121487836Y-99760000D02*
X121272164Y-99760000D01*
D14*
%TO.C,U24*%
X119999975Y-45099975D02*
X119999975Y-47568809D01*
X119999975Y-45099975D02*
X122000000Y-45099950D01*
X119999975Y-52031090D02*
X119999975Y-53099467D01*
X120000508Y-53099467D02*
X120000508Y-53599848D01*
X120000508Y-53599848D02*
X120099568Y-53698908D01*
X120099568Y-53698908D02*
X121798832Y-53698908D01*
X121798832Y-53698908D02*
X121900432Y-53599848D01*
X121900432Y-53300127D02*
X122101092Y-53099467D01*
X121900432Y-53599848D02*
X121900432Y-53300127D01*
X122100000Y-53099950D02*
X129900000Y-53099950D01*
X123600000Y-46599950D02*
X128400000Y-46599950D01*
X130000000Y-45099950D02*
X132000025Y-45099924D01*
X130100076Y-53300610D02*
X129899416Y-53099950D01*
X130100076Y-53600331D02*
X130100076Y-53300610D01*
X130201676Y-53699391D02*
X130100076Y-53600331D01*
X131900940Y-53699391D02*
X130201676Y-53699391D01*
X132000000Y-53099950D02*
X132000000Y-53600331D01*
X132000000Y-53600331D02*
X131900940Y-53699391D01*
X132000025Y-45099924D02*
X132000025Y-47568809D01*
X132000025Y-52031090D02*
X132000025Y-53099950D01*
X123600000Y-46599950D02*
G75*
G02*
X122000000Y-45099949I-179980J1411355D01*
G01*
X130002032Y-45101474D02*
G75*
G02*
X128402031Y-46601474I-1420021J-88644D01*
G01*
X130675438Y-54659945D02*
G75*
G02*
X129984608Y-54659945I-345415J0D01*
G01*
X129984608Y-54659945D02*
G75*
G02*
X130675438Y-54659945I345415J0D01*
G01*
%TO.C,U18*%
X69740081Y-58219990D02*
X69740081Y-68380010D01*
X69740081Y-68380010D02*
X72368935Y-68380010D01*
X72368935Y-58219990D02*
X69740081Y-58219990D01*
X76631216Y-68380010D02*
X77415671Y-68380010D01*
X78084506Y-68380010D02*
X78757099Y-68380010D01*
X78249098Y-60251994D02*
X78757099Y-60251994D01*
X78249098Y-60568860D02*
X78249098Y-60251994D01*
X78249098Y-62568860D02*
X78249098Y-62031140D01*
X78249098Y-64568860D02*
X78249098Y-64031140D01*
X78249098Y-66348006D02*
X78249098Y-66031140D01*
X78757099Y-58219990D02*
X76631216Y-58219990D01*
X78757099Y-60251994D02*
X78757099Y-58219990D01*
X78757099Y-66348006D02*
X78249098Y-66348006D01*
X78757099Y-68380010D02*
X78757099Y-66348006D01*
D15*
%TO.C,C27*%
X149109420Y-93290000D02*
X149390580Y-93290000D01*
X149109420Y-94310000D02*
X149390580Y-94310000D01*
%TO.C,C31*%
X143612164Y-95810000D02*
X143827836Y-95810000D01*
X143612164Y-96530000D02*
X143827836Y-96530000D01*
%TO.C,R28*%
X92195000Y-118553641D02*
X92195000Y-118246359D01*
X92955000Y-118553641D02*
X92955000Y-118246359D01*
%TO.C,R10*%
X100447500Y-107337258D02*
X100447500Y-106862742D01*
X101492500Y-107337258D02*
X101492500Y-106862742D01*
%TO.C,C12*%
X117540000Y-90962164D02*
X117540000Y-91177836D01*
X118260000Y-90962164D02*
X118260000Y-91177836D01*
%TO.C,C72*%
X82270000Y-104138748D02*
X82270000Y-104661252D01*
X83740000Y-104138748D02*
X83740000Y-104661252D01*
%TO.C,C45*%
X90507836Y-66440000D02*
X90292164Y-66440000D01*
X90507836Y-67160000D02*
X90292164Y-67160000D01*
%TO.C,SW1*%
X140000000Y-130800000D02*
X141200000Y-130800000D01*
X140000000Y-133100000D02*
X140000000Y-130800000D01*
X143700000Y-130800000D02*
X143000000Y-130800000D01*
X146200000Y-130800000D02*
X145500000Y-130800000D01*
X148000000Y-130800000D02*
X149200000Y-130800000D01*
X149200000Y-130800000D02*
X149200000Y-133100000D01*
%TO.C,C55*%
X94140580Y-63690000D02*
X93859420Y-63690000D01*
X94140580Y-64710000D02*
X93859420Y-64710000D01*
%TO.C,C64*%
X93170000Y-104138748D02*
X93170000Y-104661252D01*
X94640000Y-104138748D02*
X94640000Y-104661252D01*
D13*
%TO.C,U3*%
X116210000Y-103475000D02*
X119370000Y-103475000D01*
X119370000Y-101325000D02*
X116210000Y-101325000D01*
D18*
X119920000Y-103165000D02*
G75*
G02*
X119720000Y-103165000I-100000J0D01*
G01*
X119720000Y-103165000D02*
G75*
G02*
X119920000Y-103165000I100000J0D01*
G01*
D15*
%TO.C,C24*%
X141927836Y-95810000D02*
X141712164Y-95810000D01*
X141927836Y-96530000D02*
X141712164Y-96530000D01*
%TO.C,C30*%
X146840000Y-93492164D02*
X146840000Y-93707836D01*
X147560000Y-93492164D02*
X147560000Y-93707836D01*
D14*
%TO.C,U13*%
X69797383Y-104137364D02*
X69797383Y-102749962D01*
X69807366Y-110770028D02*
X69807366Y-109362738D01*
X69807366Y-110770028D02*
X72378816Y-110770028D01*
X70644780Y-104137364D02*
X69797383Y-104137364D01*
X70644780Y-109362738D02*
X69807366Y-109362738D01*
X71557404Y-108450013D02*
X71557404Y-105049988D01*
X72368758Y-102749962D02*
X69797383Y-102749962D01*
X77054508Y-110770028D02*
X76641021Y-110770028D01*
X78697383Y-102749962D02*
X76631064Y-102749962D01*
X78697383Y-105018847D02*
X78697383Y-102749962D01*
X78697383Y-107018873D02*
X78697383Y-106481153D01*
X78707366Y-109785598D02*
X78707366Y-108501143D01*
X78707366Y-110770028D02*
X77054508Y-110770028D01*
X78707366Y-110770028D02*
X78707366Y-109785598D01*
X70640589Y-109358547D02*
G75*
G02*
X70644737Y-109362713I-18J-4166D01*
G01*
X70644780Y-104137338D02*
G75*
G02*
X71557430Y-105049988I0J-912650D01*
G01*
X71557404Y-108450013D02*
G75*
G02*
X70644754Y-109362716I-912653J-50D01*
G01*
D15*
X77474777Y-105749988D02*
X76724866Y-106249988D01*
X76724866Y-105249988D01*
X77474777Y-105749988D01*
G36*
X77474777Y-105749988D02*
G01*
X76724866Y-106249988D01*
X76724866Y-105249988D01*
X77474777Y-105749988D01*
G37*
%TO.C,C17*%
X117540000Y-88487836D02*
X117540000Y-88272164D01*
X118260000Y-88487836D02*
X118260000Y-88272164D01*
%TO.C,C63*%
X86235000Y-110832164D02*
X86235000Y-111047836D01*
X86955000Y-110832164D02*
X86955000Y-111047836D01*
%TO.C,R25*%
X155620000Y-58943641D02*
X155620000Y-58636359D01*
X156380000Y-58943641D02*
X156380000Y-58636359D01*
D14*
%TO.C,U9*%
X153909982Y-114443967D02*
X154779197Y-114443967D01*
X153909982Y-114957963D02*
X153909982Y-114443967D01*
X153910998Y-124444983D02*
X154760985Y-124444983D01*
X153910998Y-124949987D02*
X153910998Y-124444983D01*
X154549987Y-124949987D02*
X153910998Y-124949987D01*
X154760985Y-114957963D02*
X153909982Y-114957963D01*
X154760985Y-116118898D02*
X154760985Y-114957963D01*
X154760985Y-117618898D02*
X154760985Y-117281204D01*
X154760985Y-119118923D02*
X154760985Y-118781204D01*
X154760985Y-120618923D02*
X154760985Y-120281229D01*
X154760985Y-122118999D02*
X154760985Y-121781229D01*
X154760985Y-124444983D02*
X154760985Y-123281306D01*
X156718846Y-114450038D02*
X154549987Y-114450038D01*
X156718846Y-124949962D02*
X154549987Y-124949987D01*
X159850012Y-114450038D02*
X159081153Y-114450038D01*
X159850012Y-124949962D02*
X159081127Y-124949987D01*
X159850012Y-124949987D02*
X159850012Y-114450038D01*
D15*
X159250012Y-117250038D02*
X158049987Y-116750064D01*
X159249987Y-116250064D01*
X159250012Y-117250038D01*
G36*
X159250012Y-117250038D02*
G01*
X158049987Y-116750064D01*
X159249987Y-116250064D01*
X159250012Y-117250038D01*
G37*
%TO.C,C3*%
X116470000Y-88927836D02*
X116470000Y-88712164D01*
X117190000Y-88927836D02*
X117190000Y-88712164D01*
D10*
%TO.C,U8*%
X87340000Y-109540000D02*
X87340000Y-109760000D01*
X87340000Y-114370000D02*
X87340000Y-114230000D01*
X87590000Y-110890000D02*
X87590000Y-110970000D01*
X87590000Y-111840000D02*
X87590000Y-112070000D01*
X87590000Y-114370000D02*
X87340000Y-114370000D01*
X87590000Y-114370000D02*
X87590000Y-114370000D01*
X87590000Y-114370000D02*
X91400000Y-114370000D01*
X91400000Y-110970000D02*
X91400000Y-110890000D01*
X91400000Y-112070000D02*
X91400000Y-111840000D01*
X91400000Y-114370000D02*
X91660000Y-114370000D01*
X91660000Y-109540000D02*
X87340000Y-109540000D01*
X91660000Y-109760000D02*
X91660000Y-109540000D01*
X91660000Y-114370000D02*
X91660000Y-114230000D01*
X87010000Y-114240000D02*
G75*
G02*
X86650000Y-114240000I-180000J0D01*
G01*
X86650000Y-114240000D02*
G75*
G02*
X87010000Y-114240000I180000J0D01*
G01*
D15*
%TO.C,R30*%
X138212258Y-113777500D02*
X137737742Y-113777500D01*
X138212258Y-114822500D02*
X137737742Y-114822500D01*
%TO.C,R21*%
X92770000Y-91646359D02*
X92770000Y-91953641D01*
X93530000Y-91646359D02*
X93530000Y-91953641D01*
%TO.C,C38*%
X96240580Y-74740000D02*
X95959420Y-74740000D01*
X96240580Y-75760000D02*
X95959420Y-75760000D01*
D14*
%TO.C,U12*%
X70000026Y-85899975D02*
X70000026Y-99890018D01*
X70000026Y-88522047D02*
X71890018Y-88522047D01*
X70000026Y-99890018D02*
X72340031Y-99920015D01*
X71368911Y-85899975D02*
X70000026Y-85899975D01*
X71890018Y-88522047D02*
X71890018Y-97260020D01*
X71890018Y-97260020D02*
X70000026Y-97260020D01*
X72368911Y-85899975D02*
X71229236Y-85899975D01*
X79400051Y-85899975D02*
X76631192Y-85899975D01*
X79400051Y-88168860D02*
X79400051Y-85899975D01*
X79400051Y-90168885D02*
X79400051Y-89631166D01*
X79400051Y-92168885D02*
X79400051Y-91631115D01*
X79400051Y-94168885D02*
X79400051Y-93631115D01*
X79400051Y-96075006D02*
X79400051Y-96168860D01*
X79400051Y-96168834D02*
X79400051Y-95631115D01*
X79400051Y-97631140D02*
X79400051Y-100060020D01*
X79400051Y-100060020D02*
X76631166Y-100060020D01*
D17*
X80379858Y-87220041D02*
G75*
G02*
X79980062Y-87220041I-199898J0D01*
G01*
X79980062Y-87220041D02*
G75*
G02*
X80379858Y-87220041I199898J0D01*
G01*
D15*
X74480061Y-88550038D02*
X72480061Y-89250038D01*
X72480061Y-87950038D01*
X74480061Y-88550038D01*
G36*
X74480061Y-88550038D02*
G01*
X72480061Y-89250038D01*
X72480061Y-87950038D01*
X74480061Y-88550038D01*
G37*
%TO.C,C61*%
X102240000Y-85927836D02*
X102240000Y-85712164D01*
X102960000Y-85927836D02*
X102960000Y-85712164D01*
%TO.C,C15*%
X149427500Y-115612164D02*
X149427500Y-115827836D01*
X150147500Y-115612164D02*
X150147500Y-115827836D01*
%TO.C,R33*%
X117046359Y-84620000D02*
X117353641Y-84620000D01*
X117046359Y-85380000D02*
X117353641Y-85380000D01*
%TO.C,C4*%
X120684420Y-78890000D02*
X120965580Y-78890000D01*
X120684420Y-79910000D02*
X120965580Y-79910000D01*
%TO.C,C57*%
X115340000Y-85372164D02*
X115340000Y-85587836D01*
X116060000Y-85372164D02*
X116060000Y-85587836D01*
%TO.C,C25*%
X115887836Y-103840000D02*
X115672164Y-103840000D01*
X115887836Y-104560000D02*
X115672164Y-104560000D01*
%TO.C,C37*%
X85759420Y-84490000D02*
X86040580Y-84490000D01*
X85759420Y-85510000D02*
X86040580Y-85510000D01*
%TO.C,R20*%
X89420000Y-68503641D02*
X89420000Y-68196359D01*
X90180000Y-68503641D02*
X90180000Y-68196359D01*
%TO.C,C34*%
X146217164Y-96940000D02*
X146432836Y-96940000D01*
X146217164Y-97660000D02*
X146432836Y-97660000D01*
%TO.C,R11*%
X102377500Y-114987742D02*
X102377500Y-115462258D01*
X103422500Y-114987742D02*
X103422500Y-115462258D01*
%TO.C,D4*%
X157400000Y-61635000D02*
X159685000Y-61635000D01*
X159685000Y-60165000D02*
X157400000Y-60165000D01*
X159685000Y-61635000D02*
X159685000Y-60165000D01*
%TO.C,C48*%
X94040000Y-92134420D02*
X94040000Y-92415580D01*
X95060000Y-92134420D02*
X95060000Y-92415580D01*
%TO.C,C29*%
X145790000Y-95472164D02*
X145790000Y-95687836D01*
X146510000Y-95472164D02*
X146510000Y-95687836D01*
%TO.C,R2*%
X143946359Y-127120000D02*
X144253641Y-127120000D01*
X143946359Y-127880000D02*
X144253641Y-127880000D01*
%TD*%
M02*
