%TF.GenerationSoftware,KiCad,Pcbnew,9.0.6*%
%TF.CreationDate,2026-01-14T23:48:26-05:00*%
%TF.ProjectId,DebuggingBoard,44656275-6767-4696-9e67-426f6172642e,rev?*%
%TF.SameCoordinates,Original*%
%TF.FileFunction,Legend,Bot*%
%TF.FilePolarity,Positive*%
%FSLAX46Y46*%
G04 Gerber Fmt 4.6, Leading zero omitted, Abs format (unit mm)*
G04 Created by KiCad (PCBNEW 9.0.6) date 2026-01-14 23:48:26*
%MOMM*%
%LPD*%
G01*
G04 APERTURE LIST*
%ADD10C,0.254001*%
%ADD11C,0.400000*%
%ADD12C,0.120000*%
G04 APERTURE END LIST*
D10*
%TO.C,U19*%
X70210592Y-58219964D02*
X72839446Y-58219964D01*
X70210592Y-68379984D02*
X70210592Y-58219964D01*
X72839446Y-68379984D02*
X70210592Y-68379984D01*
X77101727Y-58219964D02*
X77886182Y-58219964D01*
X78555017Y-58219964D02*
X79227610Y-58219964D01*
X78719609Y-60251968D02*
X78719609Y-60568834D01*
X78719609Y-62031114D02*
X78719609Y-62568834D01*
X78719609Y-64031114D02*
X78719609Y-64568834D01*
X78719609Y-66031114D02*
X78719609Y-66347980D01*
X78719609Y-66347980D02*
X79227610Y-66347980D01*
X79227610Y-58219964D02*
X79227610Y-60251968D01*
X79227610Y-60251968D02*
X78719609Y-60251968D01*
X79227610Y-66347980D02*
X79227610Y-68379984D01*
X79227610Y-68379984D02*
X77101727Y-68379984D01*
%TO.C,U16*%
X70199976Y-70159995D02*
X72539981Y-70129998D01*
X70199976Y-81527966D02*
X72089968Y-81527966D01*
X70199976Y-84150038D02*
X70199976Y-70159995D01*
X71568861Y-84150038D02*
X70199976Y-84150038D01*
X72089968Y-72789993D02*
X70199976Y-72789993D01*
X72089968Y-81527966D02*
X72089968Y-72789993D01*
X72568861Y-84150038D02*
X71429186Y-84150038D01*
X79600001Y-69989993D02*
X76831116Y-69989993D01*
X79600001Y-72418873D02*
X79600001Y-69989993D01*
X79600001Y-73881179D02*
X79600001Y-74418898D01*
X79600001Y-73975007D02*
X79600001Y-73881153D01*
X79600001Y-75881128D02*
X79600001Y-76418898D01*
X79600001Y-77881128D02*
X79600001Y-78418898D01*
X79600001Y-79881128D02*
X79600001Y-80418847D01*
X79600001Y-81881153D02*
X79600001Y-84150038D01*
X79600001Y-84150038D02*
X76831142Y-84150038D01*
D11*
X80579808Y-82829972D02*
G75*
G02*
X80180012Y-82829972I-199898J0D01*
G01*
X80180012Y-82829972D02*
G75*
G02*
X80579808Y-82829972I199898J0D01*
G01*
D12*
X74680011Y-81499975D02*
X72680011Y-82099975D01*
X72680011Y-80799975D01*
X74680011Y-81499975D01*
G36*
X74680011Y-81499975D02*
G01*
X72680011Y-82099975D01*
X72680011Y-80799975D01*
X74680011Y-81499975D01*
G37*
D10*
%TO.C,U15*%
X70100051Y-86059995D02*
X72440056Y-86029998D01*
X70100051Y-97427966D02*
X71990043Y-97427966D01*
X70100051Y-100050038D02*
X70100051Y-86059995D01*
X71468936Y-100050038D02*
X70100051Y-100050038D01*
X71990043Y-88689993D02*
X70100051Y-88689993D01*
X71990043Y-97427966D02*
X71990043Y-88689993D01*
X72468936Y-100050038D02*
X71329261Y-100050038D01*
X79500076Y-85889993D02*
X76731191Y-85889993D01*
X79500076Y-88318873D02*
X79500076Y-85889993D01*
X79500076Y-89781179D02*
X79500076Y-90318898D01*
X79500076Y-89875007D02*
X79500076Y-89781153D01*
X79500076Y-91781128D02*
X79500076Y-92318898D01*
X79500076Y-93781128D02*
X79500076Y-94318898D01*
X79500076Y-95781128D02*
X79500076Y-96318847D01*
X79500076Y-97781153D02*
X79500076Y-100050038D01*
X79500076Y-100050038D02*
X76731217Y-100050038D01*
D11*
X80479883Y-98729972D02*
G75*
G02*
X80080087Y-98729972I-199898J0D01*
G01*
X80080087Y-98729972D02*
G75*
G02*
X80479883Y-98729972I199898J0D01*
G01*
D12*
X74580086Y-97399975D02*
X72580086Y-97999975D01*
X72580086Y-96699975D01*
X74580086Y-97399975D01*
G36*
X74580086Y-97399975D02*
G01*
X72580086Y-97999975D01*
X72580086Y-96699975D01*
X74580086Y-97399975D01*
G37*
%TD*%
M02*
